<?xml version="1.0" standalone="no"?>
<!DOCTYPE svg PUBLIC "-//W3C//DTD SVG 20010904//EN"
 "http://www.w3.org/TR/2001/REC-SVG-20010904/DTD/svg10.dtd">
<svg version="1.0" xmlns="http://www.w3.org/2000/svg"
 width="736.000000pt" height="736.000000pt" viewBox="0 0 736.000000 736.000000"
 preserveAspectRatio="xMidYMid meet">

<g transform="translate(0.000000,736.000000) scale(0.100000,-0.100000)"
fill="#000000" stroke="none">
<path d="M4849 6606 c-36 -7 -79 -22 -97 -34 -17 -13 -69 -38 -116 -57 -47
-19 -104 -46 -126 -60 -23 -14 -74 -41 -113 -59 -90 -42 -278 -151 -365 -213
-37 -26 -100 -80 -141 -120 -74 -73 -74 -73 -100 -57 -14 9 -34 25 -44 35 -10
11 -32 19 -49 19 -18 0 -52 13 -80 31 -27 18 -90 49 -140 69 -89 37 -92 38
-132 23 -39 -14 -109 -13 -148 2 -13 5 -18 2 -18 -12 0 -24 -38 -49 -53 -34
-7 7 -6 15 3 26 10 12 10 15 -4 15 -14 0 -69 -29 -218 -114 -26 -15 -75 -38
-109 -51 -73 -29 -104 -55 -119 -100 -7 -22 -29 -45 -66 -70 -106 -73 -154
-156 -160 -276 -4 -102 -37 -184 -68 -174 -140 45 -363 70 -486 54 -134 -16
-427 -119 -572 -200 -168 -94 -197 -126 -262 -289 -38 -94 -38 -96 -32 -193
l7 -98 -51 -57 c-62 -69 -91 -129 -119 -247 -12 -49 -33 -131 -47 -181 -28
-106 -30 -136 -7 -174 16 -28 15 -31 -16 -112 -65 -169 -75 -253 -42 -329 11
-24 25 -75 32 -114 15 -91 45 -149 116 -226 32 -34 72 -82 88 -107 18 -28 61
-67 110 -101 l80 -56 110 1 c125 0 145 7 266 84 43 28 85 50 93 50 19 0 46
-38 46 -65 0 -33 40 -71 120 -116 41 -23 97 -58 125 -76 49 -34 51 -35 140
-31 77 3 102 8 173 40 127 56 190 96 268 173 101 100 155 178 210 305 26 60
54 110 61 110 16 0 13 16 22 -125 6 -99 14 -140 45 -232 47 -140 76 -181 157
-222 86 -43 120 -41 231 15 86 43 96 46 152 41 34 -3 94 -12 134 -21 l73 -16
67 31 c36 18 87 51 112 75 l45 42 54 -33 c64 -41 149 -70 249 -86 56 -9 72
-16 72 -29 0 -9 11 -49 24 -88 14 -40 32 -111 41 -159 8 -49 24 -117 35 -153
27 -94 110 -587 111 -662 0 -35 4 -85 10 -113 5 -27 16 -156 25 -285 8 -129
19 -280 23 -335 5 -55 9 -144 10 -197 1 -110 9 -140 46 -164 23 -15 27 -15 49
-1 28 19 37 80 25 167 -4 30 -10 127 -13 215 -3 88 -9 201 -15 250 -6 50 -15
142 -21 205 -6 63 -22 174 -35 245 -13 72 -49 282 -79 468 -48 290 -111 580
-144 667 -8 20 -4 33 17 65 15 22 34 57 43 77 22 48 80 112 137 150 66 44 169
147 192 190 30 58 56 228 43 278 -6 22 -9 42 -5 44 8 6 226 -61 281 -86 28
-12 84 -23 151 -29 l107 -10 78 38 c69 33 81 44 101 83 12 25 27 77 33 115 7
48 19 82 39 110 16 22 36 54 45 72 19 38 21 132 4 180 -14 38 -1 55 37 51 11
-1 36 3 55 10 19 6 71 19 115 27 93 20 137 40 187 89 64 62 91 119 90 187 -1
50 5 70 37 132 21 39 46 97 56 127 22 66 31 74 114 95 79 20 131 46 181 91 51
47 73 112 75 229 1 75 5 98 27 140 36 69 59 152 51 184 -8 36 -40 100 -70 140
-33 43 -179 139 -269 176 -38 16 -73 32 -77 36 -5 3 1 25 12 47 38 75 22 126
-57 173 -20 12 -67 49 -104 81 -37 32 -86 67 -110 78 -65 28 -252 61 -344 61
-75 -1 -82 1 -91 22 -46 99 -159 158 -393 203 -137 27 -147 27 -241 10z m252
-60 c95 -15 179 -42 179 -58 0 -12 -83 -9 -188 7 -92 14 -148 37 -137 55 8 13
35 13 146 -4z m-131 -61 c53 -22 155 -39 270 -44 19 -1 51 -6 70 -11 41 -12
108 -65 97 -77 -5 -4 -50 -11 -100 -15 -106 -7 -181 -20 -217 -36 -14 -6 -63
-18 -110 -27 -47 -9 -128 -29 -180 -45 -52 -16 -142 -36 -199 -44 -66 -10
-131 -27 -175 -47 -126 -55 -278 -132 -369 -187 -48 -29 -94 -51 -100 -49 -7
3 36 52 94 109 124 122 211 173 362 212 54 14 105 30 115 35 9 5 59 17 110 26
50 9 92 21 92 26 0 12 13 13 -155 -17 -142 -24 -277 -64 -360 -106 -55 -28
-146 -102 -230 -187 -66 -68 -96 -84 -111 -60 -17 28 216 218 405 329 249 146
471 238 579 239 35 1 72 -7 112 -24z m811 -210 c22 -14 68 -50 104 -80 36 -31
89 -64 120 -76 96 -36 144 -109 99 -153 -21 -21 -48 -20 -218 9 -80 14 -167
25 -193 25 -26 0 -86 9 -133 20 -101 23 -149 24 -250 5 -41 -8 -160 -30 -264
-49 -103 -20 -194 -40 -201 -46 -8 -6 -19 -10 -27 -8 -7 1 -34 -4 -61 -11 -26
-8 -63 -11 -83 -8 -20 3 -55 0 -78 -7 -44 -15 -103 -26 -151 -31 -16 -1 -66
-6 -109 -10 -53 -5 -77 -4 -73 3 4 5 23 13 42 16 63 12 39 27 -32 20 -38 -4
-65 -4 -62 0 11 12 113 24 124 16 10 -8 202 23 213 35 3 3 1 10 -5 16 -8 8
-17 7 -33 -1 -12 -7 -68 -14 -124 -16 -128 -5 -215 -26 -312 -75 -42 -21 -78
-39 -80 -39 -2 0 -4 7 -4 15 0 16 15 24 243 136 156 76 322 137 482 178 85 21
786 138 870 145 96 7 155 -1 196 -29z m179 -55 c27 -22 31 -29 17 -30 -22 0
-63 26 -71 46 -9 23 17 16 54 -16z m-2743 -144 c117 -5 150 -10 183 -27 31
-17 54 -20 109 -18 l69 4 56 -59 c31 -32 56 -62 56 -67 0 -5 14 -15 30 -24 36
-19 39 -35 6 -35 -41 0 -40 -20 2 -63 22 -23 47 -56 55 -73 22 -44 1 -74 -51
-74 -33 0 -39 -4 -55 -41 -11 -22 -17 -46 -14 -53 3 -8 -5 -23 -19 -35 -39
-34 -26 -79 19 -67 20 5 27 2 32 -14 10 -31 -2 -40 -50 -40 -43 0 -45 2 -67
47 -29 59 -51 74 -74 51 -16 -16 -16 -20 10 -58 23 -35 26 -48 20 -85 -7 -53
-17 -62 -80 -78 -43 -11 -49 -16 -55 -45 -9 -44 -13 -47 -49 -32 -36 15 -38
33 -8 54 18 13 20 18 10 28 -19 19 -66 -10 -70 -42 -5 -43 -44 -130 -58 -130
-21 0 -27 20 -14 45 22 41 7 57 -46 49 l-46 -7 4 29 c3 29 4 29 59 26 70 -4
85 11 43 45 -52 42 -104 39 -104 -6 0 -17 -63 -55 -74 -44 -3 3 2 19 10 35 16
31 12 78 -6 78 -6 0 -19 -19 -30 -42 -19 -40 -66 -86 -76 -75 -3 2 3 32 12 65
22 80 16 94 -38 90 -31 -2 -44 -8 -46 -20 -2 -11 3 -18 12 -18 20 0 20 -9 1
-34 -8 -11 -12 -28 -9 -39 5 -16 3 -17 -15 -8 -15 8 -21 21 -21 45 0 25 -7 38
-25 50 -31 21 -55 67 -48 94 4 17 0 21 -29 24 -32 3 -33 4 -33 48 -1 25 -7 64
-13 88 -12 41 -15 43 -43 37 -27 -6 -29 -5 -29 24 0 24 7 34 30 46 35 18 38
35 10 53 -26 16 -25 30 3 41 12 5 29 21 37 35 7 15 25 29 39 33 14 3 36 14 48
25 20 19 21 19 31 1 10 -16 11 -16 21 9 5 15 21 33 35 40 14 7 35 29 48 48 17
25 33 36 59 41 19 3 46 13 59 22 13 9 26 15 29 12 3 -2 70 -6 148 -9z m2607
-147 c17 -5 80 -16 139 -25 237 -33 488 -150 527 -244 14 -34 10 -88 -15 -200
-11 -47 -18 -125 -19 -209 l-1 -133 -49 -45 c-65 -58 -127 -89 -204 -100 -68
-11 -72 -9 -90 45 -20 58 -48 87 -189 187 -205 147 -393 225 -588 245 -60 6
-151 17 -200 25 -50 8 -201 20 -335 25 -135 6 -281 15 -325 20 -44 5 -127 9
-185 10 -58 2 -118 6 -135 9 l-30 8 40 11 c22 6 74 18 115 26 41 8 91 21 110
29 83 35 691 48 798 18 18 -5 65 -11 105 -12 39 -1 90 -6 112 -11 36 -8 122
-2 112 8 -3 3 -96 19 -208 36 -189 28 -223 30 -452 29 -163 -1 -283 -6 -348
-16 -165 -25 -361 -66 -392 -81 -15 -9 -40 -14 -55 -12 -23 4 -17 9 48 41 67
33 147 55 263 72 20 3 37 9 37 14 0 14 -138 -8 -249 -39 -111 -32 -141 -33
-141 -7 0 13 59 47 81 47 5 0 45 13 87 29 42 16 97 34 122 40 25 6 68 18 95
26 28 8 199 40 380 71 298 50 351 57 555 65 124 5 250 10 280 12 67 5 162 -2
204 -14z m-1664 -157 c0 -13 -102 -44 -112 -34 -13 13 11 30 52 35 19 2 41 5
48 5 6 1 12 -1 12 -6z m-270 -91 c11 -22 -6 -75 -21 -65 -11 6 -12 68 -2 77 9
10 11 9 23 -12z m-1310 -17 c0 -3 -5 -15 -12 -27 -6 -12 -15 -46 -19 -75 -7
-50 -35 -110 -46 -99 -2 3 0 22 6 42 7 25 7 44 1 56 -18 32 -11 57 23 83 31
25 47 32 47 20z m67 -132 c-11 -41 -10 -43 27 -81 l38 -39 -20 -29 c-11 -15
-29 -36 -40 -47 -21 -18 -21 -18 -15 17 3 21 -1 55 -12 86 -17 52 -14 78 12
119 20 33 24 24 10 -26z m1703 -82 c63 -6 192 -22 285 -35 94 -13 199 -27 235
-30 91 -9 156 -22 300 -61 69 -18 168 -40 220 -49 199 -34 338 -96 522 -232
109 -81 138 -123 138 -199 0 -49 -52 -269 -72 -309 -15 -26 -97 -94 -145 -119
-85 -43 -235 -57 -333 -32 -136 35 -292 65 -375 71 -168 13 -282 47 -470 142
-93 47 -192 100 -220 118 -27 18 -96 55 -152 83 -131 65 -244 141 -304 206
-26 28 -79 74 -118 101 -100 71 -93 109 11 68 24 -9 59 -27 78 -39 45 -28 107
-50 117 -40 4 4 1 11 -7 16 -8 5 -11 12 -7 16 4 4 48 -8 99 -25 333 -117 452
-155 530 -172 87 -19 291 -45 438 -56 110 -8 78 13 -50 33 -264 41 -476 87
-583 125 -62 23 -150 53 -197 69 -172 56 -423 167 -417 184 2 6 28 14 58 18
79 11 101 17 94 28 -3 5 -24 8 -46 8 -22 0 -45 4 -51 10 -14 14 181 26 275 18
40 -4 114 -14 164 -22 51 -9 103 -14 115 -12 20 3 18 6 -15 21 -67 29 -188 48
-342 53 -118 4 -151 8 -153 19 -7 32 169 43 378 25z m895 -40 c218 -30 300
-52 468 -128 57 -26 225 -140 292 -199 38 -33 65 -76 65 -101 0 -23 -3 -21
-41 22 -51 57 -227 177 -334 226 -96 44 -151 59 -355 100 -85 16 -177 37 -203
46 -27 9 -97 24 -155 34 -94 15 -104 18 -82 28 29 13 58 11 345 -28z m-3138
-11 c28 -11 28 -11 5 -20 -12 -5 -64 -15 -115 -24 -50 -8 -108 -19 -127 -24
-19 -5 -55 -15 -79 -21 -25 -7 -83 -13 -130 -15 l-86 -3 28 24 c15 13 36 24
46 24 10 0 44 9 77 21 32 11 82 26 109 34 61 17 233 19 272 4z m276 -60 c20
-5 37 -13 37 -17 0 -22 -30 -32 -92 -32 -87 0 -201 -23 -295 -61 -40 -16 -100
-38 -134 -49 -33 -12 -77 -32 -97 -45 -21 -13 -77 -40 -125 -59 -48 -19 -109
-48 -135 -64 -26 -16 -87 -51 -137 -77 -49 -26 -129 -74 -178 -107 -48 -32
-92 -56 -97 -53 -11 7 73 254 106 312 14 24 48 60 77 81 46 34 65 41 172 60
66 12 161 26 210 33 50 6 155 25 235 41 211 45 377 58 453 37z m1202 -112 c0
-42 -2 -47 -22 -47 -31 0 -41 41 -18 76 23 36 39 25 40 -29z m-1210 3 c-8 -13
-70 -44 -120 -60 -64 -20 -305 -138 -305 -149 0 -12 42 -1 88 23 33 17 62 21
62 9 0 -8 -13 -16 -210 -122 -345 -186 -747 -528 -953 -810 -55 -75 -62 -81
-70 -63 -7 16 2 45 41 129 28 59 67 167 87 238 57 203 59 206 209 307 154 103
424 246 591 314 153 61 533 192 563 193 13 1 21 -3 17 -9z m513 -38 c4 -14
-45 -35 -65 -28 -19 8 -16 43 5 55 18 10 52 -5 60 -27z m-148 -37 c-33 -35
-50 -43 -50 -26 0 19 43 61 63 61 19 0 18 -3 -13 -35z m280 10 c19 -23 -1 -39
-39 -30 -34 7 -38 14 -19 33 17 17 43 15 58 -3z m860 -211 c58 -35 141 -82
185 -103 44 -21 86 -45 93 -54 7 -9 48 -30 90 -47 79 -33 111 -50 197 -105
110 -71 565 -293 676 -330 102 -34 127 -38 239 -42 84 -3 129 -8 138 -17 7 -7
18 -43 25 -80 10 -61 9 -71 -7 -99 -37 -64 -84 -163 -100 -213 -21 -66 -67
-138 -102 -161 -22 -14 -48 -18 -114 -18 -78 0 -94 4 -200 47 -63 25 -141 51
-174 58 -104 21 -353 133 -471 213 -79 53 -374 348 -410 410 -15 26 -42 87
-60 135 -18 48 -42 107 -53 132 -19 41 -20 46 -5 62 15 17 12 22 -44 81 -60
62 -99 114 -92 121 2 2 42 -29 89 -70 115 -102 286 -214 457 -301 138 -71 201
-92 173 -58 -7 8 -17 15 -22 15 -17 0 -275 149 -383 221 -162 108 -365 313
-365 368 0 19 10 14 68 -39 37 -33 114 -90 172 -126z m-1420 129 c0 -12 -82
-80 -195 -163 -141 -103 -395 -365 -418 -432 -13 -36 22 -17 56 30 52 70 271
280 352 337 39 27 91 66 116 87 55 45 79 49 79 13 0 -39 16 -30 52 30 39 65
64 74 55 19 -12 -72 -192 -406 -389 -720 -80 -129 -101 -175 -80 -174 9 1 148
198 185 264 16 28 60 103 98 167 38 64 82 145 99 180 16 35 44 91 62 124 18
33 41 82 52 109 29 74 42 43 17 -41 -12 -39 -21 -76 -21 -82 0 -26 24 -4 37
34 13 39 33 69 40 61 11 -10 -59 -236 -125 -401 -30 -75 -138 -294 -217 -440
-152 -280 -250 -436 -320 -514 -38 -42 -94 -106 -124 -143 -48 -60 -161 -161
-295 -262 -81 -62 -191 -110 -261 -114 -96 -6 -163 25 -256 117 l-77 76 -5 77
c-7 101 -34 151 -100 187 -26 14 -50 34 -53 46 -8 34 53 190 139 355 44 85
100 196 125 245 103 211 220 326 562 554 80 54 174 115 210 136 36 21 91 56
122 77 58 39 236 128 256 128 24 0 -3 -30 -118 -129 -110 -96 -138 -126 -125
-139 5 -6 2 -8 170 132 141 119 295 206 295 169z m360 -69 c0 -26 9 -31 28
-12 27 27 23 -7 -10 -79 -50 -110 -65 -159 -80 -257 -8 -62 -9 -89 -1 -97 8
-8 14 4 23 43 38 166 99 328 135 358 15 12 19 12 31 -5 21 -28 18 -46 -25
-135 -48 -99 -67 -179 -127 -530 -41 -239 -47 -292 -45 -405 1 -71 9 -171 18
-222 16 -90 16 -92 -6 -160 -32 -98 -103 -206 -197 -299 -74 -74 -95 -88 -225
-152 -165 -81 -240 -108 -341 -122 l-72 -10 -45 43 c-25 24 -62 56 -81 72 -78
62 -90 117 -37 168 54 51 148 164 222 267 38 52 112 146 165 208 52 62 120
148 150 191 30 43 79 109 107 147 29 38 60 92 69 119 9 28 20 52 24 55 4 3 17
21 29 40 24 40 28 72 8 64 -15 -5 -57 -74 -57 -92 0 -28 -145 -220 -157 -208
-3 3 49 114 115 248 127 255 178 377 213 506 40 147 55 148 39 1 -14 -123 -48
-238 -101 -337 -40 -76 -48 -106 -26 -100 21 6 116 209 137 293 11 44 26 140
33 213 10 91 19 138 30 150 8 9 20 30 26 45 13 33 31 27 31 -9z m-1676 -47
c-7 -35 -25 -67 -36 -67 -12 0 -9 26 8 70 18 46 39 44 28 -3z m2562 -168 c76
-114 119 -204 144 -297 10 -37 30 -107 44 -157 93 -327 89 -304 90 -505 l1
-185 -67 -165 c-37 -91 -72 -185 -78 -210 -30 -123 -55 -175 -107 -226 -66
-66 -115 -80 -273 -76 -63 1 -158 -3 -211 -9 -154 -19 -200 10 -259 162 -25
64 -87 211 -120 284 -15 35 -20 223 -10 405 5 96 14 261 19 365 15 285 30 374
96 543 71 184 72 187 92 171 11 -10 14 -24 9 -62 -5 -37 -3 -55 9 -74 12 -18
15 -38 12 -67 -3 -22 -2 -50 2 -61 10 -23 5 -40 41 150 29 151 40 190 50 179
6 -7 -4 -206 -12 -242 -3 -12 12 -202 23 -302 6 -52 21 -122 34 -155 12 -33
28 -91 35 -128 7 -38 16 -65 21 -60 4 4 -7 98 -27 208 -43 245 -52 414 -31
569 18 131 28 145 87 127 29 -8 48 -23 66 -51 15 -22 31 -40 35 -40 12 0 11 5
-6 47 -16 37 -14 50 4 38 25 -15 117 -165 152 -247 58 -137 116 -338 145 -501
24 -139 32 -231 38 -437 2 -47 8 -96 14 -110 9 -22 11 -22 12 -5 0 11 5 54 10
95 19 165 -25 520 -95 755 -13 44 -29 114 -35 155 -18 119 -30 155 -76 236
-93 163 -10 83 122 -117z m-2606 33 c-11 -25 -12 -25 -22 -8 -7 13 -7 26 2 44
11 25 12 25 22 8 7 -13 7 -26 -2 -44z m-150 -429 c-28 -84 -45 -105 -37 -46 7
60 38 136 50 124 6 -6 1 -34 -13 -78z m4413 -38 c64 -15 117 -32 117 -36 0 -5
-51 -7 -112 -5 -104 3 -120 6 -203 40 l-90 37 85 -4 c47 -2 138 -16 203 -32z
m-4323 -208 c0 -15 -135 -292 -177 -362 -17 -28 -38 -74 -47 -103 -37 -111
-50 -28 -15 98 36 132 239 444 239 367z m1789 -98 c2 -113 -24 -357 -37 -345
-9 10 -3 300 8 369 5 34 10 67 11 72 0 6 4 1 9 -10 5 -11 9 -50 9 -86z m1426
-124 c33 -21 127 -65 209 -98 179 -70 202 -82 217 -119 16 -40 5 -171 -21
-240 -29 -78 -72 -121 -177 -177 -112 -61 -230 -145 -238 -171 -20 -64 -105
-119 -195 -127 -53 -5 -59 -3 -93 26 -20 18 -46 48 -58 67 -21 34 -21 39 -9
112 7 42 25 104 40 137 56 123 140 419 140 495 0 25 -9 91 -20 148 -31 158
-32 156 63 66 45 -44 109 -97 142 -119z m-40 121 c78 -72 96 -106 38 -70 -41
25 -133 116 -133 131 0 23 13 14 95 -61z m-3302 -634 c26 -28 37 -142 14 -142
-24 0 -79 95 -85 146 l-5 46 29 -15 c16 -8 37 -24 47 -35z m1986 -185 c6 -7
29 -58 51 -112 23 -54 52 -113 66 -130 32 -42 94 -85 123 -85 12 0 19 -4 16
-10 -13 -21 -99 -11 -138 16 -40 27 -97 98 -97 120 0 7 -11 48 -25 90 -34 103
-32 153 4 111z m1436 -132 c-36 -53 -100 -113 -110 -103 -10 10 76 129 107
148 18 10 34 17 36 15 2 -2 -13 -29 -33 -60z m-1786 4 c-35 -49 -148 -137
-224 -174 -80 -40 -166 -63 -245 -67 -84 -4 -73 20 20 43 89 22 384 165 419
203 36 38 58 34 30 -5z m1976 -1708 c9 -51 15 -118 14 -150 -1 -31 3 -90 9
-131 16 -115 25 -327 13 -334 -17 -11 -33 34 -29 78 5 48 -7 255 -21 371 -15
118 -22 293 -11 275 5 -9 16 -58 25 -109z"/>
<path d="M3647 5783 c-25 -24 13 -73 56 -73 36 0 35 22 -4 54 -32 27 -41 31
-52 19z"/>
<path d="M3600 5678 c1 -23 27 -48 49 -48 24 0 27 17 7 43 -15 20 -56 23 -56
5z"/>
<path d="M3159 5541 c-17 -14 -21 -23 -14 -30 12 -12 75 21 75 39 0 17 -36 11
-61 -9z"/>
<path d="M3364 5389 c-9 -15 16 -59 33 -59 20 0 26 25 13 49 -12 23 -35 28
-46 10z"/>
<path d="M1875 4994 c-62 -32 -55 -47 9 -20 36 15 56 36 34 36 -7 0 -26 -7
-43 -16z"/>
<path d="M2517 4700 c-9 -14 -17 -34 -17 -45 0 -16 4 -14 21 12 25 39 21 68
-4 33z"/>
<path d="M1792 4437 c-22 -23 -29 -47 -14 -47 13 1 38 24 51 48 16 31 -8 30
-37 -1z"/>
<path d="M1717 4348 c-41 -56 -59 -87 -55 -98 3 -11 83 86 94 114 11 28 -14
17 -39 -16z"/>
<path d="M2000 4033 c-41 -47 -103 -143 -97 -150 3 -3 10 -2 16 2 17 10 131
162 131 174 0 20 -18 11 -50 -26z"/>
<path d="M1812 3806 c-65 -67 -82 -102 -34 -68 33 25 74 68 97 105 30 47 1 30
-63 -37z"/>
<path d="M3434 4863 c3 -10 10 -38 16 -62 6 -23 14 -41 17 -38 8 9 -18 117
-28 117 -6 0 -8 -8 -5 -17z"/>
</g>
</svg>
