<?xml version="1.0" standalone="no"?>
<!DOCTYPE svg PUBLIC "-//W3C//DTD SVG 20010904//EN"
 "http://www.w3.org/TR/2001/REC-SVG-20010904/DTD/svg10.dtd">
<svg version="1.0" xmlns="http://www.w3.org/2000/svg"
 width="1080.000000pt" height="1080.000000pt" viewBox="0 0 1080.000000 1080.000000"
 preserveAspectRatio="xMidYMid meet">

<g transform="translate(0.000000,1080.000000) scale(0.100000,-0.100000)"
fill="#000000" stroke="none">
<path d="M4680 9690 c-154 -37 -328 -170 -517 -397 -122 -146 -210 -278 -279
-415 -139 -277 -178 -449 -177 -783 0 -267 30 -461 122 -800 72 -265 243 -573
423 -761 140 -146 407 -313 575 -359 34 -10 70 -26 79 -36 15 -17 123 -376
179 -599 28 -112 44 -258 46 -425 1 -144 1 -147 -9 -162 -4 -7 -57 -19 -120
-27 -61 -8 -132 -24 -156 -34 -92 -41 -170 -153 -202 -289 -25 -108 -11 -365
27 -498 16 -55 43 -174 60 -265 45 -242 96 -483 119 -560 11 -37 20 -79 20
-94 0 -29 -184 -482 -206 -505 -19 -20 -31 36 -44 209 -14 196 -34 321 -76
492 -19 79 -46 196 -59 261 -33 160 -71 269 -149 425 -91 185 -184 323 -274
407 -40 39 -135 131 -210 206 -76 74 -184 173 -242 219 -179 143 -226 187
-412 392 -205 226 -282 298 -315 298 -57 0 -143 -143 -173 -287 -48 -230 -70
-633 -51 -933 12 -192 41 -439 61 -525 21 -89 81 -266 122 -359 91 -209 144
-272 311 -370 206 -121 391 -190 737 -275 269 -66 478 -135 549 -181 113 -73
160 -143 146 -218 -6 -34 -156 -328 -248 -487 -135 -234 -287 -432 -500 -651
-128 -133 -168 -179 -165 -196 2 -12 8 -23 13 -25 6 -2 96 81 201 185 207 202
317 339 470 582 88 140 277 508 346 675 26 61 80 182 121 270 41 89 85 195 97
235 13 41 26 79 30 84 5 4 59 9 122 10 104 2 120 5 203 38 108 42 217 96 300
148 313 196 659 372 700 356 7 -2 37 -50 65 -105 69 -135 135 -219 211 -270
79 -53 114 -54 195 -5 77 46 86 55 223 214 63 74 220 241 347 370 235 238 281
296 330 411 44 103 32 246 -33 379 -39 80 -189 232 -267 270 -109 53 -318 99
-526 116 -480 39 -666 29 -1100 -55 -101 -19 -250 -38 -393 -48 -83 -6 -103 7
-111 75 -7 55 14 154 38 181 19 21 178 55 326 70 52 6 266 13 475 16 209 3
407 8 440 10 33 2 101 7 150 11 224 15 499 97 669 197 227 135 556 576 692
928 81 210 138 471 132 603 -3 76 -5 79 -38 108 -58 48 -139 81 -195 80 -49
-1 -179 -44 -548 -181 -295 -110 -754 -220 -919 -221 -103 0 -423 -98 -605
-185 -189 -90 -241 -152 -442 -530 -76 -141 -126 -296 -171 -528 l-12 -59 -22
49 c-34 72 -62 162 -100 323 -19 80 -42 165 -51 189 -8 24 -13 52 -10 62 3 9
31 37 63 60 87 66 407 375 475 459 136 168 317 501 398 729 60 169 73 242 73
411 -1 138 -4 166 -28 255 -15 55 -47 141 -70 191 -42 89 -269 443 -325 507
-16 17 -56 73 -89 124 -34 50 -66 94 -72 98 -6 4 -88 100 -183 213 -218 263
-402 453 -470 487 -54 27 -62 28 -117 15z m77 -89 c125 -57 259 -216 401 -478
34 -61 114 -199 180 -305 162 -265 380 -647 408 -717 65 -161 88 -356 63 -538
-30 -218 -161 -516 -327 -743 -94 -127 -329 -399 -353 -408 -16 -6 -9 28 16
78 33 65 96 143 220 270 56 58 116 127 134 153 46 67 117 221 135 291 20 76
33 236 19 236 -14 0 -23 -25 -23 -64 0 -113 -101 -349 -201 -468 -83 -100
-196 -218 -209 -218 -16 0 -11 46 7 61 18 15 52 86 53 108 0 31 -69 -53 -111
-135 -24 -46 -47 -84 -50 -84 -4 0 -9 14 -13 32 -7 37 -18 29 -34 -27 -7 -22
-23 -58 -37 -80 l-24 -40 -1 35 c0 19 5 76 11 125 6 54 7 142 3 220 -6 117 -8
127 -19 100 -9 -19 -13 -83 -13 -185 1 -87 -7 -214 -16 -290 -20 -156 -23
-170 -40 -170 -6 0 -52 39 -102 88 -117 115 -254 232 -271 232 -38 0 14 -69
104 -138 134 -102 243 -233 243 -291 0 -41 -14 -40 -86 8 -70 46 -125 102
-191 193 -26 36 -131 156 -232 265 -100 109 -203 225 -228 258 -24 33 -99 155
-165 270 -207 359 -212 378 -213 810 0 284 1 305 24 389 34 132 75 212 202
399 63 93 140 210 173 260 99 156 372 482 421 503 42 19 93 17 142 -5z m-597
-428 c0 -18 -143 -233 -172 -260 -17 -15 -18 -15 -18 1 0 24 92 184 135 234
39 45 55 52 55 25z m1169 -155 c11 -13 40 -48 66 -78 26 -30 65 -82 88 -115
22 -33 57 -80 77 -105 43 -52 213 -310 293 -445 85 -143 129 -318 131 -515 1
-132 0 -138 -38 -250 -54 -161 -99 -268 -153 -363 -25 -45 -61 -115 -80 -155
-75 -165 -255 -394 -390 -494 -6 -5 -14 -5 -17 1 -3 5 32 53 79 108 114 131
180 225 257 363 72 130 134 268 172 385 100 311 63 674 -95 930 -34 55 -122
206 -196 335 -74 129 -150 256 -168 281 -18 26 -40 60 -49 77 -30 57 -14 84
23 40z m-1281 -1956 c76 -116 141 -198 248 -317 171 -188 314 -359 314 -374 0
-25 -48 -8 -127 45 -120 80 -204 162 -279 273 -36 53 -83 121 -104 152 -40 56
-170 336 -170 364 0 8 3 15 8 15 4 0 53 -71 110 -158z m3900 72 c35 -10 54
-59 60 -155 4 -72 0 -103 -23 -190 -61 -234 -191 -587 -272 -741 -89 -168
-227 -310 -372 -383 -57 -28 -190 -81 -306 -121 -132 -46 -394 -70 -850 -79
-93 -1 -181 -5 -195 -9 -34 -8 -334 -36 -392 -36 -27 0 -48 4 -48 9 0 19 95
95 155 123 99 46 163 46 468 4 142 -20 282 -36 312 -36 115 0 306 52 378 103
42 29 15 40 -42 17 -67 -26 -241 -60 -308 -60 -32 0 -177 16 -323 35 -176 24
-285 34 -323 30 -56 -5 -58 -4 -55 17 4 28 133 117 214 148 94 35 272 78 467
110 296 50 275 31 -89 -84 -308 -96 -338 -108 -342 -129 -2 -9 2 -17 9 -17 26
0 626 193 664 213 24 13 41 31 43 43 2 16 21 27 82 48 64 23 86 36 113 69 23
28 72 63 141 102 107 60 145 89 132 102 -3 4 -109 -43 -234 -105 -125 -61
-252 -118 -282 -126 -85 -24 -349 -76 -385 -76 -40 0 -50 9 -27 26 11 8 14 16
7 23 -7 7 -57 1 -155 -19 -80 -15 -183 -35 -230 -44 -137 -25 -236 -79 -342
-188 -49 -49 -88 -83 -88 -76 0 8 9 42 21 75 11 34 19 74 17 90 -2 22 -19 -4
-86 -137 -88 -176 -222 -414 -229 -407 -12 13 54 205 192 552 95 239 183 385
329 542 79 85 134 123 293 202 217 109 335 141 718 196 300 42 334 51 573 142
268 101 551 202 572 202 8 1 25 -2 38 -5z m-2204 -667 c-77 -78 -149 -167
-193 -235 -42 -67 -63 -51 -23 17 85 148 167 253 220 280 64 33 62 7 -4 -62z
m331 -566 c-6 -5 -53 -34 -105 -63 -116 -66 -191 -120 -284 -207 -39 -37 -98
-86 -131 -110 -64 -46 -114 -98 -115 -118 0 -15 -17 -26 -30 -18 -17 11 17 74
101 186 140 188 242 263 427 314 91 25 153 32 137 16z m1125 -380 c0 -44 -352
-141 -570 -156 -52 -4 -106 -9 -120 -11 -14 -3 -131 -7 -260 -9 -129 -2 -285
-7 -346 -11 -101 -6 -264 9 -251 23 8 7 185 31 317 42 200 17 270 20 550 27
301 7 407 20 553 68 111 37 127 40 127 27z m-4189 -109 c109 -112 197 -222
251 -315 62 -107 86 -134 368 -415 368 -367 455 -484 567 -758 115 -281 270
-732 293 -852 9 -52 6 -82 -11 -82 -14 0 -318 385 -375 475 -28 44 -73 123
-99 175 -76 150 -105 183 -105 119 0 -37 99 -228 180 -349 32 -47 95 -129 141
-183 46 -55 94 -113 107 -130 l23 -32 -22 -3 c-33 -6 -128 75 -144 122 -10 27
-55 80 -153 180 -77 77 -154 165 -172 194 -38 62 -64 70 -54 17 3 -19 3 -35 0
-35 -14 0 -184 73 -249 107 -117 62 -198 173 -244 334 -16 56 -18 99 -16 347
2 242 1 282 -12 282 -20 0 -23 -20 -31 -215 -13 -348 -3 -432 67 -583 65 -140
145 -206 354 -292 164 -68 237 -114 350 -223 84 -81 71 -80 -390 32 -282 69
-315 75 -315 62 0 -10 90 -43 176 -65 28 -8 100 -30 160 -50 60 -20 162 -47
227 -60 73 -16 144 -38 190 -60 89 -43 287 -182 287 -202 0 -27 -30 -27 -103
0 -40 14 -108 34 -152 45 -150 36 -540 140 -580 154 -142 51 -253 127 -319
217 -49 66 -117 229 -136 325 -14 71 -20 82 -31 64 -18 -28 -8 -100 27 -200
46 -132 59 -157 135 -257 40 -53 59 -86 52 -93 -27 -27 -175 68 -254 164 -94
112 -123 185 -134 342 -4 50 -27 277 -51 505 -73 686 -69 631 -56 812 17 224
60 413 104 451 37 32 59 21 149 -71z m3584 -407 c72 -8 173 -15 225 -14 149 1
430 -70 547 -138 57 -33 131 -116 161 -182 21 -45 24 -63 19 -120 -10 -129
-61 -231 -219 -441 -106 -140 -161 -200 -346 -370 -123 -114 -150 -145 -199
-226 -74 -126 -82 -131 -145 -96 -124 69 -140 96 -179 309 -11 62 -31 149 -44
193 -13 44 -33 137 -45 207 -12 71 -27 149 -35 174 -43 148 -183 322 -311 387
-77 39 -117 52 -373 123 -118 32 -216 61 -219 63 -2 3 11 12 29 21 26 14 45
16 93 10 34 -4 122 -8 196 -9 118 -2 144 -6 209 -29 79 -29 158 -70 223 -118
23 -16 47 -29 54 -29 7 0 19 -10 25 -22 7 -13 30 -43 52 -68 22 -25 53 -69 69
-97 30 -53 58 -69 58 -34 0 49 -127 211 -166 211 -8 0 -14 6 -14 13 0 30 -185
149 -260 167 -56 13 -63 26 -24 40 41 16 84 11 171 -19 194 -67 345 -230 488
-526 35 -74 69 -135 75 -135 27 0 17 39 -43 164 -107 223 -197 345 -333 452
l-86 69 48 3 c78 5 108 -5 203 -69 171 -114 249 -225 353 -503 68 -182 77
-199 113 -210 23 -6 58 12 38 21 -38 15 -55 43 -78 133 -86 326 -205 504 -426
633 -137 80 -126 87 96 62z m-1414 -170 c310 -57 609 -172 722 -277 88 -83 78
-118 -44 -154 -111 -33 -201 -96 -329 -231 -127 -132 -232 -282 -299 -426 -44
-94 -117 -314 -108 -323 17 -18 40 16 77 113 95 253 217 451 375 608 81 82
115 108 180 139 44 22 110 59 147 83 37 24 74 43 83 43 27 0 65 -51 81 -109 9
-31 22 -65 28 -76 21 -33 148 -425 143 -438 -3 -7 -33 -21 -68 -32 -64 -19
-212 -91 -455 -223 -327 -176 -614 -280 -709 -256 -32 8 -41 24 -65 126 -37
160 -170 1042 -170 1130 0 101 40 218 88 261 29 26 128 56 188 56 29 1 89 -6
135 -14z m817 -196 c24 -10 71 -47 105 -81 114 -115 177 -233 204 -383 23
-128 92 -464 109 -530 32 -128 -19 -116 -60 14 -13 42 -42 123 -64 181 -22 58
-66 182 -98 275 -92 275 -150 384 -260 487 -30 29 -54 56 -54 61 0 13 66 0
118 -24z m-2048 -142 c218 -215 308 -353 405 -622 69 -190 175 -639 156 -658
-6 -6 -12 -9 -14 -6 -2 2 -21 65 -41 139 -21 74 -60 191 -87 260 -27 69 -69
184 -94 255 -57 161 -139 334 -190 400 -21 28 -97 119 -169 203 -143 167 -154
182 -134 182 7 0 83 -69 168 -153z m770 48 c-8 -76 -3 -142 19 -260 5 -27 12
-87 16 -132 8 -95 -5 -110 -29 -35 -20 64 -24 92 -36 271 -10 148 -9 156 11
198 12 24 23 43 24 41 2 -2 -1 -39 -5 -83z m2895 -138 c16 -61 -82 -234 -197
-349 -80 -80 -98 -91 -98 -60 0 18 27 59 125 188 33 44 80 117 103 162 24 45
47 82 52 82 5 0 12 -10 15 -23z m-455 -598 c0 -6 -71 -90 -157 -186 -87 -96
-170 -189 -185 -206 -41 -50 -46 -23 -8 50 39 76 106 152 238 270 92 81 112
94 112 72z m-3477 -769 c256 -66 537 -171 537 -200 0 -16 -21 -12 -193 31
-306 76 -677 195 -677 216 0 17 192 -10 333 -47z"/>
<path d="M4489 8548 c-18 -70 -29 -157 -29 -252 0 -74 -4 -98 -27 -148 -26
-59 -26 -60 -14 -154 7 -53 21 -121 32 -151 31 -90 211 -416 245 -444 34 -28
8 52 -47 146 -129 220 -189 368 -189 468 0 89 19 68 65 -69 22 -65 63 -162 91
-214 28 -52 77 -143 109 -202 60 -114 70 -127 78 -104 10 25 -14 89 -63 171
-83 138 -170 333 -203 455 -30 111 -31 122 -32 328 0 116 -1 212 -2 212 -1 0
-7 -19 -14 -42z"/>
<path d="M5167 8234 c-10 -10 5 -36 87 -148 44 -60 82 -104 84 -98 8 26 -31
123 -68 170 -51 65 -87 92 -103 76z"/>
<path d="M5343 7938 c3 -13 17 -55 31 -93 29 -81 44 -208 35 -310 -7 -89 4
-116 22 -55 8 27 13 92 13 160 -1 96 -6 129 -27 195 -27 83 -50 125 -69 125
-6 0 -8 -10 -5 -22z"/>
<path d="M5520 7396 c-5 -15 -10 -46 -10 -70 0 -99 -55 -233 -138 -333 -56
-68 -82 -104 -82 -115 0 -45 154 113 203 208 9 17 23 68 31 115 26 146 24 268
-4 195z"/>
<path d="M4868 7138 c-8 -44 4 -428 14 -434 21 -13 29 18 33 117 4 98 -14 268
-34 321 -8 21 -8 21 -13 -4z"/>
<path d="M4286 6948 c12 -40 73 -116 152 -188 72 -66 102 -84 102 -59 0 6 -37
48 -83 93 -46 45 -98 103 -115 129 -35 50 -69 65 -56 25z"/>
<path d="M3512 4028 c6 -123 53 -215 165 -325 78 -78 113 -100 113 -70 0 7
-30 49 -66 92 -118 142 -174 239 -174 305 0 51 -10 80 -27 80 -13 0 -15 -14
-11 -82z"/>
<path d="M6821 4846 c-7 -9 -1 -25 24 -61 49 -68 74 -142 85 -253 10 -92 21
-124 37 -108 5 4 8 53 8 109 -1 84 -6 115 -27 174 -27 77 -59 125 -95 141 -16
8 -24 8 -32 -2z"/>
<path d="M4931 4674 c-50 -105 -66 -206 -65 -404 1 -183 10 -264 29 -258 6 2
9 46 7 113 -5 181 27 429 73 573 14 43 -22 24 -44 -24z"/>
<path d="M6015 4205 c-104 -56 -307 -216 -438 -347 -99 -100 -196 -258 -157
-258 5 0 24 21 41 48 79 115 347 363 498 460 86 54 120 86 121 110 0 17 -11
15 -65 -13z"/>
<path d="M4900 3943 c0 -26 14 -100 31 -163 17 -63 42 -154 55 -202 13 -48 27
-120 31 -160 7 -63 11 -73 27 -73 29 0 38 43 37 177 -1 111 1 125 38 240 22
67 38 125 35 130 -17 27 -77 -93 -99 -198 -8 -37 -19 -72 -25 -78 -12 -12 -8
-25 -65 203 -42 169 -65 214 -65 124z"/>
</g>
</svg>
