<svg width="782" height="789" viewBox="0 0 782 789" fill="none" xmlns="http://www.w3.org/2000/svg">
<path d="M548.533 2.53325C543.733 3.46658 538 5.46658 535.6 7.06658C533.333 8.79991 526.4 12.1332 520.133 14.6666C513.867 17.1999 506.267 20.7999 503.333 22.6666C500.267 24.5332 493.467 28.1332 488.267 30.5332C476.267 36.1332 451.2 50.6666 439.6 58.9333C434.667 62.3999 426.267 69.5999 420.8 74.9333C410.933 84.6666 410.933 84.6666 407.467 82.5333C405.6 81.3333 402.933 79.1999 401.6 77.8666C400.267 76.3999 397.333 75.3333 395.067 75.3333C392.667 75.3333 388.133 73.5999 384.4 71.1999C380.8 68.7999 372.4 64.6666 365.733 61.9999C353.867 57.0666 353.467 56.9333 348.133 58.9333C342.933 60.7999 333.6 60.6666 328.4 58.6666C326.667 57.9999 326 58.3999 326 60.2666C326 63.4666 320.933 66.7999 318.933 64.7999C318 63.8666 318.133 62.7999 319.333 61.3333C320.667 59.7333 320.667 59.3333 318.8 59.3333C316.933 59.3333 309.6 63.1999 289.733 74.5333C286.267 76.5333 279.733 79.5999 275.2 81.3333C265.467 85.1999 261.333 88.6666 259.333 94.6666C258.4 97.5999 255.467 100.667 250.533 104C236.4 113.733 230 124.8 229.2 140.8C228.667 154.4 224.267 165.333 220.133 164C201.467 158 171.733 154.667 155.333 156.8C137.467 158.933 98.4 172.667 79.0667 183.467C56.6667 196 52.8 200.267 44.1333 222C39.0667 234.533 39.0667 234.8 39.8667 247.733L40.8 260.8L34 268.4C25.7333 277.6 21.8667 285.6 18.1333 301.333C16.5333 307.867 13.7333 318.8 11.8667 325.467C8.13334 339.6 7.86668 343.6 10.9333 348.667C13.0667 352.4 12.9333 352.8 8.80001 363.6C0.133342 386.133 -1.19999 397.333 3.20001 407.467C4.66668 410.667 6.53334 417.467 7.46668 422.667C9.46668 434.8 13.4667 442.533 22.9333 452.8C27.2 457.333 32.5333 463.733 34.6667 467.067C37.0667 470.8 42.8 476 49.3333 480.533L60 488L74.6667 487.867C91.3334 487.867 94 486.933 110.133 476.667C115.867 472.933 121.467 470 122.533 470C125.067 470 128.667 475.067 128.667 478.667C128.667 483.067 134 488.133 144.667 494.133C150.133 497.2 157.6 501.867 161.333 504.267C167.867 508.8 168.133 508.933 180 508.4C190.267 508 193.6 507.333 203.067 503.067C220 495.6 228.4 490.267 238.8 480C252.267 466.667 259.467 456.267 266.8 439.333C270.267 431.333 274 424.667 274.933 424.667C277.067 424.667 276.667 422.533 277.867 441.333C278.667 454.533 279.733 460 283.867 472.267C290.133 490.933 294 496.4 304.8 501.867C316.267 507.6 320.8 507.333 335.6 499.867C347.067 494.133 348.4 493.733 355.867 494.4C360.4 494.8 368.4 496 373.733 497.2L383.467 499.333L392.4 495.2C397.2 492.8 404 488.4 407.333 485.2L413.333 479.6L420.533 484C429.067 489.467 440.4 493.333 453.733 495.467C461.2 496.667 463.333 497.6 463.333 499.333C463.333 500.533 464.8 505.867 466.533 511.067C468.4 516.4 470.8 525.867 472 532.267C473.067 538.8 475.2 547.867 476.667 552.667C480.267 565.2 491.333 630.933 491.467 640.933C491.467 645.6 492 652.267 492.8 656C493.467 659.6 494.933 676.8 496.133 694C497.2 711.2 498.667 731.333 499.2 738.667C499.867 746 500.4 757.867 500.533 764.933C500.667 779.6 501.733 783.6 506.667 786.8C509.733 788.8 510.267 788.8 513.2 786.933C516.933 784.4 518.133 776.267 516.533 764.667C516 760.667 515.2 747.733 514.8 736C514.4 724.267 513.6 709.2 512.8 702.667C512 696 510.8 683.733 510 675.333C509.2 666.933 507.067 652.133 505.333 642.667C503.6 633.067 498.8 605.067 494.8 580.267C488.4 541.6 480 502.933 475.6 491.333C474.533 488.667 475.067 486.933 477.867 482.667C479.867 479.733 482.4 475.067 483.6 472.4C486.533 466 494.267 457.467 501.867 452.4C510.667 446.533 524.4 432.8 527.467 427.067C531.467 419.333 534.933 396.667 533.2 390C532.4 387.067 532 384.4 532.533 384.133C533.6 383.333 562.667 392.267 570 395.6C573.733 397.2 581.2 398.667 590.133 399.467L604.4 400.8L614.8 395.733C624 391.333 625.6 389.867 628.267 384.667C629.867 381.333 631.867 374.4 632.667 369.333C633.6 362.933 635.2 358.4 637.867 354.667C640 351.733 642.667 347.467 643.867 345.067C646.4 340 646.667 327.467 644.4 321.067C642.533 316 644.267 313.733 649.333 314.267C650.8 314.4 654.133 313.867 656.667 312.933C659.2 312.133 666.133 310.4 672 309.333C684.4 306.667 690.267 304 696.933 297.467C705.467 289.2 709.067 281.6 708.933 272.533C708.8 265.867 709.6 263.2 713.867 254.933C716.667 249.733 720 242 721.333 238C724.267 229.2 725.467 228.133 736.533 225.333C747.067 222.667 754 219.2 760.667 213.2C767.467 206.933 770.4 198.267 770.667 182.667C770.8 172.667 771.333 169.6 774.267 164C779.067 154.8 782.133 143.733 781.067 139.467C780 134.667 775.733 126.133 771.733 120.8C767.333 115.067 747.867 102.267 735.867 97.3333C730.8 95.1999 726.133 93.0666 725.6 92.5333C724.933 92.1333 725.733 89.1999 727.2 86.2666C732.267 76.2666 730.133 69.4666 719.6 63.1999C716.933 61.5999 710.667 56.6666 705.733 52.3999C700.8 48.1332 694.267 43.4666 691.067 41.9999C682.4 38.2666 657.467 33.8666 645.2 33.8666C635.2 33.9999 634.267 33.7332 633.067 30.9332C626.933 17.7332 611.867 9.86658 580.667 3.86658C562.4 0.266581 561.067 0.266581 548.533 2.53325ZM582.133 10.5332C594.8 12.5332 606 16.1332 606 18.2666C606 19.8666 594.933 19.4666 580.933 17.3332C568.667 15.4666 561.2 12.3999 562.667 9.99991C563.733 8.26658 567.333 8.26658 582.133 10.5332ZM564.667 18.6666C571.733 21.5999 585.333 23.8666 600.667 24.5332C603.2 24.6666 607.467 25.3332 610 25.9999C615.467 27.5999 624.4 34.6666 622.933 36.2666C622.267 36.7999 616.267 37.7332 609.6 38.2666C595.467 39.1999 585.467 40.9332 580.667 43.0666C578.8 43.8666 572.267 45.4666 566 46.6666C559.733 47.8666 548.933 50.5333 542 52.6666C535.067 54.7999 523.067 57.4666 515.467 58.5333C506.667 59.8666 498 62.1333 492.133 64.7999C475.333 72.1333 455.067 82.3999 442.933 89.7333C436.533 93.5999 430.4 96.5333 429.6 96.2666C428.667 95.8666 434.4 89.3333 442.133 81.7333C458.667 65.4666 470.267 58.6666 490.4 53.4666C497.6 51.5999 504.4 49.4666 505.733 48.7999C506.933 48.1332 513.6 46.5332 520.4 45.3332C527.067 44.1332 532.667 42.5332 532.667 41.8666C532.667 40.2666 534.4 40.1332 512 44.1332C493.067 47.3332 475.067 52.6666 464 58.2666C456.667 61.9999 444.533 71.8666 433.333 83.1999C424.533 92.2666 420.533 94.3999 418.533 91.1999C416.267 87.4666 447.333 62.1333 472.533 47.3332C505.733 27.8666 535.333 15.5999 549.733 15.4666C554.4 15.3332 559.333 16.3999 564.667 18.6666ZM672.8 46.6666C675.733 48.5332 681.867 53.3333 686.667 57.3333C691.467 61.4666 698.533 65.8666 702.667 67.4666C715.467 72.2666 721.867 81.9999 715.867 87.8666C713.067 90.6666 709.467 90.5333 686.8 86.6666C676.133 84.7999 664.533 83.3333 661.067 83.3333C657.6 83.3333 649.6 82.1333 643.333 80.6666C629.867 77.5999 623.467 77.4666 610 79.9999C604.533 81.0666 588.667 83.9999 574.8 86.5333C561.067 89.1999 548.933 91.8666 548 92.6666C546.933 93.4666 545.467 93.9999 544.4 93.7333C543.467 93.5999 539.867 94.2666 536.267 95.1999C532.8 96.2666 527.867 96.6666 525.2 96.2666C522.533 95.8666 517.867 96.2666 514.8 97.1999C508.933 99.1999 501.067 100.667 494.667 101.333C492.533 101.467 485.867 102.133 480.133 102.667C473.067 103.333 469.867 103.2 470.4 102.267C470.933 101.6 473.467 100.533 476 100.133C484.4 98.5333 481.2 96.5333 471.733 97.4666C466.667 97.9999 463.067 97.9999 463.467 97.4666C464.933 95.8666 478.533 94.2666 480 95.3333C481.333 96.3999 506.933 92.2666 508.4 90.6666C508.8 90.2666 508.533 89.3333 507.733 88.5333C506.667 87.4666 505.467 87.5999 503.333 88.6666C501.733 89.5999 494.267 90.5333 486.8 90.7999C469.733 91.4666 458.133 94.2666 445.2 100.8C439.6 103.6 434.8 106 434.533 106C434.267 106 434 105.067 434 104C434 101.867 436 100.8 466.4 85.8666C487.2 75.7333 509.333 67.5999 530.667 62.1333C542 59.3333 635.467 43.7332 646.667 42.7999C659.467 41.8666 667.333 42.9332 672.8 46.6666ZM696.667 53.9999C700.267 56.9333 700.8 57.8666 698.933 57.9999C696 57.9999 690.533 54.5333 689.467 51.8666C688.267 48.7999 691.733 49.7333 696.667 53.9999ZM330.933 73.1999C346.533 73.8666 350.933 74.5333 355.333 76.7999C359.467 79.0666 362.533 79.4666 369.867 79.1999L379.067 78.6666L386.533 86.5333C390.667 90.7999 394 94.7999 394 95.4666C394 96.1333 395.867 97.4666 398 98.6666C402.8 101.2 403.2 103.333 398.8 103.333C393.333 103.333 393.467 106 399.067 111.733C402 114.8 405.333 119.2 406.4 121.467C409.333 127.333 406.533 131.333 399.6 131.333C395.2 131.333 394.4 131.867 392.267 136.8C390.8 139.733 390 142.933 390.4 143.867C390.8 144.933 389.733 146.933 387.867 148.533C382.667 153.067 384.4 159.067 390.4 157.467C393.067 156.8 394 157.2 394.667 159.333C396 163.467 394.4 164.667 388 164.667C382.267 164.667 382 164.4 379.067 158.4C375.2 150.533 372.267 148.533 369.2 151.6C367.067 153.733 367.067 154.267 370.533 159.333C373.6 164 374 165.733 373.2 170.667C372.267 177.733 370.933 178.933 362.533 181.067C356.8 182.533 356 183.2 355.2 187.067C354 192.933 353.467 193.333 348.667 191.333C343.867 189.333 343.6 186.933 347.6 184.133C350 182.4 350.267 181.733 348.933 180.4C346.4 177.867 340.133 181.733 339.6 186C338.933 191.733 333.733 203.333 331.867 203.333C329.067 203.333 328.267 200.667 330 197.333C332.933 191.867 330.933 189.733 323.867 190.8L317.733 191.733L318.267 187.867C318.667 184 318.8 184 326.133 184.4C335.467 184.933 337.467 182.933 331.867 178.4C324.933 172.8 318 173.2 318 179.2C318 181.467 309.6 186.533 308.133 185.067C307.733 184.667 308.4 182.533 309.467 180.4C311.6 176.267 311.067 170 308.667 170C307.867 170 306.133 172.533 304.667 175.6C302.133 180.933 295.867 187.067 294.533 185.6C294.133 185.333 294.933 181.333 296.133 176.933C299.067 166.267 298.267 164.4 291.067 164.933C286.933 165.2 285.2 166 284.933 167.6C284.667 169.067 285.333 170 286.533 170C289.2 170 289.2 171.2 286.667 174.533C285.6 176 285.067 178.267 285.467 179.733C286.133 181.867 285.867 182 283.467 180.8C281.467 179.733 280.667 178 280.667 174.8C280.667 171.467 279.733 169.733 277.333 168.133C273.2 165.333 270 159.2 270.933 155.6C271.467 153.333 270.933 152.8 267.067 152.4C262.8 152 262.667 151.867 262.667 146C262.533 142.667 261.733 137.467 260.933 134.267C259.333 128.8 258.933 128.533 255.2 129.333C251.6 130.133 251.333 130 251.333 126.133C251.333 122.933 252.267 121.6 255.333 120C260 117.6 260.4 115.333 256.667 112.933C253.2 110.8 253.333 108.933 257.067 107.467C258.667 106.8 260.933 104.667 262 102.8C262.933 100.8 265.333 98.9333 267.2 98.3999C269.067 97.9999 272 96.5333 273.6 95.0666C276.267 92.5333 276.4 92.5333 277.733 94.9333C279.067 97.0666 279.2 97.0666 280.533 93.7333C281.2 91.7333 283.333 89.3333 285.2 88.3999C287.067 87.4666 289.867 84.5333 291.6 81.9999C293.867 78.6666 296 77.1999 299.467 76.5333C302 76.1333 305.6 74.7999 307.333 73.5999C309.067 72.3999 310.8 71.5999 311.2 71.9999C311.6 72.2666 320.533 72.7999 330.933 73.1999ZM678.533 92.7999C680.8 93.4666 689.2 94.9333 697.067 96.1333C728.667 100.533 762.133 116.133 767.333 128.667C769.2 133.2 768.667 140.4 765.333 155.333C763.867 161.6 762.933 172 762.8 183.2L762.667 200.933L756.133 206.933C747.467 214.667 739.2 218.8 728.933 220.267C719.867 221.733 719.333 221.467 716.933 214.267C714.267 206.533 710.533 202.667 691.733 189.333C664.4 169.733 639.333 159.333 613.333 156.667C605.333 155.867 593.2 154.4 586.667 153.333C580 152.267 559.867 150.667 542 150C524 149.2 504.533 148 498.667 147.333C492.8 146.667 481.733 146.133 474 146C466.267 145.733 458.267 145.2 456 144.8L452 143.733L457.333 142.267C460.267 141.467 467.2 139.867 472.667 138.8C478.133 137.733 484.8 136 487.333 134.933C498.4 130.267 579.467 128.533 593.733 132.533C596.133 133.2 602.4 134 607.733 134.133C612.933 134.267 619.733 134.933 622.667 135.6C627.467 136.667 638.933 135.867 637.6 134.533C637.2 134.133 624.8 132 609.867 129.733C584.667 126 580.133 125.733 549.6 125.867C527.867 126 511.867 126.667 503.2 128C481.2 131.333 455.067 136.8 450.933 138.8C448.933 140 445.6 140.667 443.6 140.4C440.533 139.867 441.333 139.2 450 134.933C458.933 130.533 469.6 127.6 485.067 125.333C487.733 124.933 490 124.133 490 123.467C490 121.6 471.6 124.533 456.8 128.667C442 132.933 438 133.067 438 129.6C438 127.867 445.867 123.333 448.8 123.333C449.467 123.333 454.8 121.6 460.4 119.467C466 117.333 473.333 114.933 476.667 114.133C480 113.333 485.733 111.733 489.333 110.667C493.067 109.6 515.867 105.333 540 101.2C579.733 94.5333 586.8 93.5999 614 92.5333C630.533 91.8666 647.333 91.1999 651.333 90.9333C660.267 90.2666 672.933 91.1999 678.533 92.7999ZM456.667 113.733C456.667 115.467 443.067 119.6 441.733 118.267C440 116.533 443.2 114.267 448.667 113.6C451.2 113.333 454.133 112.933 455.067 112.933C455.867 112.8 456.667 113.067 456.667 113.733ZM420.667 125.867C422.133 128.8 419.867 135.867 417.867 134.533C416.4 133.733 416.267 125.467 417.6 124.267C418.8 122.933 419.067 123.067 420.667 125.867ZM246 128.133C246 128.533 245.333 130.133 244.4 131.733C243.6 133.333 242.4 137.867 241.867 141.733C240.933 148.4 237.2 156.4 235.733 154.933C235.467 154.533 235.733 152 236.533 149.333C237.467 146 237.467 143.467 236.667 141.867C234.267 137.6 235.2 134.267 239.733 130.8C243.867 127.467 246 126.533 246 128.133ZM254.933 145.733C253.467 151.2 253.6 151.467 258.533 156.533L263.6 161.733L260.933 165.6C259.467 167.6 257.067 170.4 255.6 171.867C252.8 174.267 252.8 174.267 253.6 169.6C254 166.8 253.467 162.267 252 158.133C249.733 151.2 250.133 147.733 253.6 142.267C256.267 137.867 256.8 139.067 254.933 145.733ZM482 156.667C490.4 157.467 507.6 159.6 520 161.333C532.533 163.067 546.533 164.933 551.333 165.333C563.467 166.533 572.133 168.267 591.333 173.467C600.533 175.867 613.733 178.8 620.667 180C647.2 184.533 665.733 192.8 690.267 210.933C704.8 221.733 708.667 227.333 708.667 237.467C708.667 244 701.733 273.333 699.067 278.667C697.067 282.133 686.133 291.2 679.733 294.533C668.4 300.267 648.4 302.133 635.333 298.8C617.2 294.133 596.4 290.133 585.333 289.333C562.933 287.6 547.733 283.067 522.667 270.4C510.267 264.133 497.067 257.067 493.333 254.667C489.733 252.267 480.533 247.333 473.067 243.6C455.6 234.933 440.533 224.8 432.533 216.133C429.067 212.4 422 206.267 416.8 202.667C403.467 193.2 404.4 188.133 418.267 193.6C421.467 194.8 426.133 197.2 428.667 198.8C434.667 202.533 442.933 205.467 444.267 204.133C444.8 203.6 444.4 202.667 443.333 202C442.267 201.333 441.867 200.4 442.4 199.867C442.933 199.333 448.8 200.933 455.6 203.2C500 218.8 515.867 223.867 526.267 226.133C537.867 228.667 565.067 232.133 584.667 233.6C599.333 234.667 595.067 231.867 578 229.2C542.8 223.733 514.533 217.6 500.267 212.533C492 209.467 480.267 205.467 474 203.333C451.067 195.867 417.6 181.067 418.4 178.8C418.667 178 422.133 176.933 426.133 176.4C436.667 174.933 439.6 174.133 438.667 172.667C438.267 172 435.467 171.6 432.533 171.6C429.6 171.6 426.533 171.067 425.733 170.267C423.867 168.4 449.867 166.8 462.4 167.867C467.733 168.4 477.6 169.733 484.267 170.8C491.067 172 498 172.667 499.6 172.4C502.267 172 502 171.6 497.6 169.6C488.667 165.733 472.533 163.2 452 162.533C436.267 162 431.867 161.467 431.6 160C430.667 155.733 454.133 154.267 482 156.667ZM601.333 162C630.4 166 641.333 168.933 663.733 179.067C671.333 182.533 693.733 197.733 702.667 205.6C707.733 210 711.333 215.733 711.333 219.067C711.333 222.133 710.933 221.867 705.867 216.133C699.067 208.533 675.6 192.533 661.333 186C648.533 180.133 641.2 178.133 614 172.667C602.667 170.533 590.4 167.733 586.933 166.533C583.333 165.333 574 163.333 566.267 162C553.733 160 552.4 159.6 555.333 158.267C559.2 156.533 563.067 156.8 601.333 162ZM182.933 163.467C186.667 164.933 186.667 164.933 183.6 166.133C182 166.8 175.067 168.133 168.267 169.333C161.6 170.4 153.867 171.867 151.333 172.533C148.8 173.2 144 174.533 140.8 175.333C137.467 176.267 129.733 177.067 123.467 177.333L112 177.733L115.733 174.533C117.733 172.8 120.533 171.333 121.867 171.333C123.2 171.333 127.733 170.133 132.133 168.533C136.4 167.067 143.067 165.067 146.667 164C154.8 161.733 177.733 161.467 182.933 163.467ZM219.733 171.467C222.4 172.133 224.667 173.2 224.667 173.733C224.667 176.667 220.667 178 212.4 178C200.8 178 185.6 181.067 173.067 186.133C167.733 188.267 159.733 191.2 155.2 192.667C150.8 194.267 144.933 196.933 142.267 198.667C139.467 200.4 132 204 125.6 206.533C119.2 209.067 111.067 212.933 107.6 215.067C104.133 217.2 96 221.867 89.3334 225.333C82.8 228.8 72.1333 235.2 65.6 239.6C59.2 243.867 53.3333 247.067 52.6667 246.667C51.2 245.733 62.4 212.8 66.8 205.067C68.6667 201.867 73.2 197.067 77.0667 194.267C83.2 189.733 85.7333 188.8 100 186.267C108.8 184.667 121.467 182.8 128 181.867C134.667 181.067 148.667 178.533 159.333 176.4C187.467 170.4 209.6 168.667 219.733 171.467ZM380 186.4C380 192 379.733 192.667 377.067 192.667C372.933 192.667 371.6 187.2 374.667 182.533C377.733 177.733 379.867 179.2 380 186.4ZM218.667 186C217.6 187.733 209.333 191.867 202.667 194C194.133 196.667 162 212.4 162 213.867C162 215.467 167.6 214 173.733 210.8C178.133 208.533 182 208 182 209.6C182 210.667 180.267 211.733 154 225.867C108 250.667 54.4 296.267 26.9333 333.867C19.6 343.867 18.6667 344.667 17.6 342.267C16.6667 340.133 17.8667 336.267 23.0667 325.067C26.8 317.2 32 302.8 34.6667 293.333C42.2667 266.267 42.5333 265.867 62.5333 252.4C83.0667 238.667 119.067 219.6 141.333 210.533C161.733 202.4 212.4 184.933 216.4 184.8C218.133 184.667 219.2 185.2 218.667 186ZM287.067 191.067C287.6 192.933 281.067 195.733 278.4 194.8C275.867 193.733 276.267 189.067 279.067 187.467C281.467 186.133 286 188.133 287.067 191.067ZM267.333 196C262.933 200.667 260.667 201.733 260.667 199.467C260.667 196.933 266.4 191.333 269.067 191.333C271.6 191.333 271.467 191.733 267.333 196ZM304.667 194.667C307.2 197.733 304.533 199.867 299.467 198.667C294.933 197.733 294.4 196.8 296.933 194.267C299.2 192 302.667 192.267 304.667 194.667ZM419.333 222.8C427.067 227.467 438.133 233.733 444 236.533C449.867 239.333 455.467 242.533 456.4 243.733C457.333 244.933 462.8 247.733 468.4 250C478.933 254.4 483.2 256.667 494.667 264C509.333 273.467 570 303.067 584.8 308C598.4 312.533 601.733 313.067 616.667 313.6C627.867 314 633.867 314.667 635.067 315.867C636 316.8 637.467 321.6 638.4 326.533C639.733 334.667 639.6 336 637.467 339.733C632.533 348.267 626.267 361.467 624.133 368.133C621.333 376.933 615.2 386.533 610.533 389.6C607.6 391.467 604.133 392 595.333 392C584.933 392 582.8 391.467 568.667 385.733C560.267 382.4 549.867 378.933 545.467 378C531.6 375.2 498.4 360.267 482.667 349.6C472.133 342.533 432.8 303.2 428 294.933C426 291.467 422.4 283.333 420 276.933C417.6 270.533 414.4 262.667 412.933 259.333C410.4 253.867 410.267 253.2 412.267 251.067C414.267 248.8 413.867 248.133 406.4 240.267C398.4 232 393.2 225.067 394.133 224.133C394.4 223.867 399.733 228 406 233.467C421.333 247.067 444.133 262 466.933 273.6C485.333 283.067 493.733 285.867 490 281.333C489.067 280.267 487.733 279.333 487.067 279.333C484.8 279.333 450.4 259.467 436 249.867C414.4 235.467 387.333 208.133 387.333 200.8C387.333 198.267 388.667 198.933 396.4 206C401.333 210.4 411.6 218 419.333 222.8ZM230 205.6C230 207.2 219.067 216.267 204 227.333C185.2 241.067 151.333 276 148.267 284.933C146.533 289.733 151.2 287.2 155.733 280.933C162.667 271.6 191.867 243.6 202.667 236C207.867 232.4 214.8 227.2 218.133 224.4C225.467 218.4 228.667 217.867 228.667 222.667C228.667 227.867 230.8 226.667 235.6 218.667C240.8 210 244.133 208.8 242.933 216.133C241.333 225.733 217.333 270.267 191.067 312.133C180.4 329.333 177.6 335.467 180.4 335.333C181.6 335.2 200.133 308.933 205.067 300.133C207.2 296.4 213.067 286.4 218.133 277.867C223.2 269.333 229.067 258.533 231.333 253.867C233.467 249.2 237.2 241.733 239.6 237.333C242 232.933 245.067 226.4 246.533 222.8C250.4 212.933 252.133 217.067 248.8 228.267C247.2 233.467 246 238.4 246 239.2C246 242.667 249.2 239.733 250.933 234.667C252.667 229.467 255.333 225.467 256.267 226.533C257.733 227.867 248.4 258 239.6 280C235.6 290 221.2 319.2 210.667 338.667C190.4 376 177.333 396.8 168 407.2C162.933 412.8 155.467 421.333 151.467 426.267C145.067 434.267 130 447.733 112.133 461.2C101.333 469.467 86.6667 475.867 77.3333 476.4C64.5333 477.2 55.6 473.067 43.2 460.8L32.9333 450.667L32.2667 440.4C31.3333 426.933 27.7333 420.267 18.9333 415.467C15.4667 413.6 12.2667 410.933 11.8667 409.333C10.8 404.8 18.9333 384 30.4 362C36.2667 350.667 43.7333 335.867 47.0667 329.333C60.8 301.2 76.4 285.867 122 255.467C132.667 248.267 145.2 240.133 150 237.333C154.8 234.533 162.133 229.867 166.267 227.067C174 221.867 197.733 210 200.4 210C203.6 210 200 214 184.667 227.2C170 240 166.267 244 168 245.733C168.667 246.533 168.267 246.8 190.667 228.133C209.467 212.267 230 200.667 230 205.6ZM278 214.8C278 218.267 279.2 218.933 281.733 216.4C285.333 212.8 284.8 217.333 280.4 226.933C273.733 241.6 271.733 248.133 269.733 261.2C268.667 269.467 268.533 273.067 269.6 274.133C270.667 275.2 271.467 273.6 272.667 268.4C277.733 246.267 285.867 224.667 290.667 220.667C292.667 219.067 293.2 219.067 294.8 221.333C297.6 225.067 297.2 227.467 291.467 239.333C285.067 252.533 282.533 263.2 274.533 310C269.067 341.867 268.267 348.933 268.533 364C268.667 373.467 269.733 386.8 270.933 393.6C273.067 405.6 273.067 405.867 270.133 414.933C265.867 428 256.4 442.4 243.867 454.8C234 464.667 231.2 466.533 213.867 475.067C191.867 485.867 181.867 489.467 168.4 491.333L158.8 492.667L152.8 486.933C149.467 483.733 144.533 479.467 142 477.333C131.6 469.067 130 461.733 137.067 454.933C144.267 448.133 156.8 433.067 166.667 419.333C171.733 412.4 181.6 399.867 188.667 391.6C195.6 383.333 204.667 371.867 208.667 366.133C212.667 360.4 219.2 351.6 222.933 346.533C226.8 341.467 230.933 334.267 232.133 330.667C233.333 326.933 234.8 323.733 235.333 323.333C235.867 322.933 237.6 320.533 239.2 318C242.4 312.667 242.933 308.4 240.267 309.467C238.267 310.133 232.667 319.333 232.667 321.733C232.667 325.467 213.333 351.067 211.733 349.467C211.333 349.067 218.267 334.267 227.067 316.4C244 282.4 250.8 266.133 255.467 248.933C260.8 229.333 262.8 229.2 260.667 248.8C258.8 265.2 254.267 280.533 247.2 293.733C241.867 303.867 240.8 307.867 243.733 307.067C246.533 306.267 259.2 279.2 262 268C263.467 262.133 265.467 249.333 266.4 239.6C267.733 227.467 268.933 221.2 270.4 219.6C271.467 218.4 273.067 215.6 273.867 213.6C275.6 209.2 278 210 278 214.8ZM54.5333 221.067C53.6 225.733 51.2 230 49.7333 230C48.1333 230 48.5333 226.533 50.8 220.667C53.2 214.533 56 214.8 54.5333 221.067ZM396.133 243.467C406.267 258.667 412 270.667 415.333 283.067C416.667 288 419.333 297.333 421.2 304C433.6 347.6 433.067 344.533 433.2 371.333L433.333 396L424.4 418C419.467 430.133 414.8 442.667 414 446C410 462.4 406.667 469.333 399.733 476.133C390.933 484.933 384.4 486.8 363.333 486.267C354.933 486.133 342.267 486.667 335.2 487.467C314.667 490 308.533 486.133 300.667 465.867C297.333 457.333 289.067 437.733 284.667 428C282.667 423.333 282 398.267 283.333 374C284 361.2 285.2 339.2 285.867 325.333C287.867 287.333 289.867 275.467 298.667 252.933C308.133 228.4 308.267 228 310.933 230.133C312.4 231.467 312.8 233.333 312.133 238.4C311.467 243.333 311.733 245.733 313.333 248.267C314.933 250.667 315.333 253.333 314.933 257.2C314.533 260.133 314.667 263.867 315.2 265.333C316.533 268.4 315.867 270.667 320.667 245.333C324.533 225.2 326 220 327.333 221.467C328.133 222.4 326.8 248.933 325.733 253.733C325.333 255.333 327.333 280.667 328.8 294C329.6 300.933 331.6 310.267 333.333 314.667C334.933 319.067 337.067 326.8 338 331.733C338.933 336.8 340.133 340.4 340.8 339.733C341.333 339.2 339.867 326.667 337.2 312C331.467 279.333 330.267 256.8 333.067 236.133C335.467 218.667 336.8 216.8 344.667 219.2C348.533 220.267 351.067 222.267 353.467 226C355.467 228.933 357.6 231.333 358.133 231.333C359.733 231.333 359.6 230.667 357.333 225.067C355.2 220.133 355.467 218.4 357.867 220C361.2 222 373.467 242 378.133 252.933C385.867 271.2 393.6 298 397.467 319.733C400.667 338.267 401.733 350.533 402.533 378C402.8 384.267 403.6 390.8 404.4 392.667C405.6 395.6 405.867 395.6 406 393.333C406 391.867 406.667 386.133 407.333 380.667C409.867 358.667 404 311.333 394.667 280C392.933 274.133 390.8 264.8 390 259.333C387.6 243.467 386 238.667 379.867 227.867C367.467 206.133 378.533 216.8 396.133 243.467ZM48.6667 239.067C47.2 242.4 47.0667 242.4 45.7333 240.133C44.8 238.4 44.8 236.667 46 234.267C47.4667 230.933 47.6 230.933 48.9333 233.2C49.8667 234.933 49.8667 236.667 48.6667 239.067ZM28.6667 296.267C24.9333 307.467 22.6667 310.267 23.7333 302.4C24.6667 294.4 28.8 284.267 30.4 285.867C31.2 286.667 30.5333 290.4 28.6667 296.267ZM617.067 301.333C625.6 303.333 632.667 305.6 632.667 306.133C632.667 306.8 625.867 307.067 617.733 306.8C603.867 306.4 601.733 306 590.667 301.467L578.667 296.533L590 297.067C596.267 297.333 608.4 299.2 617.067 301.333ZM40.6667 329.067C40.6667 331.067 22.6667 368 17.0667 377.333C14.8 381.067 12 387.2 10.8 391.067C5.86668 405.867 4.13334 394.8 8.80001 378C13.6 360.4 40.6667 318.8 40.6667 329.067ZM279.2 342.133C279.467 357.2 276 389.733 274.267 388.133C273.067 386.8 273.867 348.133 275.333 338.933C276 334.4 276.667 330 276.8 329.333C276.8 328.533 277.333 329.2 278 330.667C278.667 332.133 279.2 337.333 279.2 342.133ZM469.333 358.667C473.733 361.467 486.267 367.333 497.2 371.733C521.067 381.067 524.133 382.667 526.133 387.6C528.267 392.933 526.8 410.4 523.333 419.6C519.467 430 513.733 435.733 499.733 443.2C484.8 451.333 469.067 462.533 468 466C465.333 474.533 454 481.867 442 482.933C434.933 483.6 434.133 483.333 429.6 479.467C426.933 477.067 423.467 473.067 421.867 470.533C419.067 466 419.067 465.333 420.667 455.6C421.6 450 424 441.733 426 437.333C433.467 420.933 444.667 381.467 444.667 371.333C444.667 368 443.467 359.2 442 351.6C437.867 330.533 437.733 330.8 450.4 342.8C456.4 348.667 464.933 355.733 469.333 358.667ZM464 342.533C474.4 352.133 476.8 356.667 469.067 351.867C463.6 348.533 451.333 336.4 451.333 334.4C451.333 331.333 453.067 332.533 464 342.533ZM23.7333 427.067C27.2 430.8 28.6667 446 25.6 446C22.4 446 15.0667 433.333 14.2667 426.533L13.6 420.4L17.4667 422.4C19.6 423.467 22.4 425.6 23.7333 427.067ZM288.533 451.733C289.333 452.667 292.4 459.467 295.333 466.667C298.4 473.867 302.267 481.733 304.133 484C308.4 489.6 316.667 495.333 320.533 495.333C322.133 495.333 323.067 495.867 322.667 496.667C320.933 499.467 309.467 498.133 304.267 494.533C298.933 490.933 291.333 481.467 291.333 478.533C291.333 477.6 289.867 472.133 288 466.533C283.467 452.8 283.733 446.133 288.533 451.733ZM480 469.333C475.2 476.4 466.667 484.4 465.333 483.067C464 481.733 475.467 465.867 479.6 463.333C482 462 484.133 461.067 484.4 461.333C484.667 461.6 482.667 465.2 480 469.333ZM241.867 468.8C237.2 475.333 222.133 487.067 212 492C201.333 497.333 189.867 500.4 179.333 500.933C168.133 501.467 169.6 498.267 182 495.2C193.867 492.267 233.2 473.2 237.867 468.133C242.667 463.067 245.6 463.6 241.867 468.8ZM505.333 696.533C506.533 703.333 507.333 712.267 507.2 716.533C507.067 720.667 507.6 728.533 508.4 734C510.533 749.333 511.733 777.6 510.133 778.533C507.867 780 505.733 774 506.267 768.133C506.933 761.733 505.333 734.133 503.467 718.667C501.467 702.933 500.533 679.6 502 682C502.667 683.2 504.133 689.733 505.333 696.533Z" fill="#FFF5F5"/>
<path d="M388.267 112.267C384.933 115.467 390 122 395.733 122C400.533 122 400.4 119.067 395.2 114.8C390.933 111.2 389.733 110.667 388.267 112.267Z" fill="white"/>
<path d="M382 126.267C382.133 129.333 385.6 132.667 388.533 132.667C391.733 132.667 392.133 130.4 389.467 126.933C387.467 124.267 382 123.867 382 126.267Z" fill="white"/>
<path d="M323.2 144.533C320.933 146.4 320.4 147.6 321.333 148.533C322.933 150.133 331.333 145.733 331.333 143.333C331.333 141.067 326.533 141.867 323.2 144.533Z" fill="white"/>
<path d="M350.533 164.8C349.333 166.8 352.667 172.667 354.933 172.667C357.6 172.667 358.4 169.333 356.667 166.133C355.067 163.067 352 162.4 350.533 164.8Z" fill="white"/>
<path d="M152 217.467C143.733 221.733 144.667 223.733 153.2 220.133C158 218.133 160.667 215.333 157.733 215.333C156.8 215.333 154.267 216.267 152 217.467Z" fill="white"/>
<path d="M237.6 256.667C236.4 258.533 235.333 261.2 235.333 262.667C235.333 264.8 235.867 264.533 238.133 261.067C241.467 255.867 240.933 252 237.6 256.667Z" fill="white"/>
<path d="M140.933 291.733C138 294.8 137.067 298 139.067 298C140.8 297.867 144.133 294.8 145.867 291.6C148 287.467 144.8 287.6 140.933 291.733Z" fill="white"/>
<path d="M130.933 303.6C125.467 311.067 123.067 315.2 123.6 316.667C124 318.133 134.667 305.2 136.133 301.467C137.6 297.733 134.267 299.2 130.933 303.6Z" fill="white"/>
<path d="M168.667 345.6C163.2 351.867 154.933 364.667 155.733 365.6C156.133 366 157.067 365.867 157.867 365.333C160.133 364 175.333 343.733 175.333 342.133C175.333 339.467 172.933 340.667 168.667 345.6Z" fill="white"/>
<path d="M143.6 375.867C134.933 384.8 132.667 389.467 139.067 384.933C143.467 381.6 148.933 375.867 152 370.933C156 364.667 152.133 366.933 143.6 375.867Z" fill="white"/>
<path d="M359.867 234.933C360.267 236.267 361.2 240 362 243.2C362.8 246.267 363.867 248.667 364.267 248.267C365.333 247.067 361.867 232.667 360.533 232.667C359.733 232.667 359.467 233.733 359.867 234.933Z" fill="white"/>
</svg>
