<?xml version="1.0" standalone="no"?>
<!DOCTYPE svg PUBLIC "-//W3C//DTD SVG 20010904//EN"
 "http://www.w3.org/TR/2001/REC-SVG-20010904/DTD/svg10.dtd">
<svg version="1.0" xmlns="http://www.w3.org/2000/svg"
 width="1080.000000pt" height="1080.000000pt" viewBox="0 0 1080.000000 1080.000000"
 preserveAspectRatio="xMidYMid meet">

<g transform="translate(0.000000,1080.000000) scale(0.100000,-0.100000)"
fill="#000000" stroke="none">
<path d="M4550 9685 c-130 -25 -244 -62 -412 -135 -280 -122 -400 -168 -480
-184 -110 -23 -247 -21 -344 5 -43 11 -131 34 -194 50 -63 17 -155 33 -205 36
-80 5 -102 2 -200 -25 -60 -17 -132 -34 -160 -38 -117 -15 -343 -109 -441
-183 -27 -20 -62 -55 -79 -77 -16 -23 -44 -51 -61 -63 -17 -12 -76 -62 -130
-112 -55 -50 -166 -145 -249 -212 -218 -178 -236 -197 -276 -297 -19 -47 -48
-114 -66 -149 -25 -49 -33 -77 -34 -120 0 -31 -6 -85 -12 -120 -13 -66 -13
-70 24 -296 25 -156 118 -380 204 -493 52 -69 186 -196 280 -267 74 -55 176
-105 274 -134 118 -35 162 -84 295 -328 60 -109 136 -241 169 -293 78 -123
115 -203 227 -500 142 -375 175 -439 334 -658 51 -70 147 -219 215 -330 67
-112 146 -236 177 -275 84 -108 269 -311 354 -387 84 -75 281 -201 380 -243
35 -15 107 -52 160 -82 144 -82 213 -97 491 -102 186 -4 235 -2 279 11 75 22
83 13 75 -78 -17 -180 -88 -527 -185 -901 -105 -405 -306 -1037 -359 -1126
-11 -19 -38 -78 -59 -130 -22 -52 -60 -140 -86 -197 -26 -56 -46 -110 -44
-119 5 -27 54 -50 75 -37 27 17 80 111 104 184 12 36 52 135 89 220 98 223
249 604 270 680 10 36 37 147 60 248 22 100 77 309 121 465 53 187 83 314 89
377 6 52 15 125 20 163 6 37 10 100 10 141 0 97 11 107 77 67 137 -84 276
-131 449 -150 55 -7 157 -21 227 -33 97 -15 154 -19 235 -15 126 6 547 80 608
106 88 39 200 127 342 269 332 331 391 433 729 1267 112 276 185 441 228 514
20 34 86 118 146 188 164 189 378 483 413 567 11 27 72 93 190 207 188 183
249 255 391 464 108 157 272 480 304 595 46 166 10 292 -106 369 -67 45 -106
53 -220 44 -184 -15 -366 10 -406 55 -8 9 -20 37 -27 62 -6 25 -33 85 -58 135
-39 73 -66 109 -152 195 -106 106 -300 259 -463 364 -70 45 -97 69 -135 123
-55 80 -236 269 -304 319 -62 46 -272 140 -341 153 -62 11 -144 2 -255 -29
-100 -28 -173 -67 -261 -139 -95 -77 -183 -123 -294 -151 -82 -22 -93 -22
-170 -10 -67 10 -116 10 -257 0 -96 -7 -191 -18 -210 -25 -60 -22 -261 -113
-276 -126 -20 -16 -36 0 -85 80 -21 36 -54 85 -72 108 -17 23 -63 81 -100 130
-171 222 -320 347 -465 394 -86 28 -273 35 -382 14z m205 -86 c33 -15 94 -54
135 -85 95 -73 231 -155 340 -207 47 -23 104 -59 128 -80 79 -74 212 -268 212
-312 0 -9 -41 -60 -91 -113 -50 -52 -97 -109 -104 -126 -8 -17 -38 -61 -67
-98 -88 -110 -132 -204 -172 -369 -51 -210 -66 -334 -72 -594 -4 -216 -14
-305 -33 -305 -5 0 -11 17 -15 39 -3 21 -13 53 -21 72 -14 32 -14 24 -8 -108
5 -122 4 -143 -9 -143 -23 0 -42 52 -89 242 -24 98 -47 178 -51 178 -16 0 -7
-69 25 -190 18 -69 31 -136 29 -150 -4 -22 -8 -18 -30 30 -18 40 -26 50 -29
36 -6 -23 12 -92 43 -168 24 -57 31 -131 16 -156 -8 -12 -28 26 -111 211 -16
37 -34 67 -39 67 -23 0 -62 -43 -62 -68 0 -37 -14 -56 -35 -48 -12 4 -18 0
-22 -14 -3 -11 -9 -20 -14 -20 -5 0 -45 46 -90 103 -106 135 -119 150 -126
143 -8 -7 39 -86 110 -184 33 -46 60 -91 61 -100 2 -25 -33 -26 -59 -2 -43 41
-47 16 -6 -36 44 -55 67 -104 50 -104 -5 0 -23 7 -40 15 -24 13 -45 14 -111 7
l-82 -9 -29 31 c-54 59 -145 202 -230 361 -47 88 -104 192 -126 230 -22 39
-54 97 -72 130 -36 68 -75 122 -130 180 -21 22 -66 70 -99 106 -52 57 -79 76
-183 129 -276 141 -345 148 -651 64 -148 -41 -132 -40 -375 -24 -226 15 -333
5 -427 -39 -142 -67 -244 -215 -244 -357 0 -129 128 -490 248 -703 40 -68 61
-121 49 -121 -7 0 -179 107 -298 185 -174 114 -296 250 -384 425 -146 294
-142 610 11 780 22 24 91 85 154 135 63 51 186 165 273 254 105 107 198 192
275 249 65 48 179 135 255 195 218 169 264 187 428 163 58 -9 193 -18 300 -21
107 -3 266 -10 354 -16 259 -18 326 -1 705 173 243 112 303 136 410 158 102
22 145 18 225 -21z m279 -26 c55 -32 108 -74 164 -131 45 -47 80 -87 78 -89
-11 -12 -94 24 -192 83 -124 74 -211 152 -200 179 10 26 55 13 150 -42z m2462
-242 c43 -10 66 -26 147 -99 52 -48 136 -133 187 -189 51 -56 121 -123 156
-148 35 -26 79 -68 98 -94 64 -86 142 -149 261 -209 101 -51 239 -147 273
-190 36 -45 99 -174 108 -222 9 -42 -5 -39 -98 21 -43 27 -107 61 -141 74 -60
22 -66 23 -131 9 -37 -8 -89 -23 -116 -35 -57 -24 -143 -111 -167 -166 -41
-98 38 -295 191 -478 96 -115 107 -186 37 -228 -57 -33 -116 -20 -371 83 -220
88 -360 157 -360 176 0 8 16 49 35 91 40 87 46 122 14 83 -12 -14 -34 -50 -49
-80 -43 -85 -56 -93 -127 -81 -58 11 -254 59 -259 64 -1 1 24 74 57 161 56
153 72 222 48 214 -6 -2 -26 -46 -44 -98 -63 -186 -108 -259 -160 -263 -33 -2
-35 7 -20 91 5 29 4 42 -4 42 -6 0 -14 -8 -17 -17 -16 -52 -50 -116 -66 -124
-20 -11 -24 -4 -30 39 -3 22 -6 20 -35 -22 -25 -35 -39 -46 -59 -46 -24 0 -26
3 -20 28 3 15 9 43 12 62 5 34 5 33 -29 -20 -61 -96 -65 -100 -102 -100 -19 0
-35 2 -35 5 0 3 25 85 55 181 31 96 66 218 80 270 24 91 44 235 32 224 -3 -3
-22 -67 -41 -142 -19 -75 -48 -163 -64 -195 -16 -32 -57 -124 -91 -204 -37
-88 -72 -156 -89 -172 -15 -14 -65 -44 -112 -66 -47 -22 -134 -68 -195 -101
-80 -44 -117 -59 -135 -55 -20 4 -33 -2 -60 -30 -41 -43 -54 -44 -47 -5 11 55
-12 41 -47 -27 -54 -108 -110 -143 -72 -45 66 167 137 393 142 447 6 76 0 64
-65 -140 -51 -159 -149 -379 -198 -443 -22 -30 -26 -31 -37 -17 -16 22 -60 16
-64 -9 -3 -14 0 -17 13 -12 15 5 17 2 11 -26 -9 -45 -30 -74 -76 -104 -47 -31
-56 -28 -35 12 20 40 19 52 -7 56 -15 2 -24 13 -31 38 -11 45 -24 60 -52 60
-28 0 -72 -34 -81 -63 -4 -12 -15 -33 -25 -46 -10 -13 -22 -45 -25 -72 -4 -27
-12 -56 -19 -65 -11 -16 -14 -16 -36 0 -13 9 -41 21 -63 27 -35 10 -41 8 -67
-17 -16 -15 -32 -24 -36 -20 -5 4 -8 33 -8 64 1 76 24 412 29 420 2 4 7 45 11
92 8 105 16 139 65 265 21 55 43 126 50 158 18 91 120 363 208 559 63 138 100
206 171 307 138 196 178 226 353 266 69 16 84 17 155 4 46 -8 144 -14 238 -14
189 0 185 -1 401 147 246 170 275 180 489 174 77 -2 163 -9 191 -15z m-5187
-127 c-18 -21 -139 -107 -144 -102 -8 7 70 88 100 103 42 21 62 20 44 -1z
m5529 -90 c30 -18 67 -62 59 -71 -3 -3 -27 15 -54 41 -49 47 -51 58 -5 30z
m-5783 -34 c16 -25 -204 -219 -237 -208 -14 5 18 38 116 122 32 27 63 59 68
72 11 24 42 32 53 14z m3645 -186 c0 -3 -13 -23 -29 -43 -97 -123 -225 -371
-326 -629 -17 -45 -35 -85 -38 -89 -16 -15 -5 62 28 191 36 143 95 284 156
372 67 98 209 232 209 198z m-3910 -114 c0 -22 -162 -186 -238 -242 -126 -91
-123 -72 15 92 89 105 128 137 186 150 18 5 33 8 35 9 1 1 2 -3 2 -9z m3519
-370 c-16 -80 -56 -251 -88 -380 -33 -129 -67 -274 -76 -322 -10 -49 -21 -88
-26 -88 -12 0 -11 238 1 340 15 115 64 335 89 393 21 49 121 210 127 204 2 -1
-10 -68 -27 -147z m3146 -172 c83 -22 53 -41 -77 -48 -87 -5 -101 -8 -140 -36
-24 -16 -60 -54 -81 -84 -43 -63 -57 -72 -57 -38 0 30 29 76 76 122 45 44 81
64 144 82 59 16 81 16 135 2z m-5171 -99 c36 -13 79 -42 122 -81 134 -121 222
-234 344 -443 98 -167 302 -453 428 -602 24 -29 43 -53 40 -53 -13 0 -287 -41
-303 -45 -45 -13 -153 71 -370 289 -133 134 -226 245 -309 372 -55 86 -76 106
-76 76 0 -29 44 -105 121 -207 70 -94 350 -385 454 -473 47 -39 57 -53 48 -63
-9 -9 -24 -5 -68 20 -32 18 -60 30 -63 27 -3 -3 0 -18 7 -32 6 -15 10 -29 7
-31 -10 -10 -114 46 -185 100 -79 60 -91 66 -91 43 0 -8 38 -45 85 -81 47 -37
85 -70 85 -74 0 -24 -285 -29 -329 -6 -16 8 -59 22 -96 31 -44 11 -84 30 -118
56 -46 34 -52 36 -55 19 -2 -10 -12 -21 -23 -24 -18 -5 -19 -9 -9 -27 22 -41
1 -45 -132 -26 -296 41 -421 99 -598 276 -208 208 -350 458 -350 617 0 119 95
236 239 293 50 19 54 19 199 3 81 -9 172 -17 202 -17 69 0 413 39 545 63 135
25 184 25 249 0z m5371 -44 c188 -88 282 -113 444 -120 210 -8 287 -33 324
-105 15 -29 18 -52 14 -130 -4 -87 -8 -104 -52 -204 -62 -139 -142 -272 -375
-621 -103 -154 -211 -323 -240 -375 -72 -128 -99 -161 -204 -245 -101 -81
-145 -125 -198 -200 -20 -27 -48 -61 -63 -75 -113 -106 -267 -396 -382 -720
-31 -85 -69 -184 -85 -220 -16 -36 -50 -112 -75 -170 -46 -108 -236 -469 -326
-620 -125 -209 -280 -431 -330 -474 -60 -51 -251 -169 -300 -185 -27 -9 -115
-25 -377 -67 -30 -4 -23 2 44 40 119 69 156 109 61 67 -50 -22 -85 -27 -85
-12 0 5 33 33 73 63 203 154 404 332 476 421 40 51 96 119 125 152 123 142
264 353 292 439 10 28 39 101 67 161 64 142 91 223 117 343 11 53 28 127 37
163 20 80 10 129 -14 64 -7 -22 -36 -126 -63 -232 -39 -155 -60 -217 -113
-330 -35 -76 -72 -159 -82 -185 -28 -76 -160 -265 -320 -458 -115 -140 -174
-202 -260 -272 -125 -104 -270 -202 -285 -193 -5 3 55 70 133 148 193 193 299
327 258 327 -5 0 -43 -39 -84 -87 -197 -232 -431 -424 -677 -555 -107 -58
-144 -64 -261 -43 -52 9 -109 18 -127 21 -33 5 -39 21 -11 35 8 4 84 41 169
82 85 42 198 103 250 137 132 86 300 218 318 250 9 15 27 34 42 42 28 16 96
122 174 271 45 85 57 127 36 127 -5 0 -10 -4 -10 -9 0 -11 -153 -276 -201
-348 -18 -29 -39 -52 -44 -52 -6 -1 -53 -37 -105 -82 -52 -45 -146 -115 -208
-156 -177 -118 -439 -245 -393 -190 16 20 -8 66 -37 74 -45 11 -120 -6 -232
-52 -82 -34 -120 -45 -139 -40 l-26 7 21 16 c12 10 37 25 55 36 48 27 19 32
-53 10 -59 -17 -61 -17 -74 1 -20 27 -18 30 29 51 112 50 334 259 473 444 95
126 164 231 164 247 0 26 -16 12 -55 -50 -62 -97 -230 -303 -325 -398 -47 -47
-116 -106 -155 -132 -108 -73 -123 -63 -66 45 22 40 47 100 55 133 20 74 20
81 1 65 -8 -7 -15 -18 -15 -24 0 -18 -76 -173 -89 -180 -17 -11 -13 13 10 70
13 32 19 59 15 71 -6 14 -14 5 -36 -44 -35 -78 -90 -158 -100 -146 -24 27 -91
318 -165 718 -7 39 -24 113 -39 165 -14 52 -37 149 -50 214 -23 112 -24 124
-11 190 7 39 40 145 73 236 78 215 94 274 131 460 16 85 45 200 62 255 36 110
149 339 210 425 21 30 54 84 73 120 51 98 115 177 237 294 170 163 356 300
577 426 149 85 376 149 597 170 161 14 490 14 550 -1 55 -14 323 -118 510
-199 66 -29 147 -63 180 -78 71 -30 174 -34 244 -8 58 21 61 21 61 -13 0 -136
-223 -545 -519 -953 -85 -116 -198 -286 -251 -377 -54 -91 -137 -231 -185
-310 -173 -288 -250 -479 -310 -773 -26 -127 -25 -154 6 -138 27 15 36 35 80
193 94 336 171 531 290 735 34 59 150 240 258 402 108 162 217 329 243 370 26
41 82 115 124 165 136 158 216 298 278 488 25 76 34 120 57 267 21 135 22 147
4 184 -10 20 -37 50 -61 66 -56 39 -265 234 -281 263 -7 12 -12 34 -13 48 0
51 78 169 135 202 24 15 193 24 255 15 25 -3 82 -23 125 -43z m-5020 -155 c16
-16 35 -30 42 -30 7 0 13 -6 13 -14 0 -8 16 -34 36 -58 72 -85 140 -195 221
-357 82 -163 93 -191 73 -191 -13 0 -182 259 -310 475 -13 22 -42 64 -64 94
-23 29 -49 66 -59 82 -18 28 -18 29 0 29 11 0 32 -13 48 -30z m5905 -86 c25
-49 27 -153 5 -237 -17 -65 -173 -381 -246 -499 -74 -120 -204 -290 -312 -410
-53 -59 -101 -109 -106 -113 -39 -23 8 59 211 372 254 391 357 579 384 703 15
64 15 87 6 156 -7 44 -12 86 -12 92 0 24 49 -21 70 -64z m-1147 -272 c9 -10
22 -50 29 -89 10 -58 9 -74 -2 -87 -18 -23 -25 -12 -27 45 -1 28 -11 68 -22
90 -12 22 -21 44 -21 49 0 16 26 11 43 -8z m-6484 -89 c32 -62 81 -134 133
-197 46 -54 94 -112 108 -129 l25 -30 -35 18 c-81 41 -120 77 -161 145 -22 38
-56 86 -76 106 -19 21 -39 48 -44 61 -9 25 -13 123 -4 123 2 0 27 -44 54 -97z
m2854 -338 c33 -56 47 -125 25 -125 -40 0 -99 136 -71 163 12 13 18 7 46 -38z
m-2499 -124 c332 -163 801 -308 986 -305 139 2 356 42 645 118 218 57 248 60
435 42 200 -20 375 -68 507 -141 83 -46 325 -227 347 -259 23 -37 21 -62 -25
-214 -57 -192 -71 -229 -150 -378 -114 -216 -125 -256 -144 -505 -12 -147 -23
-234 -37 -279 -33 -107 -35 -233 -4 -380 46 -220 153 -547 242 -737 24 -52 44
-97 44 -100 0 -2 -8 -3 -19 -1 -20 3 -91 90 -173 210 -28 42 -56 75 -60 72
-15 -9 -8 -51 12 -77 11 -14 20 -34 20 -44 0 -11 11 -30 25 -43 24 -22 34 -50
18 -50 -4 0 -36 28 -71 63 -58 57 -64 60 -76 45 -7 -10 -19 -18 -25 -18 -21 0
-110 91 -268 273 -84 97 -158 177 -163 177 -24 0 -4 -36 81 -150 85 -113 202
-249 254 -295 12 -11 26 -30 29 -41 6 -21 72 -87 171 -172 40 -34 45 -42 25
-37 -94 24 -301 168 -457 318 -57 55 -106 97 -109 94 -13 -12 68 -106 180
-210 64 -59 125 -112 136 -119 25 -16 26 -28 2 -28 -10 0 -45 20 -78 45 -63
47 -74 52 -74 33 1 -7 39 -42 85 -78 46 -36 83 -69 81 -75 -2 -6 -37 -9 -82
-9 -97 2 -221 37 -354 100 -178 85 -238 130 -384 292 -58 65 -144 160 -192
212 -82 90 -297 338 -392 453 -55 66 -97 150 -228 450 -146 336 -217 477 -334
662 -55 88 -128 216 -161 285 -34 69 -94 179 -134 245 -123 204 -321 572 -339
633 -4 12 -4 22 -1 22 4 0 98 -44 209 -99z m3266 35 c0 -42 -3 -46 -62 -90
-75 -56 -87 -50 -68 31 15 66 23 79 64 104 43 26 66 11 66 -45z m-850 -1 c36
-36 42 -47 31 -57 -10 -11 -20 -4 -51 32 -37 43 -50 70 -32 70 4 0 28 -20 52
-45z m328 -13 c7 -10 12 -49 12 -108 0 -51 3 -100 6 -109 5 -13 2 -16 -12 -13
-11 2 -32 29 -51 66 -27 53 -33 75 -33 129 l0 65 33 -7 c17 -4 38 -14 45 -23z
m-370 -48 c29 -20 28 -44 -1 -44 -33 0 -62 23 -54 44 8 20 26 20 55 0z m141
-43 c8 -5 11 -16 7 -26 -6 -17 -7 -17 -26 0 -28 25 -13 46 19 26z m444 -176
c0 -41 -6 -84 -15 -105 l-15 -35 -17 34 c-22 43 -18 128 9 185 18 38 19 38 28
15 5 -13 10 -55 10 -94z m-2151 55 c29 -11 63 -20 75 -20 12 0 33 -5 46 -11
18 -8 37 -6 85 10 63 22 162 26 252 13 l45 -7 -100 -22 c-126 -28 -233 -37
-310 -25 -93 14 -309 64 -319 73 -6 5 29 9 82 9 68 0 106 -5 144 -20z m1853
-20 c16 -17 16 -20 2 -26 -20 -7 -57 13 -57 31 0 22 34 18 55 -5z m376 -11 c9
-18 7 -25 -10 -43 -19 -18 -23 -19 -31 -6 -11 17 -13 54 -3 63 13 13 32 7 44
-14z m44 -116 c-12 -50 -45 -73 -45 -31 0 22 26 58 43 58 5 0 6 -12 2 -27z
m3190 -510 c-76 -119 -319 -426 -355 -448 -24 -15 -15 18 22 81 70 117 309
394 341 394 5 0 1 -12 -8 -27z m-3470 -364 c-18 -93 -90 -301 -128 -374 l-26
-50 -1 56 c0 63 37 222 70 296 36 81 93 178 98 165 2 -7 -4 -49 -13 -93z
m-2252 -171 c133 -272 187 -393 187 -421 0 -15 -3 -27 -7 -27 -21 0 -145 230
-197 365 -15 39 -40 100 -57 138 -32 75 -36 97 -15 97 9 0 45 -61 89 -152z
m2072 -660 c21 -72 84 -346 140 -613 25 -121 48 -226 50 -233 3 -8 -1 -12 -11
-10 -10 2 -25 30 -39 73 -12 39 -34 97 -49 130 -45 99 -136 495 -136 590 0 39
17 115 25 115 2 0 11 -24 20 -52z m-1358 -535 c80 -89 102 -123 79 -123 -20 0
-166 171 -166 194 0 18 25 -2 87 -71z m190 -208 c64 -67 88 -105 66 -105 -13
0 -163 154 -163 167 0 28 28 10 97 -62z m3789 37 c-21 -40 -41 -53 -31 -21 8
26 36 62 42 55 3 -2 -3 -18 -11 -34z m-2287 -669 c-2 -46 -2 -47 -8 -13 -4 19
-5 41 -3 48 8 24 12 11 11 -35z m-319 -1453 l-30 -85 3 60 c3 41 11 73 28 100
35 58 34 24 -1 -75z m-260 -634 c0 -8 -12 -48 -27 -88 -24 -62 -29 -69 -31
-44 -4 31 35 146 49 146 5 0 9 -6 9 -14z m-86 -234 c-26 -38 -31 -5 -7 40 16
31 18 32 21 10 2 -13 -5 -35 -14 -50z"/>
<path d="M4765 8331 c-8 -14 -3 -101 7 -101 4 0 8 25 8 55 0 54 -3 64 -15 46z"/>
<path d="M4044 8137 c3 -10 6 -24 6 -31 0 -7 7 -21 15 -32 14 -18 14 -18 15 7
0 15 -9 37 -21 50 -16 19 -19 20 -15 6z"/>
<path d="M4787 8018 c-9 -82 1 -201 17 -195 6 3 9 11 7 18 -2 8 -6 66 -10 129
l-6 115 -8 -67z"/>
<path d="M4092 7993 c12 -43 36 -93 44 -93 10 0 -6 71 -22 102 -21 40 -34 35
-22 -9z"/>
<path d="M4186 7772 c-4 -7 13 -58 38 -113 61 -135 95 -194 108 -181 6 6 -17
62 -65 157 -43 87 -77 143 -81 137z"/>
<path d="M7377 8470 c-4 -8 -25 -86 -47 -172 -27 -108 -37 -164 -31 -179 4
-12 10 -18 13 -13 13 22 79 328 75 352 -2 19 -5 23 -10 12z"/>
<path d="M7110 8074 c0 -9 -9 -47 -21 -84 -11 -38 -19 -81 -17 -97 3 -25 6
-22 26 30 26 69 40 167 23 167 -6 0 -11 -7 -11 -16z"/>
<path d="M3230 7180 c18 -34 119 -130 136 -130 21 0 12 13 -65 93 -56 58 -92
77 -71 37z"/>
<path d="M2855 6985 c41 -33 66 -33 35 0 -13 14 -33 25 -44 25 -19 0 -18 -3 9
-25z"/>
<path d="M6645 6244 c-20 -143 -39 -222 -108 -454 -42 -140 -85 -287 -96 -325
-11 -39 -40 -111 -64 -160 -24 -50 -54 -121 -67 -160 -13 -38 -36 -99 -52
-134 -19 -39 -26 -67 -21 -72 16 -16 60 59 102 176 21 61 58 150 80 199 23 49
53 134 67 190 13 55 43 155 64 221 70 212 135 534 113 556 -9 9 -13 -1 -18
-37z"/>
<path d="M7686 5662 c-12 -35 -15 -57 -9 -63 14 -14 35 41 31 82 -3 34 -3 33
-22 -19z"/>
<path d="M6668 5584 c-10 -18 -34 -76 -54 -130 -56 -151 -200 -479 -250 -572
-59 -107 -206 -329 -275 -413 -104 -127 -251 -289 -311 -343 -44 -39 -59 -59
-55 -71 6 -15 11 -14 48 7 68 38 285 281 397 443 22 33 71 101 107 150 73 100
203 355 285 559 83 207 131 348 128 376 l-3 25 -17 -31z"/>
<path d="M6942 5150 c-6 -30 -14 -75 -18 -100 l-5 -45 20 23 c26 30 36 83 25
135 l-9 42 -13 -55z"/>
<path d="M6526 4902 c-37 -65 -91 -156 -121 -202 -30 -46 -55 -92 -55 -104 0
-17 4 -16 35 14 65 63 234 384 213 405 -3 3 -35 -48 -72 -113z"/>
<path d="M6902 4970 c-19 -39 -122 -292 -132 -322 -5 -17 -5 -28 1 -28 23 0
152 307 147 349 l-4 26 -12 -25z"/>
<path d="M5462 4425 c-42 -135 -55 -188 -50 -216 4 -22 6 -22 20 11 24 54 70
246 66 277 -3 21 -12 4 -36 -72z"/>
<path d="M5920 3828 c-26 -16 -31 -23 -18 -26 20 -4 78 24 78 38 0 16 -23 11
-60 -12z"/>
<path d="M3781 6223 c-2 -30 55 -295 105 -487 92 -353 271 -785 426 -1032 77
-122 170 -254 181 -254 19 0 0 40 -79 166 -234 373 -372 703 -534 1279 -79
281 -98 343 -99 328z"/>
<path d="M3927 5354 c-4 -4 -7 -19 -7 -33 0 -34 65 -250 79 -264 17 -17 14 10
-13 126 -30 124 -49 180 -59 171z"/>
<path d="M4015 5017 c3 -13 21 -57 41 -98 20 -40 40 -84 45 -96 10 -26 29 -31
29 -8 0 23 -98 225 -109 225 -5 0 -8 -10 -6 -23z"/>
<path d="M4190 4684 c0 -11 12 -31 26 -45 l26 -24 -7 25 c-4 14 -16 34 -26 45
-19 19 -19 19 -19 -1z"/>
<path d="M4250 4587 c0 -21 44 -71 58 -66 16 6 -6 47 -35 67 -21 13 -23 13
-23 -1z"/>
<path d="M4656 4575 c24 -99 124 -298 141 -281 7 7 -114 276 -134 296 -13 13
-13 11 -7 -15z"/>
</g>
</svg>
