<svg width="152" height="181" viewBox="0 0 152 181" fill="none" xmlns="http://www.w3.org/2000/svg">
<path d="M110.665 6.06668C95.9987 15 95.332 15.5333 95.332 17.8C95.332 21 98.3987 21.8 102.665 19.5333C104.665 18.4667 107.065 17.6667 107.999 17.6667C109.065 17.6667 111.599 16.2 113.732 14.3333C115.999 12.4667 118.132 11.5333 118.532 12.2C118.932 12.8667 121.199 21.5333 123.465 31.6667C127.732 50.7333 129.199 55.8 133.999 69C142.265 91.1333 145.599 117.667 141.465 127.533C140.399 130.067 136.132 135.8 131.999 140.333C127.865 144.867 124.799 149.267 125.065 150.067C126.399 153.8 133.332 151.133 139.465 144.6C147.199 136.2 151.332 125.667 151.332 114.2C151.332 104.2 146.532 81.5333 140.799 64.6C135.065 47.9333 131.999 36.3333 128.665 19.6667C125.465 4.06668 124.132 0.333344 121.599 0.333344C120.665 0.333344 115.865 3.00002 110.665 6.06668Z" fill="black"/>
<path d="M79.9991 23.5333C77.7324 24.4667 71.7324 27.9333 66.6657 31.2667C61.4657 34.4667 52.2657 39.8 46.1324 43.1333C33.3324 49.8 23.4657 58.2 14.5324 70.0667C2.53239 86.0667 -1.46761 97.9333 0.932386 111.4C1.73239 115.933 3.06572 121.267 4.13239 123.133C7.06572 128.867 15.5991 136.2 24.3991 140.6C31.3324 144.067 34.7991 144.867 42.7991 145.133C48.3991 145.267 53.0657 145.667 53.3324 145.933C53.5991 146.2 51.8657 153 49.3324 161C42.7991 181.667 42.5324 180.867 55.0657 179.667C60.6657 179.133 65.4657 178.6 65.5991 178.467C65.9991 178.067 67.1991 162.867 67.3324 155.933C67.3324 151.8 67.8657 148.333 68.5324 148.333C69.3324 148.333 72.3991 150.067 75.5991 152.2C83.7324 157.667 95.3324 160.867 103.066 159.667C110.532 158.6 113.999 156.867 113.999 154.467C113.999 153.133 110.666 152.467 101.599 152.067C91.0657 151.533 87.9991 150.733 82.1324 147.533C78.2657 145.533 73.9991 142.067 72.5324 140.067C69.8657 136.467 69.8657 136.067 71.9991 124.733C73.1991 118.333 74.9324 111.267 75.9991 109C77.5991 104.867 77.9991 104.733 87.9991 103.933C93.7324 103.4 102.399 103 107.199 103C116.532 103 120.932 101.4 118.532 99C116.132 96.6 101.599 94.7333 90.7991 95.5333L80.3991 96.3333L81.3324 92.6C83.1991 85 86.5324 81.2667 92.6657 79.6667C100.132 77.6667 105.866 74.7333 109.066 71.2667C113.732 66.0667 107.866 66.0667 93.5991 71.4C91.5991 72.0667 89.7324 72.4667 89.4657 72.2C89.1991 71.9333 90.3991 68.7333 92.1324 65.1333C93.8657 61.5333 94.9324 58.0667 94.5324 57.5333C92.9324 54.8667 90.3991 56.7333 86.9324 63C84.7991 66.7333 82.5324 69.2667 81.7324 68.8667C80.9324 68.3333 78.9324 64.8667 77.3324 61.1333C71.4657 47.8 66.7991 48.6 69.8657 62.4667C70.9324 66.8667 73.0657 71.5333 75.3324 74.0667L79.0657 78.3333L75.8657 86.2C74.1324 90.6 72.3991 94.3333 72.1324 94.6C71.8657 95 67.9991 92.4667 63.5991 89.1333C54.9324 82.4667 41.5991 75 38.5324 75C37.4657 75 36.2657 75.9333 35.7324 77.1333C34.7991 79.6667 37.8657 82.3333 55.5991 93.9333C62.6657 98.6 68.5324 103.133 68.6657 104.067C68.6657 105 67.5991 107.933 66.1324 110.733C64.7991 113.4 62.3991 119.933 60.7991 125.267C58.2657 133.667 57.4657 134.867 53.7324 136.2C44.2657 139.533 32.2657 136.733 20.1324 128.333C4.53239 117.667 4.79905 97.9333 20.5324 76.6C29.1991 64.8667 40.1324 55.4 51.1991 49.6667C55.3324 47.6667 62.5324 43.6667 67.3324 40.7333C83.4657 31.2667 88.9324 26.7333 87.8657 23.6667C86.9324 21.2667 85.3324 21.2667 79.9991 23.5333Z" fill="black"/>
</svg>
