<svg width="389" height="173" viewBox="0 0 389 173" fill="none" xmlns="http://www.w3.org/2000/svg">
<g clip-path="url(#clip0_12_37)">
<path d="M203.399 2.53328C189.532 7.99994 179.132 16 166.465 31.0666C154.465 45.3333 151.665 51.3333 150.732 63.4666L149.932 73.2L142.465 75.8666C138.332 77.3333 131.532 79.7333 127.265 81.3333C122.999 82.9333 119.265 84 118.865 83.6C118.599 83.3333 120.332 79.6 122.999 75.3333C134.465 56.2666 136.199 29.7333 126.732 19.4666C123.799 16.2666 122.599 15.8666 118.599 16.5333C111.799 17.6 104.465 23.2 100.465 30.5333C93.5319 43.3333 97.3985 47.2 105.532 35.4666C113.532 23.7333 118.999 21.3333 123.132 27.6C124.865 30.4 125.399 33.7333 125.265 40.8C124.999 52.1333 121.399 62.6666 112.732 77.3333C109.532 82.8 106.465 88.2666 106.065 89.3333C105.665 90.5333 101.265 93.4666 96.4652 96C85.2652 101.6 84.1985 100.933 84.4652 86.9333C84.7318 78.9333 85.7985 73.7333 89.5318 63.0666C94.8652 47.7333 95.1319 46.6666 92.3318 46.6666C89.2652 46.6666 81.2652 62.6666 78.1985 74.8C75.1319 86.6666 75.2652 97.3333 78.4652 102.533C80.4652 105.6 79.1319 107.2 70.1985 112C67.6652 113.333 62.4652 116.8 58.8652 119.6C42.4652 132.667 11.6652 151.333 0.731843 154.933C-1.26815 155.6 1.93185 161.333 4.19851 161.333C5.26518 161.333 8.99851 163.333 12.4652 165.733C24.1985 173.733 24.7318 174 26.5985 169.733C29.1318 163.867 43.5318 145.467 51.7985 137.2C58.7318 130.4 80.9985 113.333 82.9985 113.333C83.5318 113.333 86.5985 115.733 89.7985 118.533C101.399 128.667 121.265 135.733 141.799 136.933C158.599 137.867 164.332 136.933 167.265 132.533C170.065 128.133 168.065 125.733 163.532 128.133C158.999 130.533 133.132 130 122.999 127.333C113.132 124.8 99.9318 118.667 93.5319 113.867L88.7318 110.133L91.9318 107.733C93.5319 106.533 95.5319 105.333 96.0652 105.333C96.5985 105.333 99.3985 103.867 102.065 102C104.865 100.133 108.865 98.6666 111.399 98.6666C118.599 98.6666 135.799 102.667 143.265 106C149.932 109.067 163.932 118.667 165.665 121.333C166.999 123.467 171.665 122.933 171.665 120.533C171.665 119.467 168.332 115.2 164.332 111.2C156.065 102.8 143.932 96.5333 131.665 94.2666C127.265 93.4666 123.665 92.4 123.665 92C123.665 91.0666 150.332 81.2 152.865 81.3333C153.799 81.3333 162.599 85.8666 172.332 91.3333C182.065 96.8 190.599 101.333 191.265 101.333C191.799 101.333 191.532 100.8 190.465 100.133C189.265 99.3333 189.132 98.6666 190.199 98.1333C191.665 97.2 192.199 98.6666 191.799 102.933C191.399 106.267 205.132 111.067 215.932 111.333C220.865 111.467 225.265 111.733 225.665 112.133C226.065 112.533 229.665 112.4 233.799 111.867C246.599 110.133 250.599 105.333 247.799 95.2C245.932 88.6666 241.532 83.7333 234.599 80.1333C231.532 78.6666 226.999 75.8666 224.199 74C221.532 72.1333 216.999 70 214.199 69.0666C211.265 68.2666 208.999 67.2 208.999 66.6666C208.999 66.1333 213.399 65.0666 218.732 64.2666C223.932 63.4666 230.332 62.4 232.732 61.8666C235.932 61.2 236.999 61.4666 236.999 62.9333C236.999 66 245.665 75.3333 253.265 80.4C266.199 88.8 286.332 94 286.332 88.8C286.332 86.9333 278.732 82.6666 275.265 82.6666C271.799 82.6666 255.132 73.3333 248.999 68C241.799 61.6 242.599 60.2666 254.465 59.2C262.065 58.4 263.932 58.8 272.065 62.4C277.132 64.6666 283.399 68.2666 286.065 70.5333C291.265 74.5333 298.199 85.3333 295.799 85.3333C294.999 85.3333 294.332 86.2666 294.332 87.3333C294.332 88.5333 295.532 89.3333 297.532 89.3333C309.532 89.3333 301.265 69.7333 285.399 60.4C279.265 56.8 278.999 54.6666 284.732 54.6666C286.732 54.5333 294.865 53.4666 302.865 52.1333C317.132 49.7333 317.399 49.7333 321.799 52.2666C324.199 53.7333 328.865 54.9333 332.199 55.0666C335.399 55.2 337.399 55.7333 336.599 56.2666C335.532 56.9333 335.665 57.3333 337.132 57.3333C338.332 57.3333 339.665 58.4 339.932 59.7333C340.732 62.4 348.865 65.3333 355.665 65.3333C366.599 65.3333 377.665 58.6666 379.132 51.2C379.799 47.8666 379.132 46.1333 375.665 42.1333C373.265 39.4666 369.932 36.9333 368.199 36.5333C364.465 35.6 363.799 32 367.399 32C370.732 31.8666 385.399 23.3333 387.532 20.1333C389.265 17.4666 389.132 17.3333 385.532 17.3333C383.399 17.3333 379.265 18.9333 376.332 20.6666C373.399 22.5333 370.065 24 368.732 24C367.532 24 362.599 25.8666 357.532 28C348.599 32.1333 344.599 32.4 350.065 28.5333C351.665 27.4666 352.999 25.8666 352.999 25.2C352.999 24.4 353.932 22.9333 354.999 21.8666C357.265 19.6 357.665 12.4 355.799 9.46662C354.732 7.86661 354.065 7.99994 351.665 10.8C350.065 12.5333 349.132 13.3333 349.532 12.5333C349.932 11.6 349.399 10.2666 348.332 9.33329C347.265 8.39995 346.332 6.79995 346.332 5.86661C346.332 -0.400051 330.999 4.53328 322.332 13.4666C313.532 22.5333 309.932 29.7333 310.599 36.5333L311.265 42.4L303.132 44C292.599 46.1333 270.332 48.9333 270.332 48.1333C270.332 47.8666 272.599 44.9333 275.399 41.4666C284.599 30.2666 288.065 23.7333 288.732 16.5333C289.132 10.9333 288.732 9.19996 286.065 6.13328C281.665 0.933278 272.865 -5.6982e-05 265.265 3.86661C256.865 8.13328 245.399 23.6 244.732 31.3333C244.465 33.7333 243.399 35.0666 241.265 35.6C237.265 36.5333 233.799 44.1333 234.999 49.4666C235.932 53.7333 237.665 53.0666 216.999 56.5333C210.065 57.7333 202.599 59.0666 200.332 59.4666L196.332 60.2666L200.999 56.4C208.599 50.2666 211.399 46.8 211.399 43.3333C211.399 38.5333 208.599 39.2 201.132 46.1333C191.665 54.8 173.799 65.6 162.732 69.2L158.332 70.5333V64.6666C158.332 57.2 159.932 53.4666 168.465 42C179.399 27.2 187.932 19.3333 199.932 13.3333C217.399 4.66662 221.265 6.26662 217.399 20.5333C214.465 31.8666 216.199 34.5333 221.799 27.3333C224.599 23.6 225.665 20.5333 226.065 14.6666C226.599 7.59995 226.332 6.53328 223.265 3.46662C218.999 -0.80006 212.599 -1.06672 203.399 2.53328ZM347.665 10.8C347.665 11.3333 346.332 11.6 344.865 11.3333C340.599 10.5333 340.332 9.59995 344.332 9.59995C346.199 9.59995 347.665 10.1333 347.665 10.8ZM263.665 17.3333C263.665 18 262.999 18.6666 262.199 18.6666C261.532 18.6666 261.265 18 261.665 17.3333C262.065 16.5333 262.732 16 263.132 16C263.399 16 263.665 16.5333 263.665 17.3333ZM332.199 19.2C332.065 20.8 331.265 21.7333 330.199 21.4666C329.132 21.2 327.532 20.9333 326.599 20.9333C325.399 20.9333 325.532 20.2666 326.999 18.6666C329.799 15.6 332.599 15.8666 332.199 19.2ZM330.332 35.2C330.332 35.6 329.799 36.2666 328.999 36.6666C328.332 37.0666 327.665 36.8 327.665 36.1333C327.665 35.3333 328.332 34.6666 328.999 34.6666C329.799 34.6666 330.332 34.9333 330.332 35.2ZM324.332 37.3333C324.732 38 324.465 38.6666 323.799 38.6666C322.999 38.6666 322.332 38 322.332 37.3333C322.332 36.5333 322.599 36 322.865 36C323.265 36 323.932 36.5333 324.332 37.3333ZM245.665 40C246.065 40.8 245.532 40.9333 244.465 40.5333C242.065 39.6 241.665 38.6666 243.532 38.6666C244.332 38.6666 245.265 39.2 245.665 40ZM241.932 46.9333C241.532 48 241.132 47.6 241.132 46.1333C240.999 44.6666 241.399 43.8666 241.799 44.4C242.199 44.8 242.332 46 241.932 46.9333ZM370.332 48C370.332 48.6666 370.065 49.3333 369.799 49.3333C369.399 49.3333 368.732 48.6666 368.332 48C367.932 47.2 368.199 46.6666 368.865 46.6666C369.665 46.6666 370.332 47.2 370.332 48ZM246.732 50.2666C245.799 50.5333 244.199 50.5333 243.399 50.2666C242.465 49.8666 243.132 49.6 244.999 49.6C246.865 49.6 247.532 49.8666 246.732 50.2666ZM347.265 56.8C346.865 57.2 345.665 57.3333 344.732 56.9333C343.665 56.5333 344.065 56.1333 345.532 56.1333C346.999 56 347.799 56.4 347.265 56.8ZM222.332 82.6666C223.399 83.3333 223.932 84.1333 223.665 84.5333C223.265 84.8 221.799 84.2666 220.465 83.2C217.532 81.2 219.132 80.6666 222.332 82.6666ZM200.599 100.8C200.199 101.2 198.999 101.333 198.065 100.933C196.999 100.533 197.399 100.133 198.865 100.133C200.332 100 201.132 100.4 200.599 100.8ZM239.665 102.667C238.599 103.333 236.465 103.867 234.999 103.867C232.865 103.733 232.865 103.6 235.665 102.667C240.332 101.2 242.065 101.2 239.665 102.667Z" fill="#FBF9F9"/>
</g>
<defs>
<clipPath id="clip0_12_37">
<rect width="389" height="173" fill="white"/>
</clipPath>
</defs>
</svg>
