<svg width="275" height="302" viewBox="0 0 275 302" fill="none" xmlns="http://www.w3.org/2000/svg">
<g clip-path="url(#clip0_12_23)">
<path d="M181.999 7.66668C172.933 16.8667 168.399 19.8 160.266 21.6667C155.599 22.6 153.066 22.6 151.066 21.5333C147.199 19.5333 143.066 21.9333 139.466 28.4667C137.199 32.4667 136.799 34.2 137.999 36.3333C140.133 40.3333 141.733 39.6667 144.666 33.2667L147.333 27.5333L155.733 28.0667C165.199 28.7333 171.599 26.2 181.466 18.3333L186.799 13.9333L186.266 17.6667C185.199 25.2667 192.533 38.7333 199.999 42.7333L203.199 44.3333L199.999 51.5333C198.266 55.5333 196.133 62.7333 195.333 67.4C193.866 75.2667 193.999 76.3333 196.933 82.2C199.999 88.4667 202.933 91 210.666 93.8C214.133 95 214.399 95.4 212.399 96.4667C211.066 97.2667 209.999 98.6 209.999 99.6667C209.999 100.6 209.599 101.667 208.933 101.933C207.333 102.6 199.333 115.8 199.333 117.8C199.333 121 206.266 124.2 216.133 125.533C221.199 126.333 226.533 126.733 227.999 126.733C229.466 126.6 232.533 126.6 234.933 126.733C238.933 127 239.066 127.267 238.399 131.4C237.866 135.133 238.399 136.333 241.733 139.267C243.999 141.133 250.133 144.333 255.199 146.333C260.399 148.467 264.666 150.467 264.666 150.867C264.666 151.267 261.333 153.8 257.333 156.333C253.333 158.867 249.999 161.533 249.999 162.333C249.866 163 249.599 164.6 249.333 165.8C249.199 166.867 249.733 170.2 250.799 173.133C251.866 175.933 252.666 178.733 252.666 179.267C252.666 179.8 247.866 183.4 241.999 187.267C228.933 195.933 227.733 200.6 239.199 199C241.866 198.733 256.533 187 259.866 182.6L262.666 178.867L259.599 173.667C255.866 167.133 255.866 164.867 259.733 163.8C261.466 163.4 265.333 160.733 268.399 157.933C275.333 151.533 275.999 146.467 270.399 144.067C268.266 143.267 261.733 140.333 255.733 137.533L244.666 132.467L248.666 128.467C250.933 126.333 252.666 123.267 252.666 121.8C252.666 119.133 251.999 119 239.733 119C228.133 119 210.266 117 208.933 115.667C208.666 115.4 209.599 113.533 210.933 111.4C216.133 103.933 221.999 92.3333 221.999 89.6667C221.999 87.6667 221.066 87 218.666 87C213.733 87 207.199 83.9333 203.333 79.8L200.133 76.2L202.399 67.4C203.599 62.6 206.133 55.2667 207.999 51.1333C212.533 40.6 212.533 40.3333 207.466 38.6C204.399 37.5333 201.199 34.7333 198.266 30.6C193.999 24.7333 193.466 23 192.799 12.6C192.399 6.33335 191.333 1.00001 190.666 0.733343C189.866 0.466681 185.999 3.66668 181.999 7.66668Z" fill="#FFF8F8"/>
<path d="M130.267 45C128.667 46.8667 127.333 49.2667 127.333 50.4667C127.333 52.3334 126.267 52.6 119.733 51.8C115.2 51.2667 111.6 50.0667 110.933 49C109.333 46.2 106.4 46.6 104.667 49.8C103.733 51.2667 101.867 56.2 100.533 60.6C96.9333 71.4 92 79 88.6667 79C84.4 79 70.2667 71.4 59.7333 63.5334C48.1333 54.8667 44.6667 54.4667 40.8 61C37.4667 66.7334 35.0667 66.8667 26.6667 61.5334C21.7333 58.3334 20 57.8 19.0667 59.2667C16.4 63.4 16.5333 67.9334 19.7333 80.7334C23.4667 95.5334 22.9333 98.0667 16.8 97.4C11.7333 96.8667 10 98.6 10 104.067C10 111.933 19.3333 128.333 23.8667 128.333C25.0667 128.333 24.4 125.267 21.8667 117.4C19.8667 111.4 18.4 106.067 18.6667 105.533C19.0667 105 21.3333 103.667 24 102.467C28.5333 100.2 28.6667 100.067 28.6667 92.3334C28.6667 87.9334 28 81.6667 27.0667 78.3334C25.2 71.5334 25.8667 70.2 30 72.3334C34.8 74.8667 41.6 72.8667 44 68.3334C46 64.6 49.2 63 50.2667 65.4C50.5333 66.0667 55.4667 70.0667 61.2 74.3334C72.5333 82.6 88 89.1334 93.4667 87.8C96.9333 86.8667 102.933 77 107.333 64.6C110.533 55.9334 111.067 55.2667 113.733 57.9334C115.867 60.0667 128.533 59.8 130.667 57.5334C132.933 55.2667 136.8 44.2 135.867 42.7334C134.667 40.8667 133.333 41.5334 130.267 45Z" fill="#FFF8F8"/>
<path d="M129.2 91.2668C127.067 94.6001 128.8 109.133 133.6 127.933C134 129.667 132 135.933 128.667 143.933C121.467 160.467 114 182.2 114 186.333C114 191.8 111.733 191.267 106.4 184.2C93.0667 166.2 88.1333 159.267 85.6 154.067C82.8 148.2 80.6667 146.6 77.4667 147.8C72 149.933 86.1333 175.667 102.8 193.533L109.733 201.133L107.733 209.933L105.733 218.867L98.9333 220.333C95.0667 221.133 85.7333 221.8 78 221.8C66.4 221.933 62.1333 221.267 53.3333 218.467C40.5333 214.333 37.2 214.2 35.3333 217.533C34.6667 219 34 220.467 34 220.733C34 221.933 49.4667 226.867 57.2 228.333C67.4667 230.067 86.1333 230.067 95.8667 228.2C100.133 227.4 103.733 227 104 227.267C104.267 227.533 103.6 236.067 102.667 246.333C99.3333 278.333 100.4 299.267 105.333 301.267C107.733 302.067 119.333 297.8 120.133 295.667C120.533 294.733 119.2 285.667 117.333 275.533C113.733 256.467 111.467 229.667 113.333 229.667C113.867 229.667 115.067 230.467 115.867 231.533C119.733 236.333 139.733 251.133 141.6 250.467C142.667 250.067 144.133 249.667 144.8 249.667C145.467 249.667 146 248.6 146 247.4C146 244.733 139.333 238.6 133.333 235.8C131.2 234.733 126.133 230.733 122.133 227C115.333 220.6 115.067 220.067 115.867 215C117.6 204.067 117.867 203.8 132.533 200.467C147.467 197.133 163.6 189.533 174 181C180.4 175.8 181.867 173.267 179.467 171.667C178.8 171.267 169.867 175.133 159.733 180.333C143.733 188.6 122.667 196.067 120.8 194.333C120.267 193.667 125.333 175 127.333 170.333C128 168.867 130.533 162.6 133.067 156.333C142.667 132.867 141.867 133.933 149.867 131.4C161.6 127.8 182 113.4 182 108.867C182 105.533 178 106.067 171.733 110.2C161.867 116.6 149.867 123.4 149.333 122.733C148.933 122.467 151.467 116.867 154.667 110.2C161.333 97.0001 162 93.6667 158.133 93.6667C155.067 93.6667 150.4 99.4001 145.333 109.667C143.333 113.667 141.467 117.267 141.067 117.667C139.867 119 138.133 114.067 137.333 107C136 95.9334 134.133 89.6667 132 89.6667C130.933 89.6667 129.733 90.3334 129.2 91.2668Z" fill="#FFF8F8"/>
<path d="M27.866 138.2C26.7994 141.133 32.1327 150.467 38.7994 157.267C42.1327 160.6 44.3994 163.8 43.7327 164.467C41.866 166.333 22.7994 173.667 19.7327 173.667C15.866 173.667 14.1327 177.133 14.3993 184.467C14.666 191.667 11.866 196.733 5.19935 200.6C2.66602 202.067 0.666016 204.067 0.666016 205C0.666016 209.133 16.3994 218.867 23.066 219C29.866 219 27.066 210.867 19.5993 209C13.066 207.4 12.1327 205.667 15.7327 201.8C19.1994 198.067 21.3327 192.333 21.7327 184.6C21.866 183 23.066 181.267 24.3994 180.867C32.666 178.067 44.3994 173 47.5993 170.867C54.666 165.8 54.666 163.8 47.9994 156.333C44.666 152.6 41.9994 149.133 41.9994 148.6C41.9994 147 31.5993 136.333 29.9993 136.333C29.1994 136.333 28.266 137.133 27.866 138.2Z" fill="#FFF8F8"/>
<path d="M208.666 199.533C192.4 204.6 191.733 205 190.8 210.2C189.066 219.4 194 234.467 201.866 243.267C204.133 245.933 206 248.333 206 248.733C206 249.133 204.266 249.8 202 250.333C196.133 251.667 191.6 255.8 189.866 261.533C188.4 266.733 188.266 266.733 183.466 265.4C179.2 264.2 173.733 261.667 159.6 254.333C153.733 251.4 151.2 252.333 152.533 257.267C154.266 263.933 177.333 273.667 191.733 273.667C198.666 273.667 199.466 273.4 198.666 271.267C196.533 266.333 196.666 263.533 199.2 259.267C200.8 257 203.066 255 204.266 254.867C209.866 254.733 214.533 253.667 215.6 252.6C216.4 251.8 214.4 247.667 210.266 241.267C203.466 231.4 196.666 216.6 196.666 212.067C196.666 210.467 197.6 209.667 199.733 209.667C203.333 209.667 214.4 206.333 220.4 203.533C223.2 202.2 224.666 200.733 224.4 199.267C223.733 195.933 220 196.067 208.666 199.533Z" fill="#FFF8F8"/>
</g>
<defs>
<clipPath id="clip0_12_23">
<rect width="275" height="302" fill="white"/>
</clipPath>
</defs>
</svg>
