<svg width="107" height="130" viewBox="0 0 107 130" fill="none" xmlns="http://www.w3.org/2000/svg">
<path d="M94.9997 2.93336C94.3331 4.66669 91.9331 10.5334 89.6664 16L85.6664 26.1334H75.9331C63.1331 26 54.5997 29.2 45.5331 37.2C33.9331 47.6 20.3331 72.8 20.3331 84C20.3331 91.7334 23.9331 88 32.1997 71.4667C44.8664 45.8667 56.7331 34.9334 73.2664 33.6C83.9331 32.6667 83.7997 33.3334 64.3331 62C61.7997 65.6 57.7997 71.2 55.2664 74.4C51.9331 78.4 50.9997 80.5334 51.9331 81.4667C55.9331 85.4667 65.6664 76.4 78.4664 56.9334C83.2664 49.8667 87.5331 44 88.1997 44C90.0664 44 92.5997 51.2 93.2664 58.6667C94.1997 68.6667 90.4664 78.1334 80.5997 90.4C72.3331 100.8 64.8664 106.133 48.5997 113.2C39.6664 117.2 16.9997 122.533 15.5331 120.933C15.1331 120.533 16.3331 116.267 18.1997 111.467C22.1997 101.6 22.8664 93.3334 19.6664 93.3334C18.4664 93.3334 16.8664 94.9334 16.0664 96.9334C10.8664 109.867 6.33307 118.4 3.39974 121.6L0.0664062 125.067L3.53307 127.333C6.46641 129.333 8.86641 129.6 17.3997 128.8C32.5997 127.467 43.6664 124.4 56.4664 118C72.5997 110 80.5997 103.867 88.1997 93.4667C101.266 76 104.333 62.5334 98.9997 47.7334C97.3997 43.0667 95.3997 38.6667 94.7331 37.7334C93.9331 36.6667 95.6664 31.7334 100.2 22.5334L106.866 8.93336L103.266 4.53336C98.9997 -0.666641 96.7331 -1.06665 94.9997 2.93336Z" fill="black"/>
</svg>
