<svg width="186" height="252" viewBox="0 0 186 252" fill="none" xmlns="http://www.w3.org/2000/svg">
<path d="M82.9982 1.06669C80.9982 1.73336 79.5316 3.33336 79.2649 5.06669C78.8649 7.86669 79.2649 8.00003 87.9316 8.00003C103.932 8.00003 117.265 17.2 122.465 31.8667C127.265 45.4667 128.198 46.5334 131.132 41.2C132.198 39.0667 132.198 36.8 130.998 32.2667C128.065 20.4 119.532 9.60003 108.998 4.13336C103.265 1.20003 88.4649 -0.533306 82.9982 1.06669Z" fill="black"/>
<path d="M61.933 16.5333C51.7997 27.2 51.133 36.8 58.9997 61.2C63.3997 74.8 63.7997 78.2667 61.533 83.2C59.6663 87.0667 57.933 86.6667 50.333 80.6667C43.3997 75.0667 39.933 73.3334 31.6663 71.2C22.4663 68.6667 17.7997 68.9333 12.5997 72C5.26634 76.5333 0.333003 87.6 4.59967 90.1334C5.533 90.6667 6.733 90.1334 7.533 88.6667C11.7997 81.4667 16.733 77.3334 21.133 77.3334C27.3997 77.3334 37.533 80.9334 42.9997 85.2C54.8663 94.2667 59.6663 95.4667 64.333 90.4C70.5997 83.6 70.9997 74.1334 65.7997 58C58.5997 35.6 59.133 28.1333 68.4663 18C71.2663 14.9333 73.6663 11.7334 73.6663 10.8C73.6663 7.20001 68.1997 9.86668 61.933 16.5333Z" fill="black"/>
<path d="M124.6 53.4667C123.933 55.2 122.6 62 121.8 68.5333C119.8 83.0667 121.133 88 127 88C131.666 88 133.4 86.2667 139.8 75.8667C144.2 68.8 145.933 67.3333 153.933 63.6C158.866 61.2 163 58.8 163 58.2667C163 56.1333 157 55.0667 152.2 56.4C146.333 57.8667 136.066 67.3333 132.2 74.9333C130.733 77.7333 129.266 80 128.866 80C128.466 80 128.333 74 128.466 66.6667C128.733 58 128.333 52.8 127.266 51.7333C126.2 50.6667 125.4 51.0667 124.6 53.4667Z" fill="black"/>
<path d="M87 59.8667C85.2667 63.2 85.2667 69.6 87 78.8C88.7334 87.8667 92.3334 118 92.3334 123.6V127.733L82.0667 124.133C69.8 119.867 67.9334 118.8 55.9334 110.933C47.8 105.467 46.7334 105.067 44.8667 106.933C43 108.8 43.2667 109.467 47.6667 114C55 121.333 65.1334 127.2 77.5334 131.6L88.6 135.467L83.8 139.2C80.6 141.6 79 143.867 79 146C79 151.067 81.5334 151.333 87.8 146.8L93.6667 142.667L93.5334 151.733C93.4 166.667 92.2 171.067 87.5334 173.333C85.2667 174.4 79.8 178.4 75.5334 182.133C63.1334 192.933 58.4667 195.2 48.2 195.333C39.9334 195.333 39 195.067 33.1334 190.267C25.9334 184.267 23 179.2 23 173.067C23.1334 166.667 25.6667 162.8 34.4667 155.867C49.6667 144 49.1334 138.933 32.0667 130.533C17.5334 123.333 9.66669 114.8 7.66669 103.6C6.86669 99.8667 6.20003 98.6666 4.73336 99.2C3.66669 99.6 2.20003 100 1.40003 100C-0.733307 100 1.13336 111.067 4.20003 117.067C5.66669 119.867 9.40003 124.533 12.6 127.467C17.9334 132.267 21.2667 134.133 34.0667 139.2C36.7334 140.267 39 142 39 142.933C38.8667 143.867 34.8667 147.067 29.9334 150C23 154.133 20.3334 156.667 18.0667 161.333C12.2 172.8 14.8667 184 25.9334 194.133C41.1334 208.133 59.6667 206.533 79 189.733C91.8 178.533 91.4 178.667 90.3334 184.8C86.2 209.467 82.4667 224 76.8667 237.6C75.1334 241.867 73.6667 246.667 73.6667 248.4C73.6667 251.467 74.0667 251.6 82.6 251.467L91.6667 251.333L94.7334 240.667C98.3334 228.4 100.733 204.267 99.9334 188.267C99.6667 182.267 99.9334 177.333 100.6 177.333C101.267 177.333 104.067 179.867 106.733 182.933C124.6 203.6 137.933 209.867 147.533 202.267C153.133 197.733 151.133 195.6 142.867 196.667C137.267 197.467 135.533 197.067 130.067 193.867C126.6 191.867 120.867 187.067 117.267 183.2C113.667 179.2 108.733 174.8 106.2 173.2L101.667 170.4V157.2C101.667 150 102.067 144 102.733 144C103.267 144 108.733 148.667 114.867 154.267C128.867 166.8 140.333 172.4 140.333 166.533C140.333 165.067 133.533 158.8 131.933 158.667C131.4 158.667 127 154.933 122.333 150.533C117.667 146 111.667 140.8 109.133 138.933C103.667 135.067 103.267 133.867 107 132.667C111.267 131.333 123 121.467 123 119.2C123 118.133 122.2 116.933 121.267 116.533C119.533 115.867 107.667 121.867 106.333 124.133C105.8 124.8 104.733 125.333 103.8 125.333C101.933 125.333 101.533 123.333 98.3334 96.6666C95.6667 75.4666 91.6667 57.3333 89.6667 57.3333C89 57.3333 87.8 58.5333 87 59.8667Z" fill="black"/>
<path d="M168.332 62.5333C168.332 63.2 169.799 65.4666 171.532 67.6C180.999 78.9333 179.666 99.2 168.732 109.733C166.599 111.6 159.932 116.133 153.666 119.733C142.466 126.133 142.332 126.267 141.932 131.867C141.532 137.333 141.932 138 150.199 146.267C154.999 151.2 159.666 157.2 160.466 159.733C162.332 165.6 161.132 173.6 156.999 181.6C152.999 189.333 152.999 189.333 156.732 189.333C165.532 189.333 171.132 170.667 166.999 155.733C165.932 152.133 163.132 148.533 156.999 143.2C152.199 138.933 148.332 134.533 148.332 133.333C148.332 132.133 150.999 130 154.732 128.133C181.666 115.2 191.932 93.4666 181.532 71.3333C178.466 64.8 168.332 58.1333 168.332 62.5333Z" fill="black"/>
<path d="M139 100.267C127.533 109.733 124.333 114.667 129.666 114.667C136.733 114.667 158.866 94.9334 155.4 91.4667C153.4 89.4667 149.666 91.4667 139 100.267Z" fill="black"/>
<path d="M62.8667 158.133C49.5333 169.733 43 176.133 43 177.467C43 180 47.2667 180.267 52.0667 178.133C59.4 174.8 76.3333 157.867 76.3333 153.867C76.3333 148.667 72.2 150 62.8667 158.133Z" fill="black"/>
</svg>
