<svg width="124" height="196" viewBox="0 0 124 196" fill="none" xmlns="http://www.w3.org/2000/svg">
<path d="M97.4 6.40282C72.6 14.2695 60.7333 19.2028 48.0667 27.0695C37.4 33.7362 31.1333 40.1362 32.2 43.2028C32.6 44.1362 31.6667 45.6028 30.2 46.5362C28.6 47.3362 27.4 48.6695 27.4 49.4695C27.4 50.4028 28.0667 50.2695 29.4 49.2028C30.4667 48.2695 31.4 48.0028 31.4 48.4028C31.4 48.9362 30.4667 50.2695 29.4 51.3362C28.3333 52.5362 27.4 52.8028 27.4 52.1362C27.4 50.0028 19.6667 52.1362 17 55.0695C13.2667 58.9362 5.53333 73.7362 2.6 82.5361C-0.866667 92.5361 -0.866667 116.536 2.6 131.203C5.26667 142.669 9.8 157.069 11.4 159.203C12.0667 159.869 11.5333 166.936 10.4667 174.803C7.4 195.603 9 199.069 18.7333 192.803L23.4 189.869L22.6 174.536L21.6667 159.069L30.2 154.669C48.0667 145.336 80.7333 121.336 86.7333 113.336C88.2 111.203 92.3333 105.736 95.9333 101.069C110.333 82.1362 115.4 66.6695 120.867 26.5362C121.667 20.2695 122.867 12.1362 123.4 8.53615C123.933 4.80283 124.2 1.46948 123.8 0.802826C122.733 -1.06384 117.4 0.136154 97.4 6.40282ZM101.667 16.6695C101.267 17.0695 100.067 17.2028 99.1333 16.8028C98.0667 16.4028 98.4667 16.0028 99.9333 16.0028C101.4 15.8695 102.2 16.2695 101.667 16.6695ZM111 26.8028C110.6 27.7362 110.333 27.0695 110.333 25.2028C110.333 23.3362 110.6 22.6695 111 23.4695C111.267 24.4028 111.267 26.0028 111 26.8028ZM109.667 38.1362C109.267 39.4695 109 38.6695 109 36.5362C109 34.2695 109.267 33.3362 109.667 34.1362C109.933 35.0695 109.933 36.9362 109.667 38.1362ZM48.0667 38.5362C47.6667 39.2028 46.4667 39.8695 45.6667 39.8695C44.7333 39.8695 44.8667 39.3362 46.0667 38.5362C48.6 36.9362 49.1333 36.9362 48.0667 38.5362ZM60.7333 59.0695C60.7333 59.4695 60.2 60.1362 59.4 60.5361C58.7333 60.9362 58.0667 60.6695 58.0667 60.0028C58.0667 59.2028 58.7333 58.5362 59.4 58.5362C60.2 58.5362 60.7333 58.8028 60.7333 59.0695ZM48.7333 72.4028C48.7333 72.8028 48.2 73.4695 47.4 73.8695C46.7333 74.2695 46.0667 74.0028 46.0667 73.3362C46.0667 72.5361 46.7333 71.8695 47.4 71.8695C48.2 71.8695 48.7333 72.1362 48.7333 72.4028ZM85.8 99.7362C84.8667 100.936 84.0667 102.136 83.8 102.403C83.6667 102.669 83.6667 101.736 83.8 100.269C83.8 98.8028 84.7333 97.6028 85.6667 97.6028C87 97.6028 87 98.1362 85.8 99.7362ZM26.4667 108.536C26.0667 109.736 25.4 110.403 25.1333 110.003C24.7333 109.603 24.8667 108.803 25.4 108.003C26.6 105.869 27.4 106.269 26.4667 108.536ZM24.7333 115.069C24.7333 115.469 24.2 116.136 23.4 116.536C22.7333 116.936 22.0667 116.669 22.0667 116.003C22.0667 115.203 22.7333 114.536 23.4 114.536C24.2 114.536 24.7333 114.803 24.7333 115.069ZM67.4 119.069C67.4 119.336 66.4667 120.003 65.2667 120.403C64.2 120.803 63.6667 120.669 64.0667 119.869C64.8667 118.536 67.4 118.003 67.4 119.069ZM33.6667 125.469C33.2667 126.536 32.8667 126.136 32.8667 124.669C32.7333 123.203 33.1333 122.403 33.5333 122.936C33.9333 123.336 34.0667 124.536 33.6667 125.469ZM15.4 139.603C15.4 141.603 15.1333 141.603 14.0667 139.869C12.3333 137.203 12.3333 135.469 14.0667 136.536C14.8667 136.936 15.4 138.403 15.4 139.603ZM27.4 144.536C27.4 145.603 26.8667 146.536 26.0667 146.536C25.4 146.536 25.1333 145.603 25.5333 144.536C26.0667 143.469 26.6 142.536 26.8667 142.536C27.1333 142.536 27.4 143.469 27.4 144.536Z" fill="black"/>
</svg>
