<svg width="211" height="413" viewBox="0 0 211 413" fill="none" xmlns="http://www.w3.org/2000/svg">
<path d="M133.067 8.06668C129.733 12.2 125.733 16.8667 124.4 18.3333C107.2 36.7334 100.4 44.8667 97.0667 51.5334C93.4667 58.7334 93.0667 60.4667 93.6 70.2C94 79.8 94.5333 81.6667 98.4 87.5334L102.8 94.0667L100.8 106.867C97.0667 129.8 95.8667 149.667 95.8667 186.333C95.8667 217.933 95.6 222.067 93.8667 219.8C92.8 218.333 92 216.6 92 216.067C92 215.4 89.8667 211.667 87.3333 207.667C84.2667 202.867 82.2667 197.667 81.4667 192.333C79.6 180.6 71.6 167 68.4 170.067C67.6 171 72.9333 185.133 75.0667 188.067C75.7333 189 76 190.2 75.4667 190.733C74.9333 191.267 73.7333 190.733 72.9333 189.667C69.2 184.733 47.4667 167 45.2 167C43.7333 167 42.6667 167.267 42.6667 167.667C42.6667 170.733 47.8667 177 59.4667 187.933C67.0667 195 73.3333 201.267 73.3333 201.933C73.3333 204.067 62.6667 203 55.2 200.2C43.7333 195.933 37.2 189 30 173.933C26.6667 166.867 21.8667 157 19.4667 151.933C17.0667 147 15.3333 143 15.6 143C15.8667 143 23.2 146.2 31.7333 150.2C50.6667 159 54.6667 160.2 54.6667 157.133C54.6667 153 33.7333 141.933 14.8 136.2C11.6 135.267 7.6 133.4 6 132.067C2.53333 129.4 0 129 0 131C0 132.867 4.93333 142.6 8.26667 147.267C9.6 149.267 14.6667 159.4 19.3333 169.933C29.0667 191.267 34 197.533 46.9333 204.333C55.7333 209 66 210.733 73.6 208.6C78.5333 207.267 78.5333 207.267 82.4 213.4C84.5333 216.867 88.6667 225 91.7333 231.533C97.2 243 97.3333 243.8 97.3333 256.733C97.3333 276.067 90.9333 309.8 83.0667 332.867C78 347.4 70.8 363 69.2 363C67.3333 363 68.8 351.8 71.3333 347C74.1333 341.667 75.4667 326.467 74.1333 317.133C73.2 311.533 72.9333 311.133 70.5333 312.333C68.4 313.533 68 315.267 67.8667 324.067L67.7333 334.333L65.4667 327C61.6 315 55.2 304.6 52.9333 306.867C52.1333 307.667 53.2 313.933 55.8667 324.067C61.8667 347.133 61.4667 350.2 52.8 344.2C42.4 337.133 37.2 325.533 34.6667 304.333C33.8667 297.4 32.4 287.667 31.3333 282.733C30.2667 277.8 29.3333 273.4 29.3333 273C29.3333 272.067 43.4667 283 53.2 291.4C58.4 295.8 59.3333 296.2 60.4 294.333C61.7333 291.933 59.6 289.133 50.6667 280.733C44.4 275 20.1333 255 19.3333 255C17.8667 255 18.8 262.733 21.3333 272.333C22.8 277.8 24.9333 289.667 26 298.6C28.2667 316.2 31.6 328.6 36.4 337C40 343.4 51.0667 352.067 56.9333 353.133C62.2667 354.067 63.2 356.867 62 366.467C61.2 373 60.4 374.467 53.6 381.267C44.9333 389.667 34.9333 396.467 27.7333 398.867C24.9333 399.8 22.6667 401.4 22.6667 402.467C22.6667 404.733 30.6667 412.2 33.2 412.333C36 412.333 51.0667 399.8 58.4 391.267C74 373.133 82.5333 357.267 91.3333 330.333C94.8 319.933 99.0667 309.667 101.467 306.067C107.2 297.8 118.133 285.8 123.333 281.933C127.2 279.133 127.733 279 131.467 281C136.667 283.667 151.067 283.533 159.067 280.733C170.133 276.733 165.867 274.467 149.067 275.533C130.267 276.733 130.8 275 152.8 263.933C166.133 257.267 169.733 254.2 166.133 252.867C163.6 251.933 156.133 254.6 141.333 261.533C135.867 264.2 130.8 266.467 130.267 266.733C128.533 267.533 130.933 259.933 134 255C137.733 249.133 142.933 244.867 150.667 241.267C155.467 239 160 238.333 172.667 237.933C181.467 237.667 189.333 236.867 190 236.333C190.8 235.8 193.333 235.667 195.733 235.933L200 236.6L195.067 242.867C192.267 246.2 186 253.667 181.067 259.4C169.6 272.467 168.533 277.267 178.667 270.333C189.333 263 210.667 236.067 210.667 230.067C210.667 227.933 206.667 227.933 176.267 229.667C157.6 230.733 153.6 231.267 147.333 234.2C133.2 240.6 124 252.2 122 266.333C121.2 271.933 119.867 274.2 113.467 281C109.333 285.4 104.533 290.733 102.933 293L100 297L100.667 292.333C103.867 269.533 104.267 260.067 103.467 233.267L102.533 204.2L109.467 190.6C113.2 183.133 116.8 176.467 117.333 175.933C117.867 175.4 120.8 174.6 123.733 174.333C131.6 173.533 141.2 168.2 148.933 160.467C160.533 148.733 173.2 119 173.333 103.4C173.333 97.9333 173.2 97.8 170 99C165.6 100.733 145.333 112.2 142.4 114.733C135.867 120.333 144.8 120.467 156.133 115L164.267 111.133L163.467 115.667C162.667 119.533 159.333 127.8 152.667 142.333C149.467 149 139.333 159.533 132 163.533C128.267 165.533 124.8 167 124.533 166.6C124.133 166.333 126.8 161.933 130.267 157.133C140.4 142.867 140.933 142.067 138.933 140.067C137.6 138.733 135.333 140.467 127.067 149C119.867 156.6 117.2 158.733 117.867 156.333C119.733 149.8 128.667 133.267 132.267 129.667C139.067 122.867 136.133 119.667 128.8 125.667C116 135.667 110 148.333 110.933 162.067C111.6 169.4 111.2 171.267 107.467 178.333L103.333 186.333L102.933 169.667C102.533 154.067 106.4 111 109.067 101.133C109.867 98.0667 111.467 96.8667 117.067 94.7334C120.933 93.2667 124 91.2667 124 90.3333C124 89.2667 125.2 88.2 126.667 87.6667C132.933 85.6667 141.333 69.8 141.333 59.6667C141.333 48.8667 136.933 47.8 134.8 57.9333C132.533 68.3333 127.2 78.3333 121.067 83.6667C116.4 87.5334 112 89.6667 112 87.9333C112 87.6667 113.733 80.6 115.867 72.3333C118 63.9333 119.467 56.6 119.2 56.0667C116.8 52.3333 111.867 60.8667 107.2 76.3333L104.267 86.3333L102 81C95.6 66.2 100.133 53.8 119.467 33.6667C126.8 26.2 133.6 18.6 134.667 16.8667C135.733 15.1334 137.067 13.6667 137.467 13.6667C138 13.6667 138.533 19.6667 138.933 27C139.467 41.1334 141.2 45.5334 144 40.2C146.4 35.8 143.6 0.333344 140.8 0.333344C140 0.333344 136.533 3.80002 133.067 8.06668Z" fill="black"/>
</svg>
