<?xml version="1.0" standalone="no"?>
<!DOCTYPE svg PUBLIC "-//W3C//DTD SVG 20010904//EN"
 "http://www.w3.org/TR/2001/REC-SVG-20010904/DTD/svg10.dtd">
<svg version="1.0" xmlns="http://www.w3.org/2000/svg"
 width="540.000000pt" height="540.000000pt" viewBox="0 0 540.000000 540.000000"
 preserveAspectRatio="xMidYMid meet">

<g transform="translate(0.000000,540.000000) scale(0.100000,-0.100000)"
fill="#000000" stroke="none">
<path d="M2586 4312 c-3 -5 -12 -44 -21 -87 -32 -152 -62 -181 -220 -205 -44
-7 -86 -17 -92 -23 -21 -16 -15 -46 10 -52 12 -2 53 -12 91 -20 151 -34 181
-63 211 -206 18 -84 20 -89 44 -89 26 0 37 17 49 82 6 32 21 80 33 107 26 61
67 84 194 110 47 9 90 22 95 27 15 15 1 43 -24 49 -11 2 -57 11 -100 19 -135
26 -180 75 -201 221 -4 28 -12 56 -17 63 -12 14 -44 16 -52 4z"/>
<path d="M1826 3718 c-8 -13 -19 -62 -25 -110 -13 -99 -40 -183 -71 -226 -38
-51 -105 -79 -266 -111 -82 -17 -157 -33 -166 -36 -33 -13 -34 -67 -2 -79 8
-3 62 -13 120 -21 183 -28 280 -66 321 -128 26 -38 57 -153 68 -247 8 -77 26
-110 60 -110 36 0 52 33 70 143 38 236 91 286 354 333 139 24 165 35 169 66 4
37 -9 42 -183 73 -83 14 -168 35 -191 45 -86 42 -124 114 -149 283 -9 56 -22
112 -31 124 -19 30 -59 30 -78 1z"/>
<path d="M2861 3293 c-16 -13 -24 -36 -32 -88 -38 -272 -98 -488 -165 -597
-119 -193 -311 -271 -811 -333 -78 -10 -122 -20 -135 -31 -23 -22 -23 -69 1
-93 20 -20 31 -23 221 -47 187 -23 393 -75 496 -126 156 -76 256 -204 314
-408 19 -64 64 -285 85 -413 10 -63 64 -94 116 -66 27 14 36 41 54 162 50 324
113 499 221 616 121 131 311 198 685 241 181 21 199 27 213 77 5 14 0 29 -16
47 -21 24 -36 28 -178 46 -543 71 -722 168 -828 451 -36 97 -73 255 -98 418
-14 92 -21 119 -40 138 -28 28 -73 30 -103 6z"/>
</g>
</svg>
