<svg width="382" height="432" viewBox="0 0 382 432" fill="none" xmlns="http://www.w3.org/2000/svg">
<path d="M175.8 1.06666C175.4 1.73333 174.2 6.93333 173 12.6667C168.733 32.9333 164.733 36.8 143.667 40C137.8 40.9333 132.2 42.2667 131.4 43.0667C128.6 45.2 129.4 49.2 132.733 50C134.333 50.2667 139.8 51.6 144.867 52.6667C165 57.2 169 61.0667 173 80.1333C175.4 91.3333 175.667 92 178.867 92C182.333 92 183.8 89.7333 185.4 81.0667C186.2 76.8 188.2 70.4 189.8 66.8C193.267 58.6667 198.733 55.6 215.667 52.1333C221.933 50.9333 227.667 49.2 228.333 48.5333C230.333 46.5333 228.467 42.8 225.133 42C223.667 41.7333 217.533 40.5333 211.8 39.4667C193.8 36 187.8 29.4667 185 10C184.467 6.26666 183.4 2.53333 182.733 1.6C181.133 -0.266671 176.867 -0.533338 175.8 1.06666Z" fill="white"/>
<path d="M74.4667 80.2666C73.4 82 71.9333 88.5333 71.1333 94.9333C69.4 108.133 65.8 119.333 61.6667 125.067C56.6 131.867 47.6667 135.6 26.2 139.867C15.2667 142.133 5.26666 144.267 4.06666 144.667C-0.333337 146.4 -0.466671 153.6 3.8 155.2C4.86666 155.6 12.0667 156.933 19.8 158C44.2 161.733 57.1333 166.8 62.6 175.067C66.0667 180.133 70.2 195.467 71.6667 208C72.7333 218.267 75.1333 222.667 79.6667 222.667C84.4667 222.667 86.6 218.267 89 203.6C94.0667 172.133 101.133 165.467 136.2 159.2C154.733 156 158.2 154.533 158.733 150.4C159.267 145.467 157.533 144.8 134.333 140.667C123.267 138.8 111.933 136 108.867 134.667C97.4 129.067 92.3333 119.467 89 96.9333C87.8 89.4666 86.0667 82 84.8667 80.4C82.3333 76.4 77 76.4 74.4667 80.2666Z" fill="white"/>
<path d="M212.467 136.933C210.333 138.667 209.267 141.733 208.2 148.667C203.133 184.933 195.133 213.733 186.2 228.267C170.333 254 144.733 264.4 78.0667 272.667C67.6667 274 61.8 275.333 60.0667 276.8C57 279.733 57 286 60.2 289.2C62.8667 291.867 64.3333 292.267 89.6667 295.467C114.6 298.533 142.067 305.467 155.8 312.267C176.6 322.4 189.933 339.467 197.667 366.667C200.2 375.2 206.2 404.667 209 421.733C210.333 430.133 217.533 434.267 224.467 430.533C228.067 428.667 229.267 425.067 231.667 408.933C238.333 365.733 246.733 342.4 261.133 326.8C277.267 309.333 302.6 300.4 352.467 294.667C376.6 291.867 379 291.067 380.867 284.4C381.533 282.533 380.867 280.533 378.733 278.133C375.933 274.933 373.933 274.4 355 272C282.6 262.533 258.733 249.6 244.6 211.867C239.8 198.933 234.867 177.867 231.533 156.133C229.667 143.867 228.733 140.267 226.2 137.733C222.467 134 216.467 133.733 212.467 136.933Z" fill="white"/>
</svg>
