<?xml version="1.0" standalone="no"?>
<!DOCTYPE svg PUBLIC "-//W3C//DTD SVG 20010904//EN"
 "http://www.w3.org/TR/2001/REC-SVG-20010904/DTD/svg10.dtd">
<svg version="1.0" xmlns="http://www.w3.org/2000/svg"
 width="512.000000pt" height="640.000000pt" viewBox="0 0 512.000000 640.000000"
 preserveAspectRatio="xMidYMid meet">

<g transform="translate(0.000000,640.000000) scale(0.100000,-0.100000)"
fill="#000000" stroke="none">
<path d="M2341 5120 c2 -704 1 -1282 -2 -1284 -2 -2 -91 -9 -198 -16 -107 -6
-246 -17 -310 -25 l-116 -13 -27 29 c-44 48 -98 34 -102 -26 -1 -19 -8 -27
-26 -31 -171 -39 -260 -75 -301 -122 l-31 -35 5 -296 c6 -325 16 -402 78 -591
52 -156 108 -256 224 -400 38 -46 60 -80 49 -75 -107 46 -285 107 -340 116
-127 22 -245 -24 -304 -117 -60 -95 -49 -184 32 -271 66 -69 165 -119 357
-179 190 -60 240 -83 296 -135 82 -76 128 -200 137 -364 l3 -69 -50 -9 c-94
-15 -175 -47 -216 -86 l-39 -38 0 -541 0 -542 35 0 35 0 0 451 c0 426 1 451
18 444 9 -4 60 -18 112 -30 367 -91 1039 -97 1430 -13 52 11 110 26 128 33
l32 14 0 -450 0 -449 34 0 33 0 8 469 c8 523 5 580 -32 630 -30 39 -118 83
-215 107 l-66 16 14 40 c32 92 141 214 261 294 116 77 219 104 473 124 248 20
353 53 441 139 60 59 79 101 79 176 -1 113 -106 214 -224 215 l-49 0 70 50
c74 51 95 75 133 150 34 65 34 159 0 220 -50 89 -181 124 -311 83 -30 -9 -109
-54 -177 -101 -68 -45 -122 -79 -120 -75 43 92 63 142 83 210 28 96 55 222 55
258 0 23 4 25 43 25 106 0 213 35 270 89 43 39 57 74 57 136 0 130 -92 208
-262 222 l-68 6 0 52 c0 100 -63 150 -253 199 -161 42 -374 68 -740 92 l-99 6
7 276 c7 321 35 2063 35 2200 l0 92 -196 0 -196 0 3 -1280z m-4 -1434 c-8
-111 -36 -156 -99 -156 -50 0 -95 19 -174 75 -82 57 -106 63 -133 36 -33 -33
-25 -76 23 -130 l21 -24 -40 8 c-22 4 -78 22 -125 42 -147 60 -251 51 -274
-22 -6 -16 -11 -32 -12 -34 -5 -6 -160 49 -194 70 l-34 21 27 24 c28 24 141
64 242 85 l60 12 57 -37 c74 -47 98 -48 63 -2 -31 42 -20 53 63 65 76 10 306
29 432 34 36 2 74 4 84 5 17 2 18 -4 13 -72z m768 44 c231 -23 432 -65 533
-111 68 -30 76 -47 36 -74 -24 -16 -157 -65 -176 -65 -4 0 -5 13 -2 30 9 45
-3 78 -36 95 -44 23 -91 18 -208 -20 -58 -20 -123 -38 -144 -41 l-38 -7 40 41
c42 42 50 71 25 92 -26 21 -58 14 -156 -34 -154 -76 -246 -83 -269 -21 -6 15
-10 52 -10 83 l0 57 147 -7 c82 -4 198 -12 258 -18z m-1632 -315 c113 -30 409
-79 617 -102 222 -25 788 -25 985 0 239 30 438 79 583 143 58 25 59 24 46 -44
-6 -28 -15 -35 -83 -63 -510 -212 -1745 -206 -2248 12 l-73 32 0 44 0 43 40
-20 c22 -11 82 -32 133 -45z m2422 -9 c115 -30 159 -76 152 -159 -5 -56 -32
-91 -93 -118 -43 -20 -178 -44 -193 -35 -4 3 -6 20 -2 38 7 33 7 33 78 39 79
6 119 26 129 64 17 67 -30 110 -133 121 -34 3 -63 9 -63 13 0 3 3 16 6 29 7
26 42 29 119 8z m-2530 -111 c127 -57 404 -117 670 -145 164 -18 623 -24 806
-11 359 26 652 84 842 166 17 7 18 2 12 -71 -19 -235 -68 -475 -124 -598 -78
-171 -249 -376 -386 -461 -177 -110 -456 -185 -686 -185 -279 0 -536 58 -679
154 -256 171 -436 462 -495 801 -16 90 -33 375 -23 375 3 0 31 -11 63 -25z
m2504 -8 c71 -25 36 -57 -61 -57 -42 0 -49 3 -44 16 3 9 6 24 6 35 0 15 7 19
33 18 17 0 47 -5 66 -12z m244 -653 c34 -25 52 -69 50 -120 -4 -106 -66 -172
-258 -272 -151 -79 -168 -82 -440 -97 -60 -3 -132 -8 -160 -11 l-50 -5 45 38
c64 55 127 120 172 180 28 37 61 64 111 92 40 21 106 63 147 93 156 112 197
129 291 124 45 -2 75 -9 92 -22z m-2852 -358 c81 -17 259 -88 494 -196 327
-151 505 -201 716 -204 65 0 118 -4 116 -7 -1 -4 -42 -38 -92 -76 -93 -72
-199 -179 -217 -219 -13 -27 -4 -54 17 -54 8 0 45 31 81 69 165 175 417 339
633 411 129 43 221 58 486 76 127 8 294 26 372 40 179 30 220 31 264 1 99 -66
105 -176 14 -256 -73 -64 -179 -93 -400 -111 -165 -13 -287 -33 -361 -61 -135
-51 -327 -215 -391 -335 -45 -84 -63 -166 -70 -321 l-6 -132 -96 -18 c-178
-33 -836 -22 -948 17 l-30 11 -6 227 c-6 256 -18 328 -71 437 -70 142 -167
206 -426 279 -205 58 -348 152 -364 240 -14 75 57 165 146 186 49 12 66 11
139 -4z"/>
<path d="M3493 4005 c-18 -12 -83 -114 -83 -130 0 -18 94 19 133 53 23 21 22
69 -2 82 -25 13 -23 13 -48 -5z"/>
</g>
</svg>
