<?xml version="1.0" standalone="no"?>
<!DOCTYPE svg PUBLIC "-//W3C//DTD SVG 20010904//EN"
 "http://www.w3.org/TR/2001/REC-SVG-20010904/DTD/svg10.dtd">
<svg version="1.0" xmlns="http://www.w3.org/2000/svg"
 width="980.000000pt" height="980.000000pt" viewBox="0 0 980.000000 980.000000"
 preserveAspectRatio="xMidYMid meet">

<g transform="translate(0.000000,980.000000) scale(0.100000,-0.100000)"
fill="#000000" stroke="none">
<path d="M6715 7825 c-525 -44 -1219 -115 -1710 -175 -88 -11 -236 -29 -330
-40 -93 -10 -303 -35 -465 -54 -828 -99 -1593 -177 -1998 -205 -219 -15 -262
-50 -262 -209 0 -169 218 -2516 315 -3392 85 -765 178 -1553 195 -1647 12 -68
32 -98 81 -117 160 -64 917 -40 1859 59 739 78 1640 200 2015 271 225 43 251
58 482 285 87 84 246 235 353 334 309 287 540 555 576 667 28 90 30 350 5 648
-53 624 -209 1932 -390 3263 -34 248 -43 271 -119 309 -41 20 -63 23 -182 25
-74 1 -265 -9 -425 -22z m552 -147 c15 -16 21 -53 93 -583 148 -1101 265
-2126 335 -2950 8 -99 18 -208 21 -242 8 -89 -11 -123 -84 -156 -83 -37 -183
-63 -339 -87 -357 -54 -410 -63 -482 -81 -153 -40 -232 -78 -303 -147 -74 -72
-91 -122 -90 -272 1 -70 12 -207 26 -310 39 -295 41 -314 21 -343 -33 -51 -66
-57 -765 -156 -1273 -180 -1870 -235 -2665 -247 -330 -5 -393 -4 -409 8 -11 9
-22 35 -27 69 -21 131 -102 814 -149 1254 -28 264 -66 620 -86 790 -19 171
-39 366 -45 435 -5 69 -27 289 -49 490 -22 201 -53 489 -69 640 -61 556 -98
985 -108 1236 l-6 161 109 7 c151 10 449 34 569 46 222 24 1296 145 1860 210
1221 141 1661 185 2355 235 214 15 266 14 287 -7z m403 -4084 c0 -9 -63 -94
-70 -94 -3 0 -23 18 -44 39 l-38 39 48 7 c27 3 56 8 64 9 27 6 40 6 40 0z
m-158 -78 c20 -23 37 -48 38 -57 0 -8 -16 -30 -35 -49 -30 -29 -37 -32 -48
-20 -61 67 -129 151 -126 154 10 9 96 23 114 18 11 -3 37 -23 57 -46z m-206
-23 c15 -21 53 -64 83 -96 l55 -58 -54 -54 c-30 -31 -58 -54 -61 -53 -4 2 -59
63 -123 135 -106 120 -114 133 -94 138 148 34 159 34 194 -12z m-211 -91 c33
-42 90 -109 127 -148 l68 -70 -66 -65 -65 -64 -81 90 c-45 50 -125 132 -177
182 -60 59 -92 96 -86 102 12 11 159 49 195 50 20 1 38 -16 85 -77z m-294 -49
c31 -32 90 -98 131 -148 41 -49 99 -112 128 -139 l52 -49 -59 -59 c-38 -38
-64 -57 -74 -53 -7 4 -50 47 -94 97 -44 50 -129 142 -189 204 -67 71 -106 119
-103 128 5 14 121 75 142 76 6 0 36 -26 66 -57z m-156 -188 c38 -49 120 -141
183 -202 128 -126 125 -113 41 -184 l-47 -40 -96 97 c-139 138 -141 142 -155
256 -13 115 -14 186 -3 173 5 -6 40 -50 77 -100z m60 -402 l69 -74 -57 -57
c-35 -35 -60 -53 -65 -47 -5 6 -17 60 -26 120 -10 61 -20 121 -23 133 -5 22
-4 23 13 11 11 -7 50 -46 89 -86z"/>
<path d="M2935 7074 c-294 -21 -605 -53 -627 -65 -12 -6 -18 -19 -16 -32 4
-32 46 -32 303 -2 121 14 279 32 350 40 287 32 334 42 319 66 -7 12 -95 10
-329 -7z"/>
<path d="M5862 7010 c-336 -47 -667 -231 -869 -483 -32 -40 -65 -84 -74 -97
l-16 -25 -64 56 c-201 177 -454 305 -689 350 -88 16 -308 17 -400 0 -106 -19
-233 -62 -336 -114 -253 -128 -472 -353 -609 -627 -297 -594 -186 -1321 293
-1920 294 -366 725 -698 1237 -950 348 -171 562 -243 730 -243 146 -1 256 40
455 169 179 115 445 304 532 375 366 303 721 798 908 1269 268 673 247 1290
-60 1749 -176 262 -394 419 -664 477 -86 19 -287 26 -374 14z m363 -159 c327
-81 578 -313 698 -647 58 -160 72 -260 72 -499 0 -346 -53 -615 -186 -953
-139 -350 -389 -715 -695 -1012 -259 -251 -499 -423 -810 -582 -128 -65 -147
-71 -200 -71 -65 0 -170 29 -354 98 -497 187 -899 440 -1269 800 -245 238
-415 461 -534 700 -80 162 -114 261 -154 445 -25 119 -25 401 0 519 60 276
173 494 355 678 184 189 384 299 631 348 66 14 116 16 235 12 183 -6 264 -26
422 -101 184 -88 289 -168 371 -283 72 -101 115 -99 183 8 186 293 508 505
846 559 90 14 296 4 389 -19z"/>
<path d="M6042 6741 c-8 -4 -12 -18 -10 -31 2 -18 20 -28 97 -56 183 -65 351
-180 441 -302 28 -37 69 -112 94 -167 37 -84 47 -100 66 -100 95 0 -40 309
-201 460 -105 99 -224 164 -345 190 -78 17 -123 19 -142 6z"/>
<path d="M5212 6134 c-96 -48 -146 -131 -146 -244 -1 -64 3 -82 26 -121 67
-115 246 -135 380 -43 51 35 90 95 86 131 -5 48 -39 42 -107 -21 -84 -77 -155
-95 -221 -54 l-35 21 55 11 c105 22 204 91 230 162 15 39 12 97 -6 123 -44 62
-173 80 -262 35z m171 -82 c23 -21 21 -44 -7 -75 -36 -39 -99 -67 -151 -67
-53 0 -62 13 -46 63 29 88 144 132 204 79z"/>
<path d="M4816 6074 c-13 -12 -16 -40 -16 -143 0 -112 -3 -132 -22 -171 -29
-55 -50 -69 -72 -48 -17 18 -22 29 -67 152 -16 44 -37 88 -46 98 -39 43 -95 5
-107 -74 -11 -69 -37 -171 -53 -200 -29 -59 -70 -15 -98 106 -42 177 -67 221
-114 197 -61 -33 -35 -224 47 -344 40 -57 82 -88 131 -94 32 -4 43 0 75 27 20
18 47 53 59 76 l22 44 35 -47 c43 -58 89 -86 142 -86 107 0 177 143 178 363 0
77 -4 101 -20 128 -22 35 -49 41 -74 16z"/>
<path d="M5323 5448 c-16 -21 -33 -79 -93 -323 l-57 -230 -51 107 c-59 126
-110 206 -134 214 -9 3 -26 0 -38 -6 -44 -24 -30 -61 162 -417 78 -147 141
-98 188 147 11 63 27 147 35 185 52 270 57 305 45 320 -15 18 -44 19 -57 3z"/>
<path d="M5687 5360 c-139 -35 -222 -147 -221 -300 0 -74 19 -117 71 -168 83
-82 226 -103 335 -49 92 45 167 144 141 186 -20 31 -44 24 -95 -29 -27 -28
-64 -58 -83 -66 -52 -21 -125 -18 -175 9 -50 26 -62 47 -28 47 32 1 131 42
166 71 73 59 108 162 79 231 -25 59 -107 88 -190 68z m96 -107 c12 -7 8 -33
-10 -63 -23 -40 -101 -80 -153 -80 -42 0 -42 0 -36 31 17 89 130 152 199 112z"/>
<path d="M4026 5324 c-21 -20 -20 -62 4 -241 11 -81 28 -221 39 -310 11 -89
27 -176 36 -192 25 -50 67 -66 172 -66 77 0 96 3 120 21 31 23 41 57 23 80 -9
10 -38 14 -116 14 -66 0 -105 4 -110 11 -4 7 -15 80 -25 163 -10 83 -25 212
-34 286 -25 218 -57 286 -109 234z"/>
<path d="M2940 5155 c-5 -14 -10 -40 -10 -56 0 -90 74 -300 148 -424 188 -312
474 -625 571 -625 44 0 21 33 -144 210 -252 269 -399 504 -490 784 -23 72 -47
132 -53 134 -7 2 -16 -8 -22 -23z"/>
<path d="M4553 5135 c-93 -47 -146 -136 -146 -245 -1 -70 25 -145 66 -189 27
-29 113 -71 148 -71 51 0 130 31 170 67 65 59 84 104 84 203 0 73 -4 93 -28
143 -39 79 -87 110 -176 115 -56 3 -74 -1 -118 -23z m155 -95 c38 -24 72 -89
72 -140 0 -48 -32 -113 -68 -138 -43 -31 -111 -30 -150 3 -39 33 -56 98 -42
162 14 60 32 89 73 113 41 25 74 25 115 0z"/>
<path d="M5810 4426 c-6 -18 -5 -38 7 -71 10 -31 14 -70 11 -119 -4 -85 -29
-132 -90 -166 -44 -25 -69 -17 -93 30 -18 34 -34 146 -35 232 0 50 -3 60 -26
74 -24 16 -27 16 -52 -3 -35 -26 -45 -70 -40 -173 5 -97 30 -165 81 -219 80
-84 177 -80 266 9 33 33 57 69 71 107 46 121 8 313 -63 321 -21 3 -29 -2 -37
-22z"/>
<path d="M5024 4344 c-33 -8 -102 -72 -124 -114 -32 -63 -41 -121 -29 -186 26
-141 100 -214 216 -214 141 0 262 118 263 256 0 157 -84 252 -232 259 -40 2
-83 1 -94 -1z m143 -111 c69 -32 91 -139 48 -224 -32 -60 -123 -89 -173 -53
-70 49 -79 196 -15 256 46 42 84 48 140 21z"/>
<path d="M4308 4229 c-52 -30 -48 -262 6 -341 69 -102 194 -105 301 -7 l43 40
17 -72 c23 -103 30 -222 16 -257 -32 -77 -160 -67 -218 17 -34 49 -58 59 -84
35 -43 -39 -12 -122 69 -178 82 -58 216 -44 280 29 47 52 57 96 56 230 -1 109
-5 136 -48 300 -47 179 -63 215 -98 215 -40 0 -58 -35 -58 -114 0 -124 -52
-206 -132 -206 -55 0 -78 56 -78 190 0 112 -22 148 -72 119z"/>
<path d="M5880 2634 c-265 -26 -418 -45 -600 -75 -235 -38 -262 -45 -258 -67
5 -28 78 -26 320 8 309 43 709 110 732 122 15 8 16 12 5 19 -17 10 -26 10
-199 -7z"/>
</g>
</svg>
