<?xml version="1.0" standalone="no"?>
<!DOCTYPE svg PUBLIC "-//W3C//DTD SVG 20010904//EN"
 "http://www.w3.org/TR/2001/REC-SVG-20010904/DTD/svg10.dtd">
<svg version="1.0" xmlns="http://www.w3.org/2000/svg"
 width="457.000000pt" height="465.000000pt" viewBox="0 0 457.000000 465.000000"
 preserveAspectRatio="xMidYMid meet">

<g transform="translate(0.000000,465.000000) scale(0.100000,-0.100000)"
fill="#000000" stroke="none">
<path d="M2177 4249 c-130 -31 -247 -155 -247 -262 0 -39 29 -106 51 -118 23
-12 44 -52 53 -101 7 -38 12 -42 53 -38 13 1 38 -14 63 -36 39 -36 42 -37 79
-25 49 14 61 14 61 -1 -1 -7 -24 -24 -53 -37 -133 -63 -409 -276 -601 -464
l-99 -97 -485 -12 c-369 -9 -489 -9 -503 0 -10 7 -25 12 -33 12 -16 0 -66 69
-66 92 0 8 -7 21 -15 28 -12 10 -24 3 -71 -42 -32 -30 -54 -60 -50 -66 3 -6
20 -13 37 -17 32 -7 89 -74 89 -105 0 -9 4 -20 9 -25 6 -6 15 -111 21 -235 10
-204 35 -524 75 -970 8 -91 37 -424 65 -740 27 -316 53 -595 58 -620 l7 -45
175 3 c712 11 1659 33 2584 62 347 11 674 20 728 20 112 0 115 2 98 71 -5 24
-21 292 -35 594 -14 303 -39 804 -55 1114 -30 573 -35 731 -24 815 6 40 12 49
44 67 124 70 68 209 -84 209 -58 0 -104 -36 -112 -89 l-6 -38 -121 -7 c-66 -3
-153 -6 -193 -6 l-73 0 18 43 c28 64 34 143 17 224 -23 110 -60 178 -146 263
-88 89 -180 139 -310 169 -99 24 -300 45 -347 38 -29 -5 -34 -2 -58 39 -34 58
-84 90 -170 110 -147 33 -165 45 -243 158 -47 69 -96 86 -185 65z m178 -246
c13 -13 16 -27 11 -59 -6 -46 -12 -37 129 -161 30 -26 35 -36 30 -55 -17 -56
-88 -98 -164 -98 -26 0 -31 4 -31 24 0 23 -23 56 -38 56 -4 -1 -18 -7 -32 -15
-38 -22 -55 -18 -96 20 -30 29 -43 35 -65 30 -31 -7 -49 15 -49 59 0 17 -16
42 -50 76 -49 50 -69 99 -33 86 9 -4 37 -11 62 -17 83 -19 240 11 268 50 17
25 36 27 58 4z m660 -163 c115 -13 220 -42 315 -87 165 -79 289 -272 290 -451
0 -127 -70 -200 -250 -257 -119 -38 -207 -39 -282 -2 -66 32 -91 66 -92 123
-2 79 46 106 215 123 83 9 97 13 117 37 62 71 -43 159 -204 171 -60 5 -74 3
-74 -9 0 -8 4 -18 9 -23 10 -12 64 -146 59 -150 -2 -1 -24 -9 -49 -17 -40 -14
-53 -14 -100 -2 -29 8 -64 14 -77 14 -28 0 -198 -57 -228 -77 -22 -14 -41 -85
-25 -91 5 -2 7 -11 4 -21 -4 -17 -20 -19 -159 -23 l-155 -5 -34 34 c-41 41
-87 44 -160 9 -96 -44 -357 -256 -601 -486 -89 -84 -127 -99 -191 -75 -45 18
-83 62 -83 98 0 50 123 202 324 402 199 197 516 452 644 516 56 29 66 31 100
21 69 -20 167 14 203 71 19 31 21 71 5 108 -6 14 9 19 106 33 62 10 120 19
128 21 35 7 161 4 245 -5z m220 -389 c46 -21 85 -56 85 -75 0 -35 -35 -57 -96
-63 l-61 -6 -23 49 c-13 27 -34 67 -48 88 l-24 39 63 -7 c35 -4 82 -16 104
-25z m-248 -179 c10 -6 8 -17 -7 -47 -11 -22 -20 -54 -20 -72 l0 -33 -134 0
c-74 0 -141 -3 -150 -6 -9 -3 -16 -1 -16 5 0 10 14 14 120 39 39 10 34 10 -45
6 -82 -4 -88 -3 -65 10 14 8 53 20 88 27 34 7 62 16 62 21 0 11 -14 10 -90 -6
-36 -8 -67 -12 -69 -10 -9 8 95 45 146 50 35 5 50 10 41 15 -8 5 15 9 57 9 39
0 76 -4 82 -8z m1193 -30 c36 -22 49 -43 50 -75 0 -39 -15 -64 -50 -82 -76
-39 -165 5 -165 83 0 86 85 124 165 74z m-3709 -151 c18 -23 38 -41 46 -41 23
0 14 -25 -20 -58 l-34 -33 -11 27 c-27 58 -63 94 -95 94 l-31 0 49 50 c49 50
50 50 56 26 4 -13 22 -43 40 -65z m1787 39 c51 -31 40 -40 -50 -40 -46 0 -94
-3 -108 -6 -25 -5 -25 -5 -5 11 25 21 95 55 115 55 8 0 30 -9 48 -20z m1762
-150 c30 -21 46 -66 35 -100 -9 -29 -61 -53 -98 -46 -41 8 -77 43 -77 76 0 25
23 67 44 82 20 14 68 8 96 -12z m-3447 -41 c53 -68 42 -80 -17 -20 -26 27 -45
54 -42 60 11 18 19 13 59 -40z m2342 -45 c14 -29 14 -38 3 -61 -7 -15 -25 -32
-39 -37 -76 -26 -147 52 -102 112 39 52 110 45 138 -14z m1205 -191 c6 -245
34 -921 50 -1188 20 -354 42 -1045 33 -1055 -3 -3 -941 -39 -949 -36 -1 1 -9
75 -19 166 -9 91 -23 199 -30 240 -24 129 -63 421 -70 520 -10 166 -110 1247
-119 1302 -4 18 0 28 10 32 9 3 111 7 227 7 117 1 325 5 462 9 138 3 285 7
328 8 42 1 77 -1 77 -5z m-1126 -60 c3 -21 8 -69 11 -108 6 -79 25 -303 55
-630 11 -121 36 -398 55 -615 19 -217 40 -426 45 -465 5 -38 16 -115 24 -170
8 -55 17 -130 20 -167 l7 -68 -43 0 c-24 0 -331 -9 -683 -20 -352 -11 -795
-24 -985 -30 -388 -12 -742 -28 -781 -36 -26 -5 -26 -4 -32 72 -4 42 -7 107
-7 144 0 36 -7 136 -15 221 -8 85 -26 276 -40 424 -14 149 -41 428 -60 620
-40 408 -75 781 -75 805 0 15 31 17 347 23 191 4 348 5 350 3 2 -1 -11 -20
-28 -42 -18 -21 -52 -69 -76 -106 -44 -68 -44 -68 -91 -69 -26 0 -114 -8 -197
-18 -122 -13 -149 -19 -146 -31 2 -8 7 -131 10 -272 3 -141 9 -260 13 -263 6
-6 349 44 426 62 l22 5 0 -158 0 -159 297 0 c164 0 317 -4 340 -8 36 -7 44 -6
50 9 3 9 -13 105 -35 213 -35 162 -62 331 -62 388 0 9 -35 11 -137 7 -76 -3
-163 -2 -193 3 -54 8 -54 8 -65 53 -11 40 -9 50 10 90 12 25 32 76 45 113 21
66 24 69 79 96 31 16 76 45 100 65 l43 36 109 0 109 0 0 -27 c0 -77 117 -1576
125 -1608 3 -11 10 -108 15 -215 12 -238 19 -310 33 -310 13 0 2 349 -18 555
-8 83 -21 236 -30 340 -8 105 -35 430 -60 724 -25 293 -44 535 -42 538 5 4
641 19 944 21 l211 2 6 -37z m-1744 -6 c0 -20 61 -75 96 -87 l31 -11 -31 -77
c-40 -98 -59 -132 -85 -156 -26 -24 -26 -20 0 38 20 46 20 76 0 76 -8 0 -82
-91 -148 -179 -2 -2 -5 -2 -8 1 -2 2 18 40 45 83 86 136 58 160 -41 35 -34
-44 -65 -78 -67 -75 -2 2 21 45 52 95 31 49 52 90 47 90 -5 0 -31 -34 -60 -76
-41 -60 -51 -71 -51 -51 0 38 48 117 130 217 74 89 90 103 90 77z m-236 -306
c-3 -94 6 -105 51 -61 20 19 50 57 67 83 17 26 33 46 35 43 2 -2 -16 -34 -41
-71 -45 -65 -59 -115 -33 -115 19 0 50 31 103 105 25 36 48 64 50 62 2 -2 -3
-21 -11 -42 -20 -47 -13 -69 20 -63 16 4 25 1 25 -7 0 -7 20 -74 44 -149 24
-74 41 -138 38 -141 -3 -3 -28 -5 -56 -5 -119 0 -381 -41 -524 -82 -40 -12
-74 -19 -76 -17 -2 2 -9 99 -15 214 -6 116 -14 227 -17 247 -6 35 -5 37 27 42
19 4 90 10 159 15 69 4 132 9 140 10 13 1 16 -11 14 -68z m486 -457 l20 -46
35 22 c40 24 78 23 83 -2 2 -10 -2 -18 -10 -18 -7 0 -37 -10 -67 -22 l-53 -23
-28 33 -27 33 -32 -55 c-24 -44 -36 -56 -56 -56 -20 0 -26 8 -38 48 l-13 47
-22 -40 c-25 -48 -27 -44 -7 22 8 28 22 53 30 57 18 7 45 -19 45 -45 0 -29 16
-23 30 11 37 90 81 103 110 34z"/>
<path d="M2832 2866 l-31 -43 25 -12 c31 -14 77 4 82 32 4 19 -23 67 -37 67
-4 0 -22 -20 -39 -44z"/>
<path d="M3750 2519 c-58 -4 -209 -5 -336 -2 -175 4 -236 3 -254 -7 -22 -12
-23 -14 -16 -119 7 -126 19 -181 42 -198 28 -21 122 -28 349 -27 218 1 458 23
480 45 9 9 -8 247 -21 297 -6 20 -12 22 -73 20 -36 0 -113 -5 -171 -9z"/>
<path d="M3800 2113 c-25 -2 -106 -10 -180 -18 -74 -8 -193 -17 -263 -21 -174
-9 -173 -8 -169 -150 1 -59 7 -113 13 -120 6 -7 30 -16 53 -19 42 -7 67 -4
326 35 74 11 200 23 278 27 162 7 177 13 192 78 14 58 12 169 -2 183 -11 11
-130 14 -248 5z m224 -103 c-1 -130 7 -124 -191 -138 -92 -7 -237 -23 -321
-37 -84 -14 -185 -25 -226 -25 l-74 0 -7 97 c-7 91 -6 98 14 114 14 11 48 19
99 24 42 3 167 15 277 25 263 26 278 27 360 26 l70 -1 -1 -85z"/>
<path d="M3665 1635 c-468 -39 -471 -39 -461 -78 15 -65 37 -253 46 -406 5
-96 12 -176 14 -178 6 -6 721 39 727 46 4 3 -4 83 -17 176 -13 94 -27 233 -31
310 l-8 140 -55 2 c-30 0 -127 -5 -215 -12z m248 -147 c3 -73 16 -202 27 -287
11 -84 19 -155 18 -156 -2 -2 -122 -10 -268 -19 -146 -9 -293 -19 -326 -23
l-61 -6 -6 34 c-18 103 -69 530 -64 535 12 13 430 49 613 53 l61 1 6 -132z"/>
<path d="M3392 1474 c-20 -13 -57 -103 -47 -112 3 -3 11 11 20 30 34 82 58 81
101 -4 13 -26 28 -48 33 -48 4 0 24 18 44 40 40 45 54 48 90 20 29 -23 47 -26
47 -7 0 13 31 47 42 47 4 0 16 -16 28 -35 26 -43 42 -44 69 -6 33 47 20 71
-19 36 -16 -14 -19 -13 -34 10 -19 29 -66 34 -86 10 -9 -11 -25 -13 -64 -9
-49 6 -54 4 -83 -24 l-31 -31 -27 44 c-31 49 -54 59 -83 39z"/>
<path d="M3571 1208 c-12 -12 -21 -25 -21 -30 0 -14 -37 -9 -50 7 -17 20 -96
31 -115 15 -18 -15 -14 -22 28 -52 l32 -23 -18 28 -17 27 28 0 c16 0 41 -9 56
-21 31 -24 59 -19 82 17 15 22 18 22 37 9 24 -17 84 -20 107 -5 11 7 3 10 -28
10 -28 0 -54 7 -72 20 l-29 20 -20 -22z"/>
<path d="M2490 2488 c-73 -6 -130 -15 -138 -22 -14 -14 -3 -206 24 -406 19
-143 22 -157 40 -164 26 -10 409 13 494 29 124 24 123 23 89 92 -34 69 -97
310 -107 408 l-7 70 -135 1 c-74 1 -191 -3 -260 -8z m377 -68 c5 -124 49 -324
89 -403 l24 -48 -23 -8 c-49 -18 -166 -32 -344 -40 -104 -5 -189 -8 -190 -7
-4 3 -52 364 -58 431 -4 39 -8 80 -11 93 -4 22 -3 22 98 23 57 1 141 4 188 9
47 4 117 7 155 6 l70 -1 2 -55z"/>
<path d="M2553 2315 l-17 -35 -12 30 c-19 44 -51 41 -60 -6 -3 -19 -2 -45 4
-57 10 -20 11 -20 11 11 2 73 31 13 31 -64 0 -62 39 -52 41 11 0 17 6 46 13
65 l13 35 18 -43 c15 -37 21 -43 44 -40 18 2 32 14 46 40 13 25 27 38 40 38
23 0 65 26 65 41 0 10 -69 12 -95 3 -9 -4 -25 -25 -37 -48 l-21 -41 -18 39
c-26 58 -45 65 -66 21z"/>
<path d="M2735 1765 c-184 -18 -456 -35 -568 -35 -130 0 -131 -1 -125 -140 5
-101 17 -145 42 -162 19 -13 146 -9 398 13 134 12 304 22 378 23 l135 1 13 28
c12 24 11 46 -3 145 -9 64 -22 123 -27 130 -13 15 -68 14 -243 -3z m-292 -140
l24 -35 21 25 c25 29 54 31 105 10 34 -14 39 -14 83 10 61 32 154 36 154 6 0
-23 -19 -31 -75 -31 -27 0 -58 -8 -80 -22 l-37 -21 -50 21 c-56 24 -76 20 -84
-14 -7 -28 -26 -45 -40 -36 -5 4 -21 23 -34 42 -13 19 -25 36 -26 38 -1 2 -11
-3 -23 -10 -17 -10 -20 -19 -15 -44 7 -38 -15 -64 -56 -64 -38 0 -46 26 -20
62 26 35 25 42 -5 58 -14 7 -23 15 -21 17 2 3 18 -3 35 -11 29 -15 31 -15 58
9 38 33 58 31 86 -10z m-273 -49 c0 -25 -15 -37 -37 -28 -14 4 -18 34 -6 45 3
4 15 7 25 7 12 0 18 -7 18 -24z"/>
<path d="M2322 1558 c-16 -16 -15 -28 3 -28 8 0 15 9 15 20 0 23 -2 24 -18 8z"/>
<path d="M1350 1404 c-118 -13 -301 -28 -407 -32 -247 -9 -235 0 -204 -159 33
-168 20 -157 165 -150 66 4 234 20 371 36 138 17 299 33 359 37 144 9 151 16
142 123 -10 110 -21 146 -51 159 -36 17 -128 13 -375 -14z"/>
<path d="M2124 1125 c-15 -37 89 -460 117 -478 12 -7 68 9 220 63 112 41 208
77 213 81 5 4 -11 30 -35 58 -54 62 -103 141 -134 218 -22 53 -27 59 -62 65
-21 4 -100 7 -176 7 -114 1 -139 -2 -143 -14z m292 -11 l51 -6 12 -49 c15 -58
73 -149 130 -204 22 -21 41 -42 41 -46 0 -11 -369 -132 -383 -126 -14 5 -127
376 -127 415 0 21 3 22 113 22 61 0 135 -3 163 -6z"/>
<path d="M1521 984 c-117 -12 -320 -30 -450 -39 -130 -9 -254 -21 -275 -26
l-39 -11 6 -82 c3 -45 11 -113 17 -150 19 -105 14 -104 277 -67 196 27 472 59
670 77 40 4 78 12 83 20 8 9 8 52 0 150 -6 75 -13 141 -16 145 -7 12 -21 11
-273 -17z"/>
<path d="M907 2233 c-3 -5 -10 -35 -17 -68 -17 -84 -23 -92 -44 -61 -21 33
-50 33 -81 0 -26 -28 -34 -87 -14 -100 15 -9 25 10 33 57 8 50 21 56 43 19 13
-23 24 -30 43 -28 20 2 28 12 40 48 19 58 18 57 36 32 8 -12 24 -22 35 -22 28
0 179 73 175 85 -6 21 -45 15 -110 -19 l-67 -35 -13 32 c-7 18 -16 40 -19 50
-6 17 -32 23 -40 10z"/>
</g>
</svg>
