<?xml version="1.0" standalone="no"?>
<!DOCTYPE svg PUBLIC "-//W3C//DTD SVG 20010904//EN"
 "http://www.w3.org/TR/2001/REC-SVG-20010904/DTD/svg10.dtd">
<svg version="1.0" xmlns="http://www.w3.org/2000/svg"
 width="736.000000pt" height="736.000000pt" viewBox="0 0 736.000000 736.000000"
 preserveAspectRatio="xMidYMid meet">

<g transform="translate(0.000000,736.000000) scale(0.100000,-0.100000)"
fill="#000000" stroke="none">
<path d="M4426 5004 c-202 -44 -423 -170 -618 -353 -81 -77 -178 -192 -207
-248 -6 -13 -15 -23 -19 -23 -4 0 -36 28 -72 61 -124 118 -226 186 -340 225
-84 29 -297 27 -404 -4 -218 -63 -393 -215 -464 -403 -107 -287 -45 -656 163
-976 161 -246 319 -423 555 -622 237 -199 693 -534 785 -577 95 -43 109 -42
210 22 120 76 159 106 277 216 152 140 248 242 332 353 248 325 274 363 360
526 61 117 157 338 206 474 143 402 111 804 -86 1081 -151 214 -405 306 -678
248z m-173 -1063 c-7 -73 9 -122 56 -174 45 -50 85 -67 157 -67 43 0 68 6 100
25 l42 25 7 -39 c13 -81 -28 -215 -89 -288 -34 -40 -116 -83 -174 -90 -112
-13 -228 57 -287 174 -28 54 -30 66 -30 168 0 96 3 116 24 155 38 74 69 109
124 140 73 42 76 40 70 -29z m-1093 -164 c0 -167 217 -303 357 -223 23 13 44
21 47 18 3 -3 6 -31 6 -62 0 -188 -126 -332 -290 -333 -118 -1 -206 60 -263
181 -57 123 -44 274 34 376 32 41 85 86 101 86 5 0 8 -19 8 -43z"/>
</g>
</svg>
