<?xml version="1.0" standalone="no"?>
<!DOCTYPE svg PUBLIC "-//W3C//DTD SVG 20010904//EN"
 "http://www.w3.org/TR/2001/REC-SVG-20010904/DTD/svg10.dtd">
<svg version="1.0" xmlns="http://www.w3.org/2000/svg"
 width="1024.000000pt" height="1024.000000pt" viewBox="0 0 1024.000000 1024.000000"
 preserveAspectRatio="xMidYMid meet">

<g transform="translate(0.000000,1024.000000) scale(0.100000,-0.100000)"
fill="#000000" stroke="none">
<path d="M4820 8694 c-356 -47 -664 -193 -916 -431 -34 -32 -80 -84 -104 -115
-23 -32 -48 -58 -55 -58 -21 0 -80 75 -120 151 -46 87 -72 106 -123 90 -20 -6
-46 -19 -57 -29 -33 -28 -85 -92 -85 -103 0 -6 38 -28 85 -50 47 -21 85 -41
85 -43 0 -5 -119 20 -152 33 -34 13 -37 9 -28 -40 11 -62 18 -65 110 -50 118
20 113 5 -9 -29 l-45 -12 25 -18 c28 -22 93 -40 143 -40 20 0 36 -2 36 -3 0
-2 -24 -28 -52 -58 -48 -49 -94 -107 -156 -196 -39 -57 -132 -254 -163 -347
-42 -126 -59 -214 -59 -306 0 -228 101 -363 323 -435 l67 -22 3 -109 c8 -254
83 -400 252 -487 55 -28 68 -31 160 -30 85 0 108 4 157 26 32 14 74 38 95 54
53 40 118 133 133 189 16 62 32 74 95 74 81 0 106 -14 135 -73 14 -29 54 -82
90 -119 59 -59 74 -69 139 -88 107 -33 239 -25 336 19 84 38 137 87 175 161
29 58 36 90 45 205 3 39 10 71 15 73 5 2 36 21 68 42 l59 38 16 -34 c9 -18 28
-41 42 -50 22 -14 30 -15 56 -3 43 17 55 50 93 249 19 98 25 122 38 142 40 60
200 98 269 63 47 -24 97 -73 122 -120 27 -52 29 -167 3 -242 -44 -131 -218
-243 -377 -243 -76 0 -94 -12 -118 -75 -12 -31 -21 -63 -21 -72 0 -24 93 -135
225 -266 l119 -118 -12 -55 c-13 -66 -50 -145 -108 -234 -111 -169 -228 -269
-366 -311 -60 -18 -75 -19 -139 -9 -129 20 -149 36 -233 194 -45 84 -47 91
-30 103 10 7 21 13 26 13 23 0 124 97 181 174 50 67 113 183 105 192 -3 2 -38
-17 -79 -42 -206 -128 -354 -195 -519 -235 -76 -18 -121 -23 -230 -22 -121 1
-143 3 -210 28 -170 62 -315 169 -390 289 -33 52 -38 56 -73 56 -33 0 -38 -3
-32 -19 4 -15 -4 -24 -42 -42 -89 -44 -61 -83 35 -49 l57 21 15 -23 c8 -13 32
-42 54 -65 34 -38 36 -43 20 -49 -59 -21 -122 -54 -127 -68 -3 -8 0 -20 8 -26
10 -8 32 -4 92 19 43 17 84 31 91 31 7 0 36 -16 65 -35 28 -19 57 -35 64 -35
24 0 13 -18 -14 -24 -16 -4 -74 -29 -129 -57 -115 -55 -110 -49 -149 -203 -13
-54 -35 -117 -49 -140 -31 -54 -103 -124 -171 -167 -92 -58 -87 -88 25 -150
l80 -44 1 -55 c2 -90 5 -98 41 -139 68 -75 101 -148 153 -346 15 -55 34 -122
41 -150 8 -27 44 -153 80 -280 66 -230 109 -384 124 -440 18 -67 100 -343 113
-379 l13 -39 48 74 c26 41 71 122 101 181 48 96 52 110 45 145 -9 40 -37 251
-45 343 -6 66 -11 108 -31 260 -22 172 -42 464 -33 475 5 5 9 -1 9 -15 0 -14
9 -79 20 -145 39 -236 51 -284 70 -289 25 -8 249 -31 385 -41 44 -3 98 -7 120
-10 50 -5 251 -15 510 -25 371 -13 912 0 1205 31 58 6 106 12 108 14 2 1 -4
54 -13 118 -22 158 -29 313 -24 527 l2 95 8 -110 c28 -383 128 -773 275 -1080
52 -109 81 -161 114 -203 l25 -31 55 15 c113 32 419 28 600 -7 179 -36 360
-131 360 -190 0 -32 -19 -31 -78 2 -254 143 -350 177 -526 186 -156 7 -293
-14 -464 -72 -127 -43 -128 -43 -310 -49 -222 -7 -262 -16 -305 -66 l-32 -38
-105 -5 c-105 -6 -202 3 -295 26 l-49 12 -12 70 c-17 100 -33 227 -40 323 l-7
82 79 1 c189 2 406 10 488 19 50 5 92 8 94 5 4 -4 26 -213 35 -339 6 -76 20
-102 41 -73 9 12 12 41 9 95 -7 115 -48 481 -56 488 -3 3 -147 0 -319 -6 -281
-12 -886 -9 -988 4 -19 2 -82 7 -140 11 -105 6 -170 12 -245 20 -22 3 -74 7
-115 10 -76 6 -100 8 -245 25 -129 16 -129 16 -121 -22 4 -18 11 -58 17 -88
17 -101 52 -251 103 -445 34 -130 94 -315 101 -315 2 0 50 46 107 103 102 101
185 160 243 172 l30 7 -25 -22 c-14 -11 -42 -32 -62 -45 -79 -52 -174 -151
-301 -315 -13 -17 -76 -112 -99 -149 -13 -23 -20 -24 -89 -22 -41 1 -93 4
-117 7 -48 7 -49 5 -21 -82 l13 -42 86 -11 c48 -6 95 -11 106 -11 11 0 36 -16
55 -36 l34 -35 -127 7 c-111 6 -128 4 -128 -9 0 -20 14 -24 99 -33 39 -3 71
-10 71 -14 0 -4 -26 -12 -57 -19 -90 -19 -91 -20 -86 -41 3 -12 16 -20 36 -22
41 -4 45 -23 6 -37 -27 -9 -30 -14 -24 -33 11 -34 18 -126 10 -146 -5 -14 -7
-14 -15 -2 -13 20 -82 255 -125 425 -19 75 -39 147 -80 285 -69 235 -343 1195
-370 1295 -113 424 -152 472 -390 490 -33 2 -564 7 -1180 11 -1100 6 -1121 6
-1165 -14 -83 -36 -116 -102 -107 -211 5 -61 23 -127 122 -456 13 -44 42 -143
64 -220 22 -77 98 -345 169 -595 278 -972 254 -905 340 -956 49 -30 91 -40
204 -50 68 -5 365 -33 418 -39 25 -3 131 -12 235 -20 105 -8 208 -17 230 -20
22 -2 67 -7 100 -10 33 -3 110 -10 170 -15 61 -6 139 -13 175 -15 36 -3 106
-10 155 -15 50 -5 131 -12 180 -16 50 -3 106 -8 125 -10 218 -22 471 -39 561
-38 58 0 84 5 110 21 25 16 40 19 57 12 13 -5 49 -13 80 -18 50 -8 92 -2 357
49 165 32 352 68 415 80 63 11 144 27 180 35 36 8 106 21 155 30 50 9 144 27
210 41 121 25 146 30 199 40 16 3 128 25 250 51 300 62 292 61 318 28 29 -38
53 -44 186 -50 64 -3 198 -10 297 -16 155 -9 652 -6 895 6 345 16 393 26 498
105 65 49 129 181 147 305 7 49 8 235 1 267 -56 259 -105 376 -327 773 -19 33
-40 72 -49 88 -66 120 -186 324 -310 527 -32 53 -46 74 -138 220 -23 36 -60
92 -82 125 -23 33 -84 125 -135 205 -107 166 -105 164 -229 330 -269 362 -464
484 -1022 640 -99 27 -192 55 -209 61 -151 55 -230 79 -285 84 l-65 7 -82 85
c-46 47 -83 93 -83 102 0 27 43 70 75 75 17 2 50 7 75 11 48 7 154 50 181 72
15 13 20 10 44 -21 15 -20 52 -48 83 -63 53 -26 66 -28 182 -28 114 0 130 2
180 26 112 54 200 141 200 200 0 18 6 30 19 34 61 19 144 153 161 261 19 114
7 262 -27 327 -22 44 -47 47 -143 21 -67 -19 -110 -24 -202 -24 l-118 0 -43
-55 c-24 -31 -65 -92 -91 -135 -26 -44 -52 -80 -57 -80 -5 0 -14 12 -20 26
-14 38 36 119 132 214 47 47 80 89 87 110 38 126 40 357 3 520 -69 306 -283
601 -571 785 -316 203 -689 288 -1050 239z m-940 -1066 c-1 -18 -5 -64 -11
-103 -19 -129 -19 -285 0 -371 38 -170 171 -329 347 -415 185 -90 371 -91 549
-4 58 28 83 35 145 37 72 3 75 4 78 29 3 29 -28 49 -78 49 -22 0 -35 10 -63
48 -19 26 -50 67 -70 92 -20 24 -34 46 -32 48 2 2 23 -10 47 -27 70 -50 203
-99 288 -106 41 -4 109 -17 150 -30 97 -30 153 -41 226 -44 35 -1 30 11 50
-135 l6 -43 -60 -37 c-33 -20 -64 -36 -70 -36 -6 0 -16 17 -21 38 -25 92 -95
114 -276 88 -61 -8 -135 -18 -165 -21 -30 -3 -93 -12 -140 -20 -230 -40 -230
-40 -230 -191 l0 -101 -68 -1 c-38 -1 -75 -2 -81 -4 -8 -2 -19 23 -31 67 -10
39 -23 82 -28 96 -14 36 -66 77 -105 83 -36 6 -293 16 -409 16 -74 0 -78 1
-78 23 0 52 42 271 74 380 l33 119 -19 71 c-33 119 -28 314 10 410 15 37 32
34 32 -5z m714 -173 c20 -30 36 -57 36 -60 0 -3 21 -33 47 -67 88 -116 251
-269 369 -345 11 -7 -1 -5 -26 4 -135 49 -355 255 -429 399 -29 57 -50 124
-39 124 3 0 22 -25 42 -55z m-1079 -312 c-15 -178 1 -296 55 -404 22 -42 27
-59 15 -49 -20 16 -69 112 -89 172 -38 115 -45 226 -19 302 13 38 30 66 40 66
3 0 2 -39 -2 -87z m1744 -510 c29 -24 47 -109 46 -213 -2 -126 -24 -186 -90
-254 -76 -79 -127 -101 -235 -100 -110 1 -173 27 -236 97 -83 93 -124 197
-124 319 l0 76 33 11 c31 10 197 36 307 47 30 4 100 12 155 19 55 7 105 13
111 14 7 0 21 -7 33 -16z m-1019 -97 c37 -17 69 -104 70 -190 0 -171 -144
-323 -311 -328 -54 -1 -74 4 -126 30 -116 59 -167 127 -198 260 -18 74 -30
214 -21 237 5 15 30 16 284 10 174 -5 286 -11 302 -19z m87 -1022 c7 -19 -58
-152 -91 -183 -31 -29 -67 -23 -84 14 -16 34 -15 120 1 133 15 13 126 51 150
52 10 0 20 -7 24 -16z m142 -15 l51 -11 -40 -33 c-54 -45 -148 -159 -241 -291
-74 -105 -293 -433 -336 -503 -20 -32 -20 -32 -26 -10 -3 13 -9 101 -13 195
l-7 172 46 73 c56 91 65 112 86 219 16 77 21 87 52 108 l34 23 8 -63 c6 -54
12 -68 42 -95 51 -48 92 -45 151 9 43 40 114 165 114 202 0 19 12 20 79 5z
m1565 -221 c-55 -109 -115 -195 -162 -232 -20 -16 -15 -5 21 44 26 36 70 100
98 143 55 82 70 98 43 45z m-359 -381 c-54 -29 -68 -32 -150 -32 -65 0 -104 5
-140 19 -56 22 -46 34 12 15 55 -18 177 -13 248 10 88 28 98 24 30 -12z m957
-90 c4 -27 9 -70 13 -95 3 -26 11 -67 17 -92 5 -25 12 -58 15 -75 13 -84 87
-323 132 -427 11 -27 17 -48 13 -48 -9 0 -106 203 -122 255 -7 22 -18 54 -25
70 -62 150 -119 404 -101 450 3 10 15 15 28 13 19 -2 24 -11 30 -51z m-4810
-514 c8 -30 12 -33 48 -33 35 0 39 -3 48 -32 32 -104 25 -117 -69 -140 -72
-17 -109 -22 -109 -14 0 3 -20 112 -35 186 -10 53 9 70 74 67 30 -2 36 -6 43
-34z m-144 -156 c8 -38 12 -71 10 -73 -3 -2 -19 -7 -36 -10 -28 -6 -33 -3 -43
22 -32 83 -19 138 30 132 24 -3 27 -9 39 -71z m202 -123 c0 -45 -99 -74 -120
-35 -19 37 -12 47 43 57 64 12 77 8 77 -22z m6075 -555 c17 -7 15 -8 -10 -9
-16 -1 -39 -3 -50 -4 -11 -2 -49 -6 -85 -10 -36 -4 -93 -14 -128 -22 -74 -16
-72 -16 -72 -6 0 16 63 44 128 56 66 13 178 11 217 -5z m-2370 -261 c71 -21
143 -43 160 -48 81 -27 312 -92 410 -116 119 -30 301 -39 455 -25 90 9 113 -1
160 -70 38 -56 57 -108 76 -209 17 -87 20 -298 5 -313 -16 -16 -485 -14 -591
2 -157 23 -257 60 -435 161 -127 72 -133 74 -217 60 -95 -15 -145 -30 -246
-74 -171 -74 -292 -95 -300 -54 -5 25 165 187 230 220 69 35 129 52 258 73
159 25 152 23 148 48 -3 20 -8 22 -60 20 -78 -2 -239 -31 -306 -54 -80 -28
-121 -58 -257 -190 -87 -84 -130 -119 -155 -125 -42 -9 -60 -7 -79 12 -13 12
-10 20 19 61 36 52 139 170 235 271 110 117 273 217 413 256 63 18 77 25 77
41 0 33 -92 26 -190 -14 -189 -77 -385 -251 -590 -524 l-28 -38 -25 25 c-25
24 -25 27 -12 67 19 57 140 225 234 326 121 129 213 193 346 239 76 27 86 26
265 -28z m1556 -256 c20 -47 38 -182 23 -182 -5 0 -23 53 -41 118 -17 64 -34
126 -38 137 -12 36 34 -25 56 -73z m-1496 -402 c114 -11 183 -27 168 -39 -13
-12 -87 -31 -117 -31 -15 0 -29 7 -32 15 -8 19 -55 34 -139 41 -38 3 -74 10
-79 15 -13 12 62 12 199 -1z m-285 -49 c0 -5 -9 -11 -20 -14 -11 -3 -20 -1
-20 3 0 5 8 11 18 13 9 3 18 5 20 6 1 0 2 -3 2 -8z m-340 -26 c18 -21 9 -26
-30 -19 -30 7 -32 8 -15 21 24 17 30 16 45 -2z m590 -4 c0 -7 -198 -61 -223
-61 -3 0 -11 9 -17 19 -9 18 -5 21 37 34 53 16 203 22 203 8z m-715 -40 l40
-8 -30 -12 c-52 -21 -169 -51 -200 -51 -29 0 -55 15 -55 31 0 4 24 13 53 19
28 6 59 15 67 20 18 12 70 12 125 1z m421 -16 c10 -8 17 -15 14 -15 -3 -1 -13
-3 -24 -5 -10 -2 -40 -9 -67 -15 -39 -10 -53 -9 -65 0 -21 18 -12 34 22 41 52
12 100 9 120 -6z m-195 -31 c15 -19 4 -31 -33 -37 -18 -3 -69 -14 -112 -26
-79 -21 -79 -21 -98 -2 -20 23 -23 31 -8 31 6 0 31 10 57 22 76 36 169 42 194
12z m-292 -81 c14 -10 14 -12 1 -17 -46 -17 -140 -36 -177 -36 -35 0 -43 3
-43 18 0 31 56 52 134 49 37 -1 76 -7 85 -14z"/>
<path d="M3882 6798 c-20 -20 -14 -48 14 -58 36 -14 128 -12 142 2 18 18 14
46 -7 58 -27 14 -134 13 -149 -2z"/>
<path d="M4995 6561 c-179 -42 -224 -59 -231 -87 -7 -28 11 -54 37 -54 18 0
22 -9 34 -67 4 -18 20 -47 36 -64 26 -28 34 -31 70 -26 23 3 51 15 64 27 28
26 49 96 43 144 l-4 36 66 21 c80 25 110 44 110 68 0 40 -59 40 -225 2z"/>
<path d="M3690 6526 c0 -3 11 -38 24 -78 37 -117 40 -145 16 -153 -23 -7 -27
-37 -7 -54 10 -7 17 -7 24 0 18 18 31 2 50 -58 14 -44 26 -63 57 -85 21 -15
42 -28 45 -28 4 0 -27 102 -69 228 l-76 227 -32 3 c-18 2 -32 1 -32 -2z"/>
<path d="M3858 6523 c-9 -2 -19 -11 -22 -19 -11 -28 13 -52 71 -71 48 -16 58
-24 61 -44 7 -69 16 -92 43 -124 73 -82 169 -32 156 81 -3 30 0 47 9 55 21 17
17 47 -9 64 -40 26 -268 69 -309 58z"/>
<path d="M4090 5101 c0 -11 3 -27 6 -36 6 -14 11 -12 35 11 38 36 36 44 -6 44
-28 0 -35 -4 -35 -19z"/>
<path d="M7294 7257 c-85 -41 -104 -122 -40 -169 12 -9 73 -39 135 -67 201
-90 272 -149 290 -241 10 -55 14 -109 12 -165 -2 -29 -2 -29 -26 17 -14 25
-50 74 -81 107 -46 50 -66 64 -110 77 -49 14 -59 14 -108 0 -37 -11 -63 -27
-85 -51 -35 -40 -39 -69 -14 -105 16 -23 16 -23 -3 -16 -71 28 -208 28 -251 0
-51 -32 -12 -55 72 -43 62 9 115 4 115 -11 0 -5 -41 -30 -91 -57 -114 -60
-232 -161 -279 -238 -46 -77 -54 -167 -20 -213 13 -17 40 -38 60 -46 54 -21
99 -6 148 49 38 43 49 66 107 235 14 41 41 104 58 140 27 54 40 69 77 87 84
42 103 41 178 -10 37 -25 83 -62 102 -82 l35 -36 -54 21 c-106 41 -223 18
-229 -46 -4 -40 9 -49 93 -67 189 -41 220 -48 259 -65 l41 -19 -90 -6 c-102
-8 -158 -21 -174 -40 -6 -7 -13 -38 -17 -68 -4 -30 -10 -56 -15 -57 -5 -2 -16
-10 -24 -18 -17 -17 -16 -30 19 -249 13 -88 29 -188 34 -222 l9 -63 -74 0
c-40 0 -73 -4 -73 -8 0 -4 15 -22 33 -40 l33 -32 767 0 767 0 0 -70 0 -70
-700 4 c-385 2 -700 1 -700 -1 0 -2 5 -13 10 -24 10 -18 29 -19 700 -19 l690
0 0 -64 c0 -58 -2 -64 -23 -69 -12 -4 -279 -6 -592 -6 -730 1 -660 2 -641 -16
9 -9 22 -26 31 -38 16 -22 51 -24 677 -27 l88 0 -2 -546 -1 -546 27 -35 c16
-20 32 -31 37 -26 5 5 10 266 11 581 l3 572 207 2 c274 4 252 -17 252 244 0
194 0 197 -23 215 -22 18 -47 19 -452 19 l-429 0 0 23 c0 12 5 40 10 62 5 22
12 65 15 95 3 30 8 62 10 70 2 8 7 40 10 70 4 30 8 57 10 60 8 13 16 120 11
138 -4 11 -17 23 -29 26 -20 5 -23 12 -23 60 -1 31 -7 62 -14 71 -18 21 -77
35 -188 43 -95 7 -96 7 -72 24 21 14 36 15 94 8 136 -17 284 -117 287 -193 1
-17 2 -93 3 -167 2 -112 6 -146 25 -200 30 -85 55 -119 107 -141 40 -18 45
-18 84 -3 44 18 70 54 77 111 11 79 -95 283 -240 461 l-59 73 43 -5 c24 -3 49
-5 56 -5 20 -1 51 -41 95 -121 42 -79 101 -162 152 -218 73 -79 154 -98 204
-49 24 24 27 35 27 90 0 156 -147 298 -356 342 -41 9 -126 18 -189 21 -98 3
-122 8 -164 29 -27 14 -57 25 -65 26 -9 0 -6 4 8 10 14 5 91 9 172 7 152 -3
179 3 179 41 0 32 -40 80 -90 107 -48 26 -50 29 -30 38 32 14 104 -8 175 -54
191 -125 240 -144 294 -115 63 32 68 141 11 200 -86 89 -314 97 -529 20 -38
-14 -91 -25 -118 -25 -74 0 -144 -25 -212 -75 -34 -25 -61 -42 -61 -39 0 39
108 141 238 223 45 29 91 64 102 78 19 25 19 25 0 61 -23 44 -56 69 -113 86
-77 23 -154 -17 -216 -111 l-28 -43 -12 63 c-17 84 -57 201 -93 267 -101 185
-229 256 -354 197z m156 -62 c41 -21 96 -82 129 -144 17 -33 31 -62 31 -66 0
-3 -14 3 -31 16 -17 12 -80 43 -141 70 -128 56 -158 74 -158 94 0 26 77 57
120 47 14 -2 36 -10 50 -17z m573 -390 c20 -14 37 -29 37 -33 0 -15 -64 -42
-100 -42 -29 0 -43 6 -54 22 -22 31 -20 53 7 66 36 18 70 14 110 -13z m-534
-71 c15 -19 21 -41 21 -76 0 -46 -1 -49 -22 -43 -61 17 -136 48 -158 65 l-25
20 33 30 c27 25 41 30 81 30 42 0 53 -4 70 -26z m1093 -186 c70 -21 107 -88
74 -133 -13 -18 -16 -18 -52 -4 -22 9 -83 44 -137 80 -94 61 -97 64 -70 71 36
9 134 1 185 -14z m-1496 -160 c-18 -46 -45 -117 -60 -158 -25 -71 -72 -139
-99 -141 -71 -7 -98 59 -58 146 25 56 115 151 185 197 33 21 60 38 62 38 1 0
-12 -37 -30 -82z m1418 -249 c125 -59 223 -222 167 -278 -21 -21 -22 -21 -52
-4 -59 34 -142 139 -217 274 l-31 57 42 -13 c23 -7 64 -23 91 -36z m-134 -338
c42 -104 45 -126 20 -161 -26 -37 -40 -37 -79 -5 -58 50 -78 143 -72 340 l1
50 51 -78 c28 -43 63 -109 79 -146z m-325 198 c3 -4 -3 -69 -15 -145 -11 -77
-22 -155 -25 -174 -3 -19 -10 -63 -17 -97 l-12 -63 -240 0 -241 0 -19 135
c-10 73 -26 180 -36 237 -15 94 -16 104 -1 110 20 9 597 5 606 -3z"/>
<path d="M5873 6637 c-56 -120 -61 -137 -40 -137 27 0 53 30 90 102 45 87 53
142 22 146 -17 2 -29 -17 -72 -111z"/>
<path d="M3533 6198 c-47 -50 -61 -84 -201 -508 -136 -412 -144 -442 -161
-605 -17 -157 -20 -183 -27 -292 l-7 -103 31 0 c28 0 32 4 33 28 1 15 3 41 5
57 1 17 10 111 19 210 23 253 27 270 146 625 157 469 166 493 198 531 24 30
30 44 25 64 -8 33 -24 32 -61 -7z"/>
<path d="M5780 6141 c0 -5 13 -20 29 -34 36 -30 104 -36 346 -32 94 2 182 1
198 -1 27 -6 27 -6 27 -84 0 -83 4 -90 55 -90 24 0 24 1 21 105 -4 157 27 145
-358 145 -184 0 -318 -4 -318 -9z"/>
<path d="M4397 5806 c-3 -8 0 -19 6 -24 14 -11 123 -23 143 -15 23 8 16 33
-12 43 -40 16 -131 13 -137 -4z"/>
<path d="M7050 2009 c-36 -4 -123 -10 -195 -14 -254 -13 -289 -16 -570 -40
-27 -2 -93 -7 -145 -12 -52 -4 -99 -8 -105 -9 -5 -1 -27 -2 -47 -3 -26 -1 -48
-10 -73 -32 -30 -27 -36 -37 -33 -67 5 -54 11 -58 353 -187 203 -76 205 -77
317 -70 57 3 229 16 383 30 154 13 307 27 340 30 33 2 107 9 165 14 58 6 143
13 190 17 144 11 162 16 186 52 18 26 21 39 14 62 -16 57 -8 53 -305 152 -182
60 -223 70 -310 76 -55 4 -129 4 -165 1z m387 -123 c229 -78 218 -72 137 -79
-132 -13 -187 -9 -255 19 -35 15 -112 43 -172 63 -59 21 -104 40 -100 44 3 4
57 7 120 7 110 0 116 -1 270 -54z m-572 7 c71 -23 275 -104 280 -113 2 -4 -42
-10 -98 -13 -56 -3 -191 -13 -300 -22 -184 -15 -204 -15 -279 0 -45 9 -95 23
-112 32 -17 9 -80 33 -141 54 -60 22 -108 39 -105 40 3 0 14 2 25 4 11 2 135
11 275 19 140 9 275 18 300 19 55 4 90 0 155 -20z"/>
</g>
</svg>
